Glegoo-deva-regular-vfb2ufo.ufo
<glyph name="exclam" format="1">
  <advance width="316"/>
  <unicode hex="0021"/>
  <outline>
    <contour>
      <point x="157" y="-8" type="curve" smooth="yes" name="hr00"/>
      <point x="113" y="-8" smooth="yes"/>
      <point x="110" y="23" smooth="yes"/>
      <point x="110" y="50" type="curve" smooth="yes"/>
      <point x="110" y="78" smooth="yes"/>
      <point x="113" y="109" smooth="yes"/>
      <point x="157" y="109" type="curve" smooth="yes"/>
      <point x="203" y="109" smooth="yes"/>
      <point x="206" y="78" smooth="yes"/>
      <point x="206" y="50" type="curve" smooth="yes"/>
      <point x="206" y="23" smooth="yes"/>
      <point x="203" y="-8" smooth="yes"/>
    </contour>
    <contour>
      <point x="117" y="730" type="line"/>
      <point x="117" y="572" type="line"/>
      <point x="135" y="185" type="line"/>
      <point x="179" y="185" type="line"/>
      <point x="197" y="572" type="line"/>
      <point x="197" y="730" type="line"/>
    </contour>
  </outline>
</glyph>
<glyph name="parenleft" format="1">
  <advance width="294"/>
  <unicode hex="0028"/>
  <outline>
    <contour>
      <point x="289" y="-66" type="line" name="hr00"/>
      <point x="88" y="-66" smooth="yes"/>
      <point x="65" y="84" smooth="yes"/>
      <point x="65" y="335" type="curve" smooth="yes"/>
      <point x="65" y="583"/>
      <point x="88" y="735"/>
      <point x="289" y="735" type="curve"/>
      <point x="289" y="673" type="line"/>
      <point x="156" y="673" smooth="yes"/>
      <point x="142" y="546" smooth="yes"/>
      <point x="142" y="335" type="curve" smooth="yes"/>
      <point x="142" y="123"/>
      <point x="156" y="-4"/>
      <point x="289" y="-4" type="curve"/>
    </contour>
  </outline>
</glyph>
<glyph name="slash" format="1">
  <advance width="308"/>
  <unicode hex="002F"/>
  <outline>
    <contour>
      <point x="0" y="-106" type="line" name="hr00"/>
      <point x="71" y="-106" type="line"/>
      <point x="308" y="775" type="line"/>
      <point x="237" y="775" type="line"/>
    </contour>
  </outline>
</glyph>
<glyph name="four" format="1">
  <advance width="580"/>
  <unicode hex="0034"/>
  <outline>
    <contour>
      <point x="325" y="670" type="line" name="hr00"/>
      <point x="32" y="208" type="line"/>
      <point x="32" y="150" type="line"/>
      <point x="521" y="150" type="line"/>
      <point x="521" y="209" type="line"/>
      <point x="111" y="209" type="line"/>
      <point x="403" y="670" type="line"/>
    </contour>
    <contour>
      <point x="437" y="0" type="line"/>
      <point x="437" y="670" type="line"/>
      <point x="366" y="670" type="line"/>
      <point x="366" y="0" type="line"/>
    </contour>
  </outline>
</glyph>
<glyph name="question" format="1">
  <advance width="484"/>
  <unicode hex="003F"/>
  <outline>
    <contour>
      <point x="222" y="-8" type="curve" smooth="yes"/>
      <point x="178" y="-8" smooth="yes"/>
      <point x="175" y="23" smooth="yes"/>
      <point x="175" y="50" type="curve" smooth="yes"/>
      <point x="175" y="78" smooth="yes"/>
      <point x="178" y="109" smooth="yes"/>
      <point x="222" y="109" type="curve" smooth="yes"/>
      <point x="268" y="109" smooth="yes"/>
      <point x="271" y="78" smooth="yes"/>
      <point x="271" y="50" type="curve" smooth="yes"/>
      <point x="271" y="23" smooth="yes"/>
      <point x="268" y="-8" smooth="yes"/>
    </contour>
    <contour>
      <point x="273" y="333" type="line" smooth="yes"/>
      <point x="384" y="350" smooth="yes"/>
      <point x="452" y="387" smooth="yes"/>
      <point x="452" y="535" type="curve" smooth="yes"/>
      <point x="452" y="666" smooth="yes"/>
      <point x="399" y="744" smooth="yes"/>
      <point x="239" y="744" type="curve" smooth="yes"/>
      <point x="95" y="744"/>
      <point x="42" y="680"/>
      <point x="42" y="572" type="curve"/>
      <point x="102" y="572" type="line"/>
      <point x="102" y="640" smooth="yes"/>
      <point x="137" y="685" smooth="yes"/>
      <point x="238" y="685" type="curve" smooth="yes"/>
      <point x="354" y="685" smooth="yes"/>
      <point x="384" y="625" smooth="yes"/>
      <point x="384" y="533" type="curve" smooth="yes" name="hr01"/>
      <point x="384" y="418" smooth="yes"/>
      <point x="323" y="390" smooth="yes"/>
      <point x="244" y="381" type="curve" smooth="yes"/>
      <point x="193" y="375" type="line"/>
      <point x="200" y="185" type="line" name="hr02"/>
      <point x="246" y="185" type="line"/>
      <point x="257" y="331" type="line"/>
    </contour>
  </outline>
</glyph>
<glyph name="D" format="1">
  <advance width="688"/>
  <unicode hex="0044"/>
  <outline>
    <contour>
      <point x="130" y="730" type="line" name="hr00"/>
      <point x="130" y="0" type="line"/>
      <point x="202" y="0" type="line"/>
      <point x="202" y="730" type="line"/>
    </contour>
    <contour>
      <point x="202" y="730" type="line"/>
      <point x="202" y="671" type="line"/>
      <point x="345" y="671" type="line" smooth="yes"/>
      <point x="535" y="671" smooth="yes"/>
      <point x="556" y="553" smooth="yes"/>
      <point x="556" y="365" type="curve" smooth="yes"/>
      <point x="556" y="177" smooth="yes"/>
      <point x="535" y="59" smooth="yes"/>
      <point x="345" y="59" type="curve" smooth="yes"/>
      <point x="202" y="59" type="line"/>
      <point x="202" y="0" type="line"/>
      <point x="345" y="0" type="line" smooth="yes"/>
      <point x="600" y="0" smooth="yes"/>
      <point x="628" y="137" smooth="yes"/>
      <point x="628" y="365" type="curve" smooth="yes"/>
      <point x="628" y="591" smooth="yes"/>
      <point x="600" y="730" smooth="yes"/>
      <point x="345" y="730" type="curve" smooth="yes"/>
    </contour>
    <contour>
      <point x="70" y="680" type="line"/>
      <point x="170" y="680" type="line"/>
      <point x="170" y="730" type="line"/>
      <point x="70" y="730" type="line"/>
    </contour>
    <contour>
      <point x="70" y="0" type="line"/>
      <point x="170" y="0" type="line"/>
      <point x="170" y="50" type="line"/>
      <point x="70" y="50" type="line"/>
    </contour>
  </outline>
</glyph>
<glyph name="I" format="1">
  <advance width="352"/>
  <unicode hex="0049"/>
  <outline>
    <contour>
      <point x="140" y="730" type="line" name="hr00"/>
      <point x="140" y="0" type="line"/>
      <point x="212" y="0" type="line"/>
      <point x="212" y="730" type="line"/>
    </contour>
    <contour>
      <point x="70" y="680" type="line"/>
      <point x="282" y="680" type="line"/>
      <point x="282" y="730" type="line"/>
      <point x="70" y="730" type="line"/>
    </contour>
    <contour>
      <point x="70" y="0" type="line"/>
      <point x="282" y="0" type="line"/>
      <point x="282" y="50" type="line"/>
      <point x="70" y="50" type="line"/>
    </contour>
  </outline>
</glyph>
<glyph name="L" format="1">
  <advance width="507"/>
  <unicode hex="004C"/>
  <outline>
    <contour>
      <point x="130" y="730" type="line" name="hr00"/>
      <point x="130" y="0" type="line"/>
      <point x="202" y="0" type="line"/>
      <point x="202" y="730" type="line"/>
    </contour>
    <contour>
      <point x="130" y="0" type="line"/>
      <point x="467" y="0" type="line"/>
      <point x="467" y="59" type="line"/>
      <point x="130" y="59" type="line"/>
    </contour>
    <contour>
      <point x="70" y="680" type="line"/>
      <point x="282" y="680" type="line"/>
      <point x="282" y="730" type="line"/>
      <point x="70" y="730" type="line"/>
    </contour>
    <contour>
      <point x="497" y="0" type="line"/>
      <point x="497" y="158" type="line"/>
      <point x="441" y="158" type="line"/>
      <point x="441" y="0" type="line"/>
    </contour>
    <contour>
      <point x="70" y="0" type="line"/>
      <point x="130" y="0" type="line"/>
      <point x="130" y="50" type="line"/>
      <point x="70" y="50" type="line"/>
    </contour>
  </outline>
</glyph>
<glyph name="N" format="1">
  <advance width="770"/>
  <unicode hex="004E"/>
  <outline>
    <contour>
      <point x="130" y="730" type="line"/>
      <point x="130" y="0" type="line"/>
      <point x="202" y="0" type="line"/>
      <point x="202" y="730" type="line"/>
    </contour>
    <contour>
      <point x="578" y="730" type="line"/>
      <point x="578" y="0" type="line"/>
      <point x="650" y="0" type="line"/>
      <point x="650" y="730" type="line"/>
    </contour>
    <contour>
      <point x="130" y="730" type="line"/>
      <point x="570" y="0" type="line"/>
      <point x="650" y="0" type="line"/>
      <point x="210" y="730" type="line"/>
    </contour>
    <contour>
      <point x="70" y="0" type="line"/>
      <point x="262" y="0" type="line"/>
      <point x="262" y="50" type="line"/>
      <point x="70" y="50" type="line"/>
    </contour>
    <contour>
      <point x="70" y="680" type="line"/>
      <point x="170" y="680" type="line"/>
      <point x="170" y="730" type="line"/>
      <point x="70" y="730" type="line"/>
    </contour>
    <contour>
      <point x="518" y="680" type="line"/>
      <point x="710" y="680" type="line"/>
      <point x="710" y="730" type="line"/>
      <point x="518" y="730" type="line"/>
    </contour>
  </outline>
</glyph>
<glyph name="Q" format="1">
  <advance width="675"/>
  <unicode hex="0051"/>
  <outline>
    <contour>
      <point x="299" y="13" type="line" name="hr00"/>
      <point x="402" y="-192" type="line"/>
      <point x="477" y="-192" type="line"/>
      <point x="374" y="13" type="line"/>
    </contour>
    <contour>
      <point x="337" y="-14" type="curve" smooth="yes"/>
      <point x="587" y="-14" smooth="yes"/>
      <point x="615" y="128" smooth="yes"/>
      <point x="615" y="365" type="curve" smooth="yes"/>
      <point x="615" y="600" smooth="yes"/>
      <point x="587" y="744" smooth="yes"/>
      <point x="337" y="744" type="curve" smooth="yes"/>
      <point x="87" y="744" smooth="yes"/>
      <point x="60" y="600" smooth="yes"/>
      <point x="60" y="365" type="curve" smooth="yes"/>
      <point x="60" y="128" smooth="yes"/>
      <point x="87" y="-14" smooth="yes"/>
    </contour>
    <contour>
      <point x="337" y="46" type="curve" smooth="yes"/>
      <point x="152" y="46" smooth="yes"/>
      <point x="132" y="168" smooth="yes"/>
      <point x="132" y="365" type="curve" smooth="yes"/>
      <point x="132" y="562" smooth="yes"/>
      <point x="152" y="684" smooth="yes"/>
      <point x="337" y="684" type="curve" smooth="yes"/>
      <point x="522" y="684" smooth="yes"/>
      <point x="543" y="562" smooth="yes"/>
      <point x="543" y="365" type="curve" smooth="yes"/>
      <point x="543" y="168" smooth="yes"/>
      <point x="522" y="46" smooth="yes"/>
    </contour>
  </outline>
</glyph>
<glyph name="T" format="1">
  <advance width="538"/>
  <unicode hex="0054"/>
  <outline>
    <contour>
      <point x="10" y="671" type="line"/>
      <point x="528" y="671" type="line"/>
      <point x="528" y="730" type="line"/>
      <point x="10" y="730" type="line"/>
    </contour>
    <contour>
      <point x="233" y="700" type="line"/>
      <point x="233" y="0" type="line"/>
      <point x="305" y="0" type="line"/>
      <point x="305" y="700" type="line"/>
    </contour>
    <contour>
      <point x="153" y="0" type="line"/>
      <point x="385" y="0" type="line"/>
      <point x="385" y="50" type="line"/>
      <point x="153" y="50" type="line"/>
    </contour>
    <contour>
      <point x="66" y="572" type="line" name="hr01"/>
      <point x="66" y="730" type="line"/>
      <point x="10" y="730" type="line"/>
      <point x="10" y="572" type="line"/>
    </contour>
    <contour>
      <point x="528" y="572" type="line"/>
      <point x="528" y="730" type="line"/>
      <point x="472" y="730" type="line"/>
      <point x="472" y="572" type="line"/>
    </contour>
  </outline>
</glyph>
<glyph name="bracketright" format="1">
  <advance width="284"/>
  <unicode hex="005D"/>
  <outline>
    <contour>
      <point x="204" y="735" type="line" name="hr00"/>
      <point x="131" y="735" type="line"/>
      <point x="131" y="-66" type="line"/>
      <point x="204" y="-66" type="line"/>
    </contour>
    <contour>
      <point x="148" y="-13" type="line"/>
      <point x="5" y="-13" type="line"/>
      <point x="5" y="-66" type="line"/>
      <point x="148" y="-66" type="line"/>
    </contour>
    <contour>
      <point x="148" y="735" type="line"/>
      <point x="5" y="735" type="line"/>
      <point x="5" y="682" type="line"/>
      <point x="148" y="682" type="line"/>
    </contour>
  </outline>
</glyph>
<glyph name="b" format="1">
  <advance width="616"/>
  <unicode hex="0062"/>
  <outline>
    <contour>
      <point x="170" y="85" type="line"/>
      <point x="170" y="750" type="line"/>
      <point x="100" y="750" type="line"/>
      <point x="100" y="0" type="line"/>
      <point x="147" y="0" type="line"/>
    </contour>
    <contour>
      <point x="346" y="-14" type="curve" smooth="yes" name="hr01"/>
      <point x="534" y="-14" smooth="yes"/>
      <point x="556" y="131" smooth="yes"/>
      <point x="556" y="286" type="curve" smooth="yes"/>
      <point x="556" y="441" smooth="yes"/>
      <point x="532" y="586" smooth="yes"/>
      <point x="346" y="586" type="curve" smooth="yes"/>
      <point x="269" y="586"/>
      <point x="187" y="550"/>
      <point x="124" y="500" type="curve"/>
      <point x="140" y="455" type="line"/>
      <point x="213" y="508" smooth="yes"/>
      <point x="270" y="527" smooth="yes"/>
      <point x="336" y="527" type="curve" smooth="yes"/>
      <point x="471" y="527" smooth="yes"/>
      <point x="486" y="405" smooth="yes"/>
      <point x="486" y="286" type="curve" smooth="yes"/>
      <point x="486" y="154" smooth="yes"/>
      <point x="474" y="45" smooth="yes"/>
      <point x="326" y="45" type="curve" smooth="yes"/>
      <point x="272" y="45"/>
      <point x="192" y="73"/>
      <point x="135" y="134" type="curve"/>
      <point x="119" y="90" type="line"/>
      <point x="156" y="45" smooth="yes"/>
      <point x="251" y="-14" smooth="yes"/>
    </contour>
    <contour>
      <point x="40" y="700" type="line"/>
      <point x="100" y="700" type="line"/>
      <point x="100" y="750" type="line"/>
      <point x="40" y="750" type="line"/>
    </contour>
  </outline>
</glyph>
<glyph name="f" format="1">
  <advance width="343"/>
  <unicode hex="0066"/>
  <outline>
    <contour>
      <point x="60" y="522" type="line" name="hr00"/>
      <point x="318" y="522" type="line"/>
      <point x="318" y="572" type="line"/>
      <point x="60" y="572" type="line"/>
    </contour>
    <contour>
      <point x="68" y="0" type="line"/>
      <point x="278" y="0" type="line"/>
      <point x="278" y="50" type="line"/>
      <point x="68" y="50" type="line"/>
    </contour>
    <contour>
      <point x="198" y="611" type="line" smooth="yes"/>
      <point x="198" y="671" smooth="yes"/>
      <point x="208" y="695" smooth="yes"/>
      <point x="267" y="700" type="curve" smooth="yes"/>
      <point x="328" y="705" type="line"/>
      <point x="328" y="755" type="line"/>
      <point x="267" y="755" type="line" smooth="yes"/>
      <point x="145" y="755" smooth="yes"/>
      <point x="128" y="699" smooth="yes"/>
      <point x="128" y="606" type="curve" smooth="yes"/>
      <point x="128" y="0" type="line"/>
      <point x="198" y="0" type="line"/>
    </contour>
  </outline>
</glyph>
<glyph name="g" format="1">
  <advance width="580"/>
  <unicode hex="0067"/>
  <outline>
    <contour>
      <point x="294" y="184" type="curve" smooth="yes"/>
      <point x="481" y="184" smooth="yes"/>
      <point x="501" y="281" smooth="yes"/>
      <point x="501" y="385" type="curve" smooth="yes"/>
      <point x="501" y="489" smooth="yes"/>
      <point x="481" y="586" smooth="yes"/>
      <point x="294" y="586" type="curve" smooth="yes"/>
      <point x="108" y="586" smooth="yes"/>
      <point x="88" y="489" smooth="yes"/>
      <point x="88" y="385" type="curve" smooth="yes"/>
      <point x="88" y="281" smooth="yes"/>
      <point x="108" y="184" smooth="yes"/>
    </contour>
    <contour>
      <point x="411" y="549" type="line"/>
      <point x="453" y="507" type="line"/>
      <point x="536" y="590" type="line"/>
      <point x="494" y="632" type="line"/>
    </contour>
    <contour>
      <point x="294" y="237" type="curve" smooth="yes"/>
      <point x="170" y="237" smooth="yes"/>
      <point x="156" y="298" smooth="yes"/>
      <point x="156" y="385" type="curve" smooth="yes"/>
      <point x="156" y="472" smooth="yes"/>
      <point x="170" y="533" smooth="yes"/>
      <point x="294" y="533" type="curve" smooth="yes"/>
      <point x="419" y="533" smooth="yes"/>
      <point x="433" y="472" smooth="yes"/>
      <point x="433" y="385" type="curve" smooth="yes"/>
      <point x="433" y="298" smooth="yes"/>
      <point x="419" y="237" smooth="yes"/>
    </contour>
    <contour>
      <point x="284" y="-188" type="curve" smooth="yes"/>
      <point x="188" y="-188" smooth="yes"/>
      <point x="111" y="-181" smooth="yes"/>
      <point x="111" y="-100" type="curve" smooth="yes"/>
      <point x="111" y="-59"/>
      <point x="129" y="-23"/>
      <point x="157" y="0" type="curve"/>
      <point x="372" y="0" type="line" smooth="yes"/>
      <point x="417" y="0" smooth="yes"/>
      <point x="475" y="-8" smooth="yes"/>
      <point x="475" y="-81" type="curve" smooth="yes" name="hr01"/>
      <point x="475" y="-182" smooth="yes"/>
      <point x="408" y="-188" smooth="yes"/>
    </contour>
    <contour>
      <point x="199" y="214" type="line"/>
      <point x="166" y="250" type="line"/>
      <point x="97" y="184" type="line" smooth="yes"/>
      <point x="62" y="149" smooth="yes"/>
      <point x="53" y="118" smooth="yes"/>
      <point x="53" y="91" type="curve" smooth="yes"/>
      <point x="53" y="52"/>
      <point x="70" y="24"/>
      <point x="108" y="8" type="curve"/>
      <point x="70" y="-23" smooth="yes"/>
      <point x="50" y="-62" smooth="yes"/>
      <point x="50" y="-104" type="curve" smooth="yes"/>
      <point x="50" y="-227" smooth="yes"/>
      <point x="149" y="-241" smooth="yes"/>
      <point x="284" y="-241" type="curve" smooth="yes"/>
      <point x="412" y="-241" smooth="yes"/>
      <point x="540" y="-236" smooth="yes"/>
      <point x="540" y="-80" type="curve" smooth="yes"/>
      <point x="540" y="7" smooth="yes"/>
      <point x="486" y="53" smooth="yes"/>
      <point x="392" y="53" type="curve" smooth="yes"/>
      <point x="163" y="53" type="line" smooth="yes"/>
      <point x="135" y="53" smooth="yes"/>
      <point x="110" y="64" smooth="yes"/>
      <point x="110" y="96" type="curve" smooth="yes"/>
      <point x="110" y="116" smooth="yes"/>
      <point x="117" y="136" smooth="yes"/>
      <point x="136" y="154" type="curve" smooth="yes"/>
    </contour>
  </outline>
</glyph>
<glyph name="l" format="1">
  <advance width="310"/>
  <unicode hex="006C"/>
  <outline>
    <contour>
      <point x="120" y="750" type="line" name="hr00"/>
      <point x="120" y="0" type="line"/>
      <point x="190" y="0" type="line"/>
      <point x="190" y="750" type="line"/>
    </contour>
    <contour>
      <point x="60" y="0" type="line"/>
      <point x="250" y="0" type="line"/>
      <point x="250" y="50" type="line"/>
      <point x="60" y="50" type="line"/>
    </contour>
    <contour>
      <point x="60" y="700" type="line"/>
      <point x="190" y="700" type="line"/>
      <point x="190" y="750" type="line"/>
      <point x="60" y="750" type="line"/>
    </contour>
  </outline>
</glyph>
<glyph name="o" format="1">
  <advance width="608"/>
  <unicode hex="006F"/>
  <outline>
    <contour>
      <point x="304" y="45" type="curve" smooth="yes" name="hr00"/>
      <point x="139" y="45" smooth="yes"/>
      <point x="130" y="167" smooth="yes"/>
      <point x="130" y="286" type="curve" smooth="yes"/>
      <point x="130" y="405" smooth="yes"/>
      <point x="139" y="527" smooth="yes"/>
      <point x="304" y="527" type="curve" smooth="yes"/>
      <point x="469" y="527" smooth="yes"/>
      <point x="478" y="405" smooth="yes"/>
      <point x="478" y="286" type="curve" smooth="yes"/>
      <point x="478" y="167" smooth="yes"/>
      <point x="469" y="45" smooth="yes"/>
    </contour>
    <contour>
      <point x="304" y="-14" type="curve"/>
      <point x="524" y="-14" smooth="yes"/>
      <point x="548" y="131" smooth="yes"/>
      <point x="548" y="286" type="curve" smooth="yes"/>
      <point x="548" y="441" smooth="yes"/>
      <point x="524" y="586" smooth="yes"/>
      <point x="304" y="586" type="curve" smooth="yes"/>
      <point x="84" y="586" smooth="yes"/>
      <point x="60" y="441" smooth="yes"/>
      <point x="60" y="286" type="curve" smooth="yes"/>
      <point x="60" y="131" smooth="yes"/>
      <point x="84" y="-14" smooth="yes"/>
    </contour>
  </outline>
</glyph>
<glyph name="q" format="1">
  <advance width="636"/>
  <unicode hex="0071"/>
  <outline>
    <contour>
      <point x="476" y="102" type="line"/>
      <point x="418" y="64" smooth="yes"/>
      <point x="356" y="45" smooth="yes"/>
      <point x="290" y="45" type="curve" smooth="yes"/>
      <point x="151" y="45" smooth="yes"/>
      <point x="130" y="147" smooth="yes"/>
      <point x="130" y="286" type="curve" smooth="yes"/>
      <point x="130" y="425" smooth="yes"/>
      <point x="153" y="527" smooth="yes"/>
      <point x="290" y="527" type="curve" smooth="yes"/>
      <point x="357" y="527"/>
      <point x="419" y="510"/>
      <point x="476" y="450" type="curve"/>
      <point x="492" y="497" type="line"/>
      <point x="456" y="538" smooth="yes"/>
      <point x="380" y="586" smooth="yes"/>
      <point x="280" y="586" type="curve" smooth="yes"/>
      <point x="82" y="586" smooth="yes"/>
      <point x="60" y="441" smooth="yes"/>
      <point x="60" y="286" type="curve" smooth="yes"/>
      <point x="60" y="131" smooth="yes"/>
      <point x="82" y="-14" smooth="yes"/>
      <point x="280" y="-14" type="curve" smooth="yes"/>
      <point x="357" y="-14"/>
      <point x="441" y="19"/>
      <point x="492" y="52" type="curve"/>
    </contour>
    <contour>
      <point x="446" y="487" type="line"/>
      <point x="446" y="-227" type="line"/>
      <point x="516" y="-227" type="line"/>
      <point x="516" y="572" type="line" name="hr01"/>
      <point x="469" y="572" type="line"/>
    </contour>
    <contour>
      <point x="576" y="-177" type="line"/>
      <point x="366" y="-177" type="line"/>
      <point x="366" y="-227" type="line"/>
      <point x="576" y="-227" type="line"/>
    </contour>
    <contour>
      <point x="576" y="572" type="line"/>
      <point x="516" y="572" type="line"/>
      <point x="516" y="522" type="line"/>
      <point x="576" y="522" type="line"/>
    </contour>
  </outline>
</glyph>
<glyph name="w" format="1">
  <advance width="786"/>
  <unicode hex="0077"/>
  <outline>
    <contour>
      <point x="272" y="0" type="line" name="hr00"/>
      <point x="393" y="418" type="line"/>
      <point x="514" y="0" type="line"/>
      <point x="591" y="0" type="line"/>
      <point x="756" y="572" type="line"/>
      <point x="685" y="572" type="line"/>
      <point x="548" y="87" type="line"/>
      <point x="422" y="522" type="line"/>
      <point x="363" y="522" type="line"/>
      <point x="238" y="87" type="line"/>
      <point x="101" y="572" type="line"/>
      <point x="30" y="572" type="line"/>
      <point x="195" y="0" type="line"/>
    </contour>
    <contour>
      <point x="176" y="572" type="line"/>
      <point x="10" y="572" type="line"/>
      <point x="10" y="522" type="line"/>
      <point x="176" y="522" type="line"/>
    </contour>
    <contour>
      <point x="776" y="572" type="line"/>
      <point x="610" y="572" type="line"/>
      <point x="610" y="522" type="line"/>
      <point x="776" y="522" type="line"/>
    </contour>
  </outline>
</glyph>
<glyph name="y" format="1">
  <advance width="572"/>
  <unicode hex="0079"/>
  <outline>
    <contour>
      <point x="307" y="20" type="line" name="hr00"/>
      <point x="101" y="572" type="line"/>
      <point x="30" y="572" type="line"/>
      <point x="259" y="-29" type="line"/>
    </contour>
    <contour>
      <point x="176" y="572" type="line"/>
      <point x="10" y="572" type="line"/>
      <point x="10" y="522" type="line"/>
      <point x="176" y="522" type="line"/>
    </contour>
    <contour>
      <point x="562" y="572" type="line"/>
      <point x="396" y="572" type="line"/>
      <point x="396" y="522" type="line"/>
      <point x="562" y="522" type="line"/>
    </contour>
    <contour>
      <point x="99" y="-227" type="line"/>
      <point x="189" y="-227" type="line" smooth="yes"/>
      <point x="234" y="-227" smooth="yes"/>
      <point x="248" y="-202" smooth="yes"/>
      <point x="263" y="-162" type="curve" smooth="yes"/>
      <point x="542" y="572" type="line"/>
      <point x="471" y="572" type="line"/>
      <point x="207" y="-136" type="line" smooth="yes"/>
      <point x="198" y="-160" smooth="yes"/>
      <point x="194" y="-169" smooth="yes"/>
      <point x="158" y="-172" type="curve" smooth="yes"/>
      <point x="99" y="-177" type="line"/>
    </contour>
  </outline>
</glyph>
<glyph name="braceleft" format="1">
  <advance width="294"/>
  <unicode hex="007B"/>
  <outline>
    <contour>
      <point x="121" y="332" type="line" name="hr00"/>
      <point x="146" y="332" smooth="yes"/>
      <point x="170" y="308" smooth="yes"/>
      <point x="170" y="266" type="curve" smooth="yes"/>
      <point x="170" y="224" smooth="yes"/>
      <point x="162" y="194" smooth="yes"/>
      <point x="162" y="144" type="curve" smooth="yes"/>
      <point x="162" y="58"/>
      <point x="190" y="-4"/>
      <point x="289" y="-4" type="curve"/>
      <point x="289" y="-66" type="line"/>
      <point x="136" y="-66" smooth="yes"/>
      <point x="88" y="24" smooth="yes"/>
      <point x="88" y="137" type="curve" smooth="yes"/>
      <point x="88" y="183" smooth="yes"/>
      <point x="96" y="221" smooth="yes"/>
      <point x="96" y="261" type="curve" smooth="yes"/>
      <point x="96" y="301"/>
      <point x="49" y="310"/>
      <point x="21" y="310" type="curve"/>
      <point x="21" y="360" type="line"/>
      <point x="49" y="360" smooth="yes"/>
      <point x="96" y="369" smooth="yes"/>
      <point x="96" y="409" type="curve" smooth="yes"/>
      <point x="96" y="449" smooth="yes"/>
      <point x="88" y="487" smooth="yes"/>
      <point x="88" y="533" type="curve" smooth="yes"/>
      <point x="88" y="646"/>
      <point x="136" y="736"/>
      <point x="289" y="736" type="curve"/>
      <point x="289" y="674" type="line"/>
      <point x="190" y="674" smooth="yes"/>
      <point x="162" y="612" smooth="yes"/>
      <point x="162" y="526" type="curve" smooth="yes"/>
      <point x="162" y="476" smooth="yes"/>
      <point x="170" y="446" smooth="yes"/>
      <point x="170" y="404" type="curve" smooth="yes"/>
      <point x="170" y="362"/>
      <point x="146" y="338"/>
      <point x="121" y="338" type="curve"/>
    </contour>
  </outline>
</glyph>
<glyph name="bar" format="1">
  <advance width="321"/>
  <unicode hex="007C"/>
  <outline>
    <contour>
      <point x="120" y="-106" type="line" name="hr00"/>
      <point x="201" y="-106" type="line"/>
      <point x="201" y="775" type="line"/>
      <point x="120" y="775" type="line"/>
    </contour>
  </outline>
</glyph>
<glyph name="cent" format="1">
  <advance width="580"/>
  <unicode hex="00A2"/>
  <outline>
    <contour>
      <point x="313" y="35" type="curve" name="hr00"/>
      <point x="477" y="35"/>
      <point x="518" y="107"/>
      <point x="526" y="211" type="curve"/>
      <point x="469" y="214" type="line"/>
      <point x="466" y="141" smooth="yes"/>
      <point x="436" y="94" smooth="yes"/>
      <point x="314" y="94" type="curve" smooth="yes"/>
      <point x="168" y="94" smooth="yes"/>
      <point x="154" y="208" smooth="yes"/>
      <point x="154" y="335" type="curve" smooth="yes"/>
      <point x="154" y="462" smooth="yes"/>
      <point x="163" y="576" smooth="yes"/>
      <point x="328" y="576" type="curve" smooth="yes"/>
      <point x="430" y="576"/>
      <point x="458" y="516"/>
      <point x="462" y="443" type="curve"/>
      <point x="519" y="446" type="line"/>
      <point x="511" y="550" smooth="yes"/>
      <point x="473" y="635" smooth="yes"/>
      <point x="328" y="635" type="curve" smooth="yes"/>
      <point x="108" y="635" smooth="yes"/>
      <point x="84" y="490" smooth="yes"/>
      <point x="84" y="335" type="curve" smooth="yes"/>
      <point x="84" y="180" smooth="yes"/>
      <point x="111" y="35" smooth="yes"/>
    </contour>
    <contour>
      <point x="293" y="-74" type="line"/>
      <point x="343" y="-74" type="line"/>
      <point x="343" y="744" type="line"/>
      <point x="293" y="744" type="line"/>
    </contour>
  </outline>
</glyph>
<glyph name="brokenbar" format="1">
  <advance width="321"/>
  <unicode hex="00A6"/>
  <outline>
    <contour>
      <point x="120" y="424" type="line" name="hr00"/>
      <point x="201" y="424" type="line"/>
      <point x="201" y="775" type="line"/>
      <point x="120" y="775" type="line"/>
    </contour>
    <contour>
      <point x="120" y="-106" type="line"/>
      <point x="201" y="-106" type="line"/>
      <point x="201" y="245" type="line"/>
      <point x="120" y="245" type="line"/>
    </contour>
  </outline>
</glyph>
<glyph name="guillemotleft" format="1">
  <advance width="520"/>
  <unicode hex="00AB"/>
  <outline>
    <contour>
      <point x="121" y="315" type="line" name="hr00"/>
      <point x="245" y="158" type="line"/>
      <point x="198" y="112" type="line"/>
      <point x="30" y="299" type="line"/>
      <point x="30" y="331" type="line"/>
      <point x="198" y="518" type="line"/>
      <point x="245" y="472" type="line"/>
    </contour>
    <contour>
      <point x="336" y="315" type="line"/>
      <point x="460" y="158" type="line"/>
      <point x="413" y="112" type="line"/>
      <point x="245" y="299" type="line"/>
      <point x="245" y="331" type="line"/>
      <point x="413" y="518" type="line"/>
      <point x="460" y="472" type="line"/>
    </contour>
  </outline>
</glyph>
<glyph name="registered" format="1">
  <advance width="727"/>
  <unicode hex="00AE"/>
  <outline>
    <contour>
      <point x="70" y="560" type="curve" smooth="yes" name="hr00"/>
      <point x="70" y="349" smooth="yes"/>
      <point x="152" y="267" smooth="yes"/>
      <point x="363" y="267" type="curve" smooth="yes"/>
      <point x="574" y="267" smooth="yes"/>
      <point x="657" y="349" smooth="yes"/>
      <point x="657" y="560" type="curve" smooth="yes"/>
      <point x="657" y="771" smooth="yes"/>
      <point x="574" y="854" smooth="yes"/>
      <point x="363" y="854" type="curve" smooth="yes"/>
      <point x="152" y="854" smooth="yes"/>
      <point x="70" y="771" smooth="yes"/>
    </contour>
    <contour>
      <point x="118" y="560" type="curve" smooth="yes"/>
      <point x="118" y="740" smooth="yes"/>
      <point x="179" y="811" smooth="yes"/>
      <point x="363" y="811" type="curve" smooth="yes"/>
      <point x="547" y="811" smooth="yes"/>
      <point x="609" y="740" smooth="yes"/>
      <point x="609" y="560" type="curve" smooth="yes"/>
      <point x="609" y="380" smooth="yes"/>
      <point x="547" y="310" smooth="yes"/>
      <point x="363" y="310" type="curve" smooth="yes"/>
      <point x="179" y="310" smooth="yes"/>
      <point x="118" y="380" smooth="yes"/>
    </contour>
    <contour>
      <point x="246" y="762" type="line"/>
      <point x="246" y="360" type="line"/>
      <point x="298" y="360" type="line"/>
      <point x="298" y="525" type="line"/>
      <point x="344" y="525" type="line" smooth="yes"/>
      <point x="371" y="525" smooth="yes"/>
      <point x="387" y="516" smooth="yes"/>
      <point x="398" y="490" type="curve" smooth="yes"/>
      <point x="454" y="360" type="line"/>
      <point x="510" y="360" type="line"/>
      <point x="450" y="497" type="line" smooth="yes"/>
      <point x="443" y="513"/>
      <point x="435" y="524"/>
      <point x="426" y="532" type="curve"/>
      <point x="485" y="549" smooth="yes"/>
      <point x="493" y="594" smooth="yes"/>
      <point x="493" y="643" type="curve" smooth="yes"/>
      <point x="493" y="704" smooth="yes"/>
      <point x="481" y="762" smooth="yes"/>
      <point x="369" y="762" type="curve" smooth="yes"/>
    </contour>
    <contour>
      <point x="298" y="566" type="line"/>
      <point x="298" y="720" type="line"/>
      <point x="368" y="720" type="line" smooth="yes"/>
      <point x="433" y="720" smooth="yes"/>
      <point x="441" y="686" smooth="yes"/>
      <point x="441" y="643" type="curve" smooth="yes"/>
      <point x="441" y="600" smooth="yes"/>
      <point x="433" y="566" smooth="yes"/>
      <point x="368" y="566" type="curve" smooth="yes"/>
    </contour>
  </outline>
</glyph>
<glyph name="mu" format="1">
  <advance width="641"/>
  <unicode hex="00B5"/>
  <outline>
    <contour>
      <point x="158" y="164" type="line" name="hr00"/>
      <point x="203" y="116" smooth="yes"/>
      <point x="283" y="45" smooth="yes"/>
      <point x="392" y="45" type="curve" smooth="yes"/>
      <point x="477" y="45" smooth="yes"/>
      <point x="506" y="79" smooth="yes"/>
      <point x="506" y="164" type="curve" smooth="yes"/>
      <point x="506" y="572" type="line"/>
      <point x="576" y="572" type="line"/>
      <point x="576" y="163" type="line" smooth="yes"/>
      <point x="576" y="44" smooth="yes"/>
      <point x="536" y="-14" smooth="yes"/>
      <point x="407" y="-14" type="curve" smooth="yes"/>
      <point x="293" y="-14"/>
      <point x="190" y="62"/>
      <point x="148" y="110" type="curve"/>
    </contour>
    <contour>
      <point x="120" y="-227" type="line"/>
      <point x="120" y="572" type="line"/>
      <point x="190" y="572" type="line"/>
      <point x="190" y="-227" type="line"/>
    </contour>
  </outline>
</glyph>
<glyph name="germandbls" format="1">
  <advance width="636"/>
  <unicode hex="00DF"/>
  <outline>
    <contour>
      <point x="60" y="0" type="line"/>
      <point x="120" y="0" type="line"/>
      <point x="120" y="50" type="line"/>
      <point x="60" y="50" type="line"/>
    </contour>
    <contour>
      <point x="190" y="561" type="line"/>
      <point x="190" y="642" smooth="yes"/>
      <point x="228" y="696" smooth="yes"/>
      <point x="332" y="696" type="curve" smooth="yes"/>
      <point x="447" y="696" smooth="yes"/>
      <point x="479" y="643" smooth="yes"/>
      <point x="479" y="562" type="curve" smooth="yes"/>
      <point x="479" y="488" smooth="yes"/>
      <point x="443" y="410" smooth="yes"/>
      <point x="361" y="410" type="curve" smooth="yes"/>
      <point x="293" y="410" type="line"/>
      <point x="293" y="366" type="line"/>
      <point x="361" y="366" type="line" smooth="yes"/>
      <point x="466" y="366" smooth="yes"/>
      <point x="549" y="454" smooth="yes"/>
      <point x="549" y="561" type="curve" smooth="yes"/>
      <point x="549" y="679" smooth="yes"/>
      <point x="494" y="755" smooth="yes"/>
      <point x="332" y="755" type="curve" smooth="yes"/>
      <point x="185" y="755" smooth="yes"/>
      <point x="120" y="679" smooth="yes"/>
      <point x="120" y="561" type="curve" smooth="yes"/>
      <point x="120" y="0" type="line"/>
      <point x="190" y="0" type="line"/>
    </contour>
    <contour>
      <point x="606" y="197" type="curve" smooth="yes" name="hr01"/>
      <point x="606" y="331" smooth="yes"/>
      <point x="525" y="400" smooth="yes"/>
      <point x="420" y="400" type="curve" smooth="yes"/>
      <point x="293" y="400" type="line"/>
      <point x="293" y="356" type="line"/>
      <point x="408" y="356" type="line" smooth="yes"/>
      <point x="510" y="356" smooth="yes"/>
      <point x="536" y="284" smooth="yes"/>
      <point x="536" y="196" type="curve" smooth="yes"/>
      <point x="536" y="120" smooth="yes"/>
      <point x="517" y="45" smooth="yes"/>
      <point x="420" y="45" type="curve" smooth="yes"/>
      <point x="322" y="45"/>
      <point x="307" y="98"/>
      <point x="307" y="179" type="curve"/>
      <point x="248" y="179" type="line"/>
      <point x="248" y="61" smooth="yes"/>
      <point x="278" y="-14" smooth="yes"/>
      <point x="421" y="-14" type="curve" smooth="yes"/>
      <point x="567" y="-14" smooth="yes"/>
      <point x="606" y="81" smooth="yes"/>
    </contour>
  </outline>
</glyph>
<glyph name="dotlessi" format="1">
  <advance width="320"/>
  <unicode hex="0131"/>
  <outline>
    <contour>
      <point x="130" y="572" type="line" name="hr00"/>
      <point x="130" y="0" type="line"/>
      <point x="200" y="0" type="line"/>
      <point x="200" y="572" type="line"/>
    </contour>
    <contour>
      <point x="70" y="0" type="line"/>
      <point x="260" y="0" type="line"/>
      <point x="260" y="50" type="line"/>
      <point x="70" y="50" type="line"/>
    </contour>
    <contour>
      <point x="70" y="522" type="line"/>
      <point x="162" y="522" type="line"/>
      <point x="162" y="572" type="line"/>
      <point x="70" y="572" type="line"/>
    </contour>
  </outline>
</glyph>
<glyph name="Eng" format="1">
  <advance width="770"/>
  <unicode hex="014A"/>
  <outline>
    <contour>
      <point x="450" y="-172" type="line" name="hr00"/>
      <point x="450" y="-227" type="line"/>
      <point x="511" y="-227" type="line" smooth="yes"/>
      <point x="633" y="-227" smooth="yes"/>
      <point x="650" y="-171" smooth="yes"/>
      <point x="650" y="-78" type="curve" smooth="yes"/>
      <point x="650" y="0" type="line"/>
      <point x="580" y="0" type="line"/>
      <point x="580" y="-78" type="line" smooth="yes"/>
      <point x="580" y="-138" smooth="yes"/>
      <point x="570" y="-162" smooth="yes"/>
      <point x="511" y="-167" type="curve" smooth="yes"/>
    </contour>
    <contour>
      <point x="130" y="730" type="line"/>
      <point x="130" y="0" type="line"/>
      <point x="202" y="0" type="line"/>
      <point x="202" y="730" type="line"/>
    </contour>
    <contour>
      <point x="578" y="730" type="line"/>
      <point x="578" y="0" type="line"/>
      <point x="650" y="0" type="line"/>
      <point x="650" y="730" type="line"/>
    </contour>
    <contour>
      <point x="130" y="730" type="line"/>
      <point x="596" y="-44" type="line"/>
      <point x="650" y="0" type="line"/>
      <point x="210" y="730" type="line"/>
    </contour>
    <contour>
      <point x="70" y="0" type="line"/>
      <point x="262" y="0" type="line"/>
      <point x="262" y="50" type="line"/>
      <point x="70" y="50" type="line"/>
    </contour>
    <contour>
      <point x="70" y="680" type="line"/>
      <point x="170" y="680" type="line"/>
      <point x="170" y="730" type="line"/>
      <point x="70" y="730" type="line"/>
    </contour>
    <contour>
      <point x="518" y="680" type="line"/>
      <point x="710" y="680" type="line"/>
      <point x="710" y="730" type="line"/>
      <point x="518" y="730" type="line"/>
    </contour>
  </outline>
</glyph>
<glyph name="OE" format="1">
  <advance width="1013"/>
  <unicode hex="0152"/>
  <outline>
    <contour>
      <point x="337" y="0" type="curve" smooth="yes"/>
      <point x="587" y="0" smooth="yes"/>
      <point x="615" y="137" smooth="yes"/>
      <point x="615" y="365" type="curve" smooth="yes"/>
      <point x="615" y="591" smooth="yes"/>
      <point x="587" y="730" smooth="yes"/>
      <point x="337" y="730" type="curve" smooth="yes"/>
      <point x="87" y="730" smooth="yes"/>
      <point x="60" y="591" smooth="yes"/>
      <point x="60" y="365" type="curve" smooth="yes"/>
      <point x="60" y="137" smooth="yes"/>
      <point x="87" y="0" smooth="yes"/>
    </contour>
    <contour>
      <point x="337" y="59" type="curve" smooth="yes"/>
      <point x="152" y="59" smooth="yes"/>
      <point x="132" y="176" smooth="yes"/>
      <point x="132" y="365" type="curve" smooth="yes"/>
      <point x="132" y="554" smooth="yes"/>
      <point x="152" y="671" smooth="yes"/>
      <point x="337" y="671" type="curve" smooth="yes"/>
      <point x="522" y="671" smooth="yes"/>
      <point x="543" y="554" smooth="yes"/>
      <point x="543" y="365" type="curve" smooth="yes"/>
      <point x="543" y="176" smooth="yes"/>
      <point x="522" y="59" smooth="yes"/>
    </contour>
    <contour>
      <point x="337" y="671" type="line"/>
      <point x="903" y="671" type="line"/>
      <point x="903" y="730" type="line"/>
      <point x="337" y="730" type="line"/>
    </contour>
    <contour>
      <point x="337" y="0" type="line"/>
      <point x="923" y="0" type="line"/>
      <point x="923" y="59" type="line"/>
      <point x="337" y="59" type="line"/>
    </contour>
    <contour>
      <point x="605" y="341" type="line"/>
      <point x="883" y="341" type="line"/>
      <point x="883" y="401" type="line"/>
      <point x="605" y="401" type="line"/>
    </contour>
    <contour>
      <point x="933" y="572" type="line"/>
      <point x="933" y="730" type="line"/>
      <point x="877" y="730" type="line"/>
      <point x="877" y="572" type="line"/>
    </contour>
    <contour>
      <point x="953" y="0" type="line" name="hr01"/>
      <point x="953" y="158" type="line"/>
      <point x="897" y="158" type="line"/>
      <point x="897" y="0" type="line"/>
    </contour>
  </outline>
</glyph>
<glyph name="dotaccent" format="1">
  <advance width="274"/>
  <unicode hex="02D9"/>
  <outline>
    <contour>
      <point x="144" y="660" type="curve" name="hr00"/>
      <point x="194" y="660" smooth="yes"/>
      <point x="197" y="695" smooth="yes"/>
      <point x="197" y="725" type="curve" smooth="yes"/>
      <point x="197" y="756" smooth="yes"/>
      <point x="194" y="791" smooth="yes"/>
      <point x="144" y="791" type="curve" smooth="yes"/>
      <point x="96" y="791" smooth="yes"/>
      <point x="93" y="756" smooth="yes"/>
      <point x="93" y="725" type="curve" smooth="yes"/>
      <point x="93" y="695" smooth="yes"/>
      <point x="96" y="660" smooth="yes"/>
    </contour>
  </outline>
</glyph>
<glyph name="ring" format="1">
  <advance width="274"/>
  <unicode hex="02DA"/>
  <outline>
    <contour>
      <point x="144" y="671" type="curve" smooth="yes" name="hr00"/>
      <point x="104" y="671" smooth="yes"/>
      <point x="102" y="700" smooth="yes"/>
      <point x="102" y="725" type="curve" smooth="yes"/>
      <point x="102" y="751" smooth="yes"/>
      <point x="104" y="780" smooth="yes"/>
      <point x="144" y="780" type="curve" smooth="yes"/>
      <point x="186" y="780" smooth="yes"/>
      <point x="188" y="751" smooth="yes"/>
      <point x="188" y="725" type="curve" smooth="yes"/>
      <point x="188" y="700" smooth="yes"/>
      <point x="186" y="671" smooth="yes"/>
    </contour>
    <contour>
      <point x="144" y="628" type="curve" smooth="yes"/>
      <point x="235" y="628" smooth="yes"/>
      <point x="240" y="679" smooth="yes"/>
      <point x="240" y="725" type="curve" smooth="yes"/>
      <point x="240" y="771" smooth="yes"/>
      <point x="235" y="823" smooth="yes"/>
      <point x="144" y="823" type="curve" smooth="yes"/>
      <point x="55" y="823" smooth="yes"/>
      <point x="50" y="771" smooth="yes"/>
      <point x="50" y="725" type="curve" smooth="yes"/>
      <point x="50" y="679" smooth="yes"/>
      <point x="55" y="628" smooth="yes"/>
    </contour>
  </outline>
</glyph>
<glyph name="candrabinduinverteddeva" format="1">
  <advance width="0"/>
  <unicode hex="0900"/>
  <outline>
    <contour>
      <point x="-150" y="935" type="curve" smooth="yes"/>
      <point x="-187" y="935" smooth="yes"/>
      <point x="-203" y="920" smooth="yes"/>
      <point x="-203" y="884" type="curve" smooth="yes"/>
      <point x="-203" y="847" smooth="yes"/>
      <point x="-188" y="832" smooth="yes"/>
      <point x="-150" y="832" type="curve" smooth="yes"/>
      <point x="-114" y="832" smooth="yes"/>
      <point x="-99" y="847" smooth="yes"/>
      <point x="-99" y="884" type="curve" smooth="yes"/>
      <point x="-99" y="920" smooth="yes"/>
      <point x="-114" y="935" smooth="yes"/>
    </contour>
    <contour>
      <point x="-320" y="925" type="line"/>
      <point x="-320" y="1006" smooth="yes"/>
      <point x="-292" y="1084" smooth="yes"/>
      <point x="-149" y="1084" type="curve" smooth="yes"/>
      <point x="-6" y="1084"/>
      <point x="21" y="1006"/>
      <point x="21" y="925" type="curve"/>
      <point x="-38" y="925" type="line"/>
      <point x="-38" y="977" smooth="yes"/>
      <point x="-53" y="1024" smooth="yes"/>
      <point x="-149" y="1024" type="curve" smooth="yes"/>
      <point x="-244" y="1024"/>
      <point x="-259" y="977"/>
      <point x="-259" y="925" type="curve"/>
    </contour>
  </outline>
</glyph>
<glyph name="edeva" format="1">
  <advance width="595"/>
  <unicode hex="090F"/>
  <outline>
    <contour>
      <point x="165" y="680" type="line"/>
      <point x="95" y="680" type="line"/>
      <point x="95" y="357" type="line" smooth="yes"/>
      <point x="95" y="197"/>
      <point x="211" y="90"/>
      <point x="431" y="2" type="curve"/>
      <point x="453" y="61" type="line"/>
      <point x="261" y="136" smooth="yes"/>
      <point x="165" y="224" smooth="yes"/>
      <point x="165" y="357" type="curve" smooth="yes"/>
    </contour>
    <contour>
      <point x="418" y="294" type="line"/>
      <point x="489" y="328" smooth="yes"/>
      <point x="500" y="398" smooth="yes"/>
      <point x="500" y="470" type="curve" smooth="yes"/>
      <point x="500" y="680" type="line"/>
      <point x="430" y="680" type="line"/>
      <point x="430" y="470" type="line" smooth="yes"/>
      <point x="430" y="420"/>
      <point x="425" y="368"/>
      <point x="379" y="343" type="curve"/>
    </contour>
    <contour>
      <point x="-10" y="680" type="line"/>
      <point x="605" y="680" type="line"/>
      <point x="605" y="730" type="line"/>
      <point x="-10" y="730" type="line"/>
    </contour>
  </outline>
</glyph>
<glyph name="gadeva" format="1">
  <advance width="635"/>
  <unicode hex="0917"/>
  <outline>
    <contour>
      <point x="-10" y="680" type="line"/>
      <point x="645" y="680" type="line"/>
      <point x="645" y="730" type="line"/>
      <point x="-10" y="730" type="line"/>
    </contour>
    <contour>
      <point x="450" y="0" type="line"/>
      <point x="520" y="0" type="line"/>
      <point x="520" y="680" type="line"/>
      <point x="450" y="680" type="line"/>
    </contour>
    <contour>
      <point x="130" y="395" type="line"/>
      <point x="92" y="395" type="line" smooth="yes"/>
      <point x="70" y="395" smooth="yes"/>
      <point x="59" y="386" smooth="yes"/>
      <point x="59" y="357" type="curve" smooth="yes"/>
      <point x="59" y="292" smooth="yes"/>
      <point x="147" y="251" smooth="yes"/>
      <point x="177" y="251" type="curve" smooth="yes"/>
      <point x="189" y="251" smooth="yes"/>
      <point x="200" y="254" smooth="yes"/>
      <point x="200" y="272" type="curve" smooth="yes"/>
      <point x="200" y="680" type="line"/>
      <point x="130" y="680" type="line"/>
    </contour>
  </outline>
</glyph>
<glyph name="cadeva" format="1">
  <advance width="681"/>
  <unicode hex="091A"/>
  <outline>
    <contour>
      <point x="496" y="680" type="line"/>
      <point x="496" y="0" type="line"/>
      <point x="566" y="0" type="line"/>
      <point x="566" y="680" type="line"/>
      <point x="691" y="680" type="line"/>
      <point x="691" y="730" type="line"/>
      <point x="-10" y="730" type="line"/>
      <point x="-10" y="680" type="line"/>
    </contour>
    <contour>
      <point x="531" y="290" type="line"/>
      <point x="488" y="237" smooth="yes"/>
      <point x="403" y="198" smooth="yes"/>
      <point x="308" y="198" type="curve" smooth="yes"/>
      <point x="211" y="198" smooth="yes"/>
      <point x="177" y="247" smooth="yes"/>
      <point x="177" y="314" type="curve" smooth="yes"/>
      <point x="177" y="381"/>
      <point x="220" y="454"/>
      <point x="344" y="454" type="curve"/>
      <point x="339" y="485" type="line"/>
      <point x="171" y="485" smooth="yes"/>
      <point x="109" y="393" smooth="yes"/>
      <point x="109" y="304" type="curve" smooth="yes"/>
      <point x="109" y="209" smooth="yes"/>
      <point x="165" y="140" smooth="yes"/>
      <point x="300" y="140" type="curve" smooth="yes"/>
      <point x="417" y="140"/>
      <point x="494" y="182"/>
      <point x="531" y="223" type="curve"/>
    </contour>
    <contour>
      <point x="375" y="504" type="line"/>
      <point x="13" y="504" type="line"/>
      <point x="13" y="454" type="line"/>
      <point x="375" y="454" type="line"/>
    </contour>
  </outline>
</glyph>
<glyph name="ddadeva" format="1">
  <advance width="700"/>
  <unicode hex="0921"/>
  <outline>
    <contour>
      <point x="72" y="136" type="line"/>
      <point x="111" y="40" smooth="yes"/>
      <point x="202" y="-15" smooth="yes"/>
      <point x="368" y="-15" type="curve" smooth="yes"/>
      <point x="564" y="-15" smooth="yes"/>
      <point x="643" y="67" smooth="yes"/>
      <point x="643" y="183" type="curve" smooth="yes"/>
      <point x="643" y="294" smooth="yes"/>
      <point x="564" y="372" smooth="yes"/>
      <point x="371" y="372" type="curve" smooth="yes"/>
      <point x="319" y="372"/>
      <point x="270" y="361"/>
      <point x="227" y="346" type="curve"/>
      <point x="177" y="364" smooth="yes"/>
      <point x="157" y="396" smooth="yes"/>
      <point x="157" y="434" type="curve" smooth="yes"/>
      <point x="157" y="486"/>
      <point x="195" y="526"/>
      <point x="300" y="526" type="curve"/>
      <point x="300" y="586" type="line"/>
      <point x="155" y="586" smooth="yes"/>
      <point x="87" y="520" smooth="yes"/>
      <point x="87" y="433" type="curve" smooth="yes"/>
      <point x="87" y="344"/>
      <point x="137" y="315"/>
      <point x="215" y="288" type="curve"/>
      <point x="259" y="306" smooth="yes"/>
      <point x="312" y="317" smooth="yes"/>
      <point x="361" y="317" type="curve" smooth="yes"/>
      <point x="497" y="317" smooth="yes"/>
      <point x="574" y="270" smooth="yes"/>
      <point x="574" y="183" type="curve" smooth="yes"/>
      <point x="574" y="90" smooth="yes"/>
      <point x="498" y="43" smooth="yes"/>
      <point x="368" y="43" type="curve" smooth="yes"/>
      <point x="244" y="43"/>
      <point x="166" y="79"/>
      <point x="133" y="156" type="curve"/>
    </contour>
    <contour>
      <point x="566" y="586" type="line"/>
      <point x="566" y="680" type="line"/>
      <point x="712" y="680" type="line"/>
      <point x="712" y="730" type="line"/>
      <point x="-11" y="730" type="line"/>
      <point x="-11" y="680" type="line"/>
      <point x="496" y="680" type="line"/>
      <point x="496" y="586" type="line"/>
    </contour>
    <contour>
      <point x="300" y="526" type="line"/>
      <point x="566" y="526" type="line"/>
      <point x="566" y="586" type="line"/>
      <point x="300" y="586" type="line"/>
    </contour>
  </outline>
</glyph>
<glyph name="dhadeva" format="1">
  <advance width="678"/>
  <unicode hex="0927"/>
  <outline>
    <contour>
      <point x="493" y="680" type="line"/>
      <point x="493" y="0" type="line"/>
      <point x="563" y="0" type="line"/>
      <point x="563" y="680" type="line"/>
      <point x="688" y="680" type="line"/>
      <point x="688" y="730" type="line"/>
      <point x="420" y="730" type="line"/>
      <point x="420" y="680" type="line"/>
    </contour>
    <contour>
      <point x="289" y="71" type="curve" smooth="yes"/>
      <point x="395" y="71"/>
      <point x="473" y="126"/>
      <point x="528" y="212" type="curve"/>
      <point x="528" y="277" type="line"/>
      <point x="484" y="201" smooth="yes"/>
      <point x="407" y="129" smooth="yes"/>
      <point x="289" y="129" type="curve" smooth="yes"/>
      <point x="188" y="129" smooth="yes"/>
      <point x="143" y="177" smooth="yes"/>
      <point x="143" y="256" type="curve" smooth="yes"/>
      <point x="143" y="324" smooth="yes"/>
      <point x="188" y="376" smooth="yes"/>
      <point x="308" y="376" type="curve" smooth="yes"/>
      <point x="362" y="376" type="line"/>
      <point x="362" y="426" type="line"/>
      <point x="302" y="426" type="line" smooth="yes"/>
      <point x="153" y="426" smooth="yes"/>
      <point x="73" y="372" smooth="yes"/>
      <point x="73" y="257" type="curve" smooth="yes"/>
      <point x="73" y="138" smooth="yes"/>
      <point x="147" y="71" smooth="yes"/>
    </contour>
    <contour>
      <point x="96" y="587" type="curve" smooth="yes"/>
      <point x="96" y="655" smooth="yes"/>
      <point x="131" y="694" smooth="yes"/>
      <point x="194" y="694" type="curve" smooth="yes"/>
      <point x="251" y="694" smooth="yes"/>
      <point x="285" y="666" smooth="yes"/>
      <point x="285" y="618" type="curve" smooth="yes"/>
      <point x="285" y="576"/>
      <point x="272" y="547"/>
      <point x="227" y="524" type="curve"/>
      <point x="261" y="480" type="line"/>
      <point x="321" y="507" smooth="yes"/>
      <point x="351" y="556" smooth="yes"/>
      <point x="351" y="619" type="curve" smooth="yes"/>
      <point x="351" y="697" smooth="yes"/>
      <point x="292" y="744" smooth="yes"/>
      <point x="194" y="744" type="curve" smooth="yes"/>
      <point x="92" y="744" smooth="yes"/>
      <point x="32" y="686" smooth="yes"/>
      <point x="32" y="587" type="curve" smooth="yes"/>
      <point x="32" y="473"/>
      <point x="94" y="394"/>
      <point x="178" y="360" type="curve"/>
      <point x="212" y="401" type="line"/>
      <point x="136" y="426" smooth="yes"/>
      <point x="96" y="511" smooth="yes"/>
    </contour>
  </outline>
</glyph>
<glyph name="padeva" format="1">
  <advance width="615"/>
  <unicode hex="092A"/>
  <outline>
    <contour>
      <point x="430" y="680" type="line"/>
      <point x="430" y="430" type="line" smooth="yes"/>
      <point x="430" y="361" smooth="yes"/>
      <point x="420" y="291" smooth="yes"/>
      <point x="297" y="291" type="curve" smooth="yes"/>
      <point x="174" y="291" smooth="yes"/>
      <point x="165" y="361" smooth="yes"/>
      <point x="165" y="430" type="curve" smooth="yes"/>
      <point x="165" y="680" type="line"/>
      <point x="95" y="680" type="line"/>
      <point x="95" y="430" type="line" smooth="yes"/>
      <point x="95" y="328" smooth="yes"/>
      <point x="114" y="232" smooth="yes"/>
      <point x="283" y="232" type="curve" smooth="yes"/>
      <point x="453" y="232" smooth="yes"/>
      <point x="465" y="328" smooth="yes"/>
      <point x="465" y="430" type="curve" smooth="yes"/>
      <point x="465" y="680" type="line"/>
    </contour>
    <contour>
      <point x="-10" y="680" type="line"/>
      <point x="625" y="680" type="line"/>
      <point x="625" y="730" type="line"/>
      <point x="-10" y="730" type="line"/>
    </contour>
    <contour>
      <point x="430" y="0" type="line"/>
      <point x="500" y="0" type="line"/>
      <point x="500" y="680" type="line"/>
      <point x="430" y="680" type="line"/>
    </contour>
  </outline>
</glyph>
<glyph name="madeva" format="1">
  <advance width="649"/>
  <unicode hex="092E"/>
  <outline>
    <contour>
      <point x="195" y="680" type="line"/>
      <point x="464" y="680" type="line"/>
      <point x="464" y="395" type="line"/>
      <point x="195" y="395" type="line"/>
    </contour>
    <contour>
      <point x="125" y="680" type="line"/>
      <point x="125" y="395" type="line"/>
      <point x="82" y="395" type="line" smooth="yes"/>
      <point x="60" y="395" smooth="yes"/>
      <point x="54" y="386" smooth="yes"/>
      <point x="54" y="357" type="curve" smooth="yes"/>
      <point x="54" y="302" smooth="yes"/>
      <point x="142" y="251" smooth="yes"/>
      <point x="172" y="251" type="curve" smooth="yes"/>
      <point x="184" y="251" smooth="yes"/>
      <point x="195" y="254" smooth="yes"/>
      <point x="195" y="272" type="curve" smooth="yes"/>
      <point x="195" y="345" type="line"/>
      <point x="464" y="345" type="line"/>
      <point x="464" y="0" type="line"/>
      <point x="534" y="0" type="line"/>
      <point x="534" y="680" type="line"/>
      <point x="659" y="680" type="line"/>
      <point x="659" y="730" type="line"/>
      <point x="-10" y="730" type="line"/>
      <point x="-10" y="680" type="line"/>
    </contour>
  </outline>
</glyph>
<glyph name="ssadeva" format="1">
  <advance width="615"/>
  <unicode hex="0937"/>
  <outline>
    <contour>
      <point x="396" y="299" type="line"/>
      <point x="439" y="324" type="line"/>
      <point x="188" y="694" type="line"/>
      <point x="145" y="669" type="line"/>
    </contour>
    <component  base="padeva"/>
  </outline>
</glyph>
<glyph name="avagrahadeva" format="1">
  <advance width="485"/>
  <unicode hex="093D"/>
  <outline>
    <contour>
      <point x="455" y="220" type="curve" smooth="yes"/>
      <point x="455" y="436" smooth="yes"/>
      <point x="163" y="448" smooth="yes"/>
      <point x="163" y="586" type="curve" smooth="yes"/>
      <point x="163" y="643" smooth="yes"/>
      <point x="195" y="680" smooth="yes"/>
      <point x="265" y="680" type="curve" smooth="yes"/>
      <point x="405" y="680" type="line"/>
      <point x="405" y="730" type="line"/>
      <point x="254" y="730" type="line" smooth="yes"/>
      <point x="157" y="730" smooth="yes"/>
      <point x="93" y="678" smooth="yes"/>
      <point x="93" y="586" type="curve" smooth="yes"/>
      <point x="93" y="404" smooth="yes"/>
      <point x="385" y="391" smooth="yes"/>
      <point x="385" y="213" type="curve" smooth="yes"/>
      <point x="385" y="112" smooth="yes"/>
      <point x="329" y="64" smooth="yes"/>
      <point x="246" y="64" type="curve" smooth="yes"/>
      <point x="133" y="64"/>
      <point x="82" y="147"/>
      <point x="82" y="284" type="curve"/>
      <point x="15" y="274" type="line"/>
      <point x="15" y="103" smooth="yes"/>
      <point x="94" y="6" smooth="yes"/>
      <point x="246" y="6" type="curve" smooth="yes"/>
      <point x="372" y="6" smooth="yes"/>
      <point x="455" y="77" smooth="yes"/>
    </contour>
  </outline>
</glyph>
<glyph name="isigndeva" format="1">
  <advance width="300"/>
  <unicode hex="093F"/>
  <outline>
    <contour>
      <point x="775" y="730" type="line"/>
      <point x="742" y="847" smooth="yes"/>
      <point x="602" y="1037" smooth="yes"/>
      <point x="337" y="1037" type="curve" smooth="yes"/>
      <point x="126" y="1037" smooth="yes"/>
      <point x="64" y="946" smooth="yes"/>
      <point x="64" y="848" type="curve" smooth="yes"/>
      <point x="64" y="806"/>
      <point x="80" y="764"/>
      <point x="108" y="730" type="curve"/>
      <point x="177" y="730" type="line"/>
      <point x="154" y="756" smooth="yes"/>
      <point x="134" y="805" smooth="yes"/>
      <point x="134" y="847" type="curve" smooth="yes"/>
      <point x="134" y="916" smooth="yes"/>
      <point x="187" y="977" smooth="yes"/>
      <point x="336" y="977" type="curve" smooth="yes"/>
      <point x="563" y="977"/>
      <point x="672" y="818"/>
      <point x="706" y="730" type="curve"/>
    </contour>
    <component  base="aasigndeva"/>
  </outline>
</glyph>
<glyph name="aisigndeva" format="1">
  <advance width="0"/>
  <unicode hex="0948"/>
  <outline>
    <contour>
      <point x="-105" y="730" type="line"/>
      <point x="-284" y="1066" type="line"/>
      <point x="-342" y="1035" type="line"/>
      <point x="-157" y="730" type="line"/>
    </contour>
    <contour>
      <point x="-121" y="730" type="line"/>
      <point x="-149" y="760" type="line"/>
      <point x="-402" y="933" type="line"/>
      <point x="-439" y="880" type="line"/>
      <point x="-185" y="730" type="line"/>
    </contour>
  </outline>
</glyph>
<glyph name="omdeva" format="1">
  <advance width="954"/>
  <unicode hex="0950"/>
  <outline>
    <contour>
      <point x="560" y="203" type="line"/>
      <point x="592" y="154" smooth="yes"/>
      <point x="642" y="127" smooth="yes"/>
      <point x="712" y="127" type="curve" smooth="yes"/>
      <point x="836" y="127" smooth="yes"/>
      <point x="914" y="216" smooth="yes"/>
      <point x="914" y="346" type="curve" smooth="yes"/>
      <point x="914" y="471" smooth="yes"/>
      <point x="860" y="560" smooth="yes"/>
      <point x="712" y="560" type="curve" smooth="yes"/>
      <point x="519" y="560"/>
      <point x="503" y="302"/>
      <point x="403" y="376" type="curve"/>
      <point x="396" y="340" type="line"/>
      <point x="550" y="228" smooth="yes"/>
      <point x="559" y="499" smooth="yes"/>
      <point x="712" y="499" type="curve" smooth="yes"/>
      <point x="798" y="499" smooth="yes"/>
      <point x="844" y="449" smooth="yes"/>
      <point x="844" y="346" type="curve" smooth="yes"/>
      <point x="844" y="238" smooth="yes"/>
      <point x="781" y="185" smooth="yes"/>
      <point x="712" y="185" type="curve" smooth="yes"/>
      <point x="668" y="185"/>
      <point x="637" y="204"/>
      <point x="617" y="237" type="curve"/>
    </contour>
    <contour>
      <point x="261" y="46" type="curve" smooth="yes"/>
      <point x="403" y="46" smooth="yes"/>
      <point x="477" y="111" smooth="yes"/>
      <point x="477" y="227" type="curve" smooth="yes"/>
      <point x="477" y="351" smooth="yes"/>
      <point x="386" y="409" smooth="yes"/>
      <point x="281" y="409" type="curve" smooth="yes"/>
      <point x="193" y="409" type="line"/>
      <point x="193" y="365" type="line"/>
      <point x="269" y="365" type="line" smooth="yes"/>
      <point x="371" y="365" smooth="yes"/>
      <point x="407" y="304" smooth="yes"/>
      <point x="407" y="226" type="curve" smooth="yes"/>
      <point x="407" y="150" smooth="yes"/>
      <point x="362" y="104" smooth="yes"/>
      <point x="261" y="104" type="curve" smooth="yes"/>
      <point x="160" y="104"/>
      <point x="106" y="149"/>
      <point x="97" y="256" type="curve"/>
      <point x="35" y="231" type="line"/>
      <point x="52" y="104" smooth="yes"/>
      <point x="125" y="46" smooth="yes"/>
    </contour>
    <contour>
      <point x="193" y="375" type="line"/>
      <point x="270" y="375" type="line" smooth="yes"/>
      <point x="375" y="375" smooth="yes"/>
      <point x="468" y="443" smooth="yes"/>
      <point x="468" y="550" type="curve" smooth="yes"/>
      <point x="468" y="668" smooth="yes"/>
      <point x="413" y="744" smooth="yes"/>
      <point x="251" y="744" type="curve" smooth="yes"/>
      <point x="104" y="744"/>
      <point x="49" y="668"/>
      <point x="49" y="550" type="curve"/>
      <point x="111" y="550" type="line"/>
      <point x="111" y="631" smooth="yes"/>
      <point x="147" y="685" smooth="yes"/>
      <point x="251" y="685" type="curve" smooth="yes"/>
      <point x="366" y="685" smooth="yes"/>
      <point x="398" y="632" smooth="yes"/>
      <point x="398" y="551" type="curve" smooth="yes"/>
      <point x="398" y="477" smooth="yes"/>
      <point x="352" y="419" smooth="yes"/>
      <point x="270" y="419" type="curve" smooth="yes"/>
      <point x="193" y="419" type="line"/>
    </contour>
    <contour>
      <point x="713" y="869" type="curve" smooth="yes"/>
      <point x="750" y="869" smooth="yes"/>
      <point x="766" y="884" smooth="yes"/>
      <point x="766" y="920" type="curve" smooth="yes"/>
      <point x="766" y="957" smooth="yes"/>
      <point x="751" y="972" smooth="yes"/>
      <point x="713" y="972" type="curve" smooth="yes"/>
      <point x="677" y="972" smooth="yes"/>
      <point x="662" y="957" smooth="yes"/>
      <point x="662" y="920" type="curve" smooth="yes"/>
      <point x="662" y="884" smooth="yes"/>
      <point x="677" y="869" smooth="yes"/>
    </contour>
    <contour>
      <point x="883" y="879" type="line"/>
      <point x="883" y="798" smooth="yes"/>
      <point x="855" y="720" smooth="yes"/>
      <point x="712" y="720" type="curve" smooth="yes"/>
      <point x="569" y="720"/>
      <point x="542" y="798"/>
      <point x="542" y="879" type="curve"/>
      <point x="601" y="879" type="line"/>
      <point x="601" y="827" smooth="yes"/>
      <point x="616" y="780" smooth="yes"/>
      <point x="712" y="780" type="curve" smooth="yes"/>
      <point x="807" y="780"/>
      <point x="822" y="827"/>
      <point x="822" y="879" type="curve"/>
    </contour>
  </outline>
</glyph>
<glyph name="ecandralongsigndeva" format="1">
  <advance width="0"/>
  <unicode hex="0955"/>
  <outline>
    <contour>
      <point x="21" y="801" type="line"/>
      <point x="-320" y="801" type="line"/>
      <point x="-320" y="851" type="line"/>
      <point x="21" y="851" type="line"/>
    </contour>
    <contour>
      <point x="21" y="1056" type="line"/>
      <point x="21" y="975" smooth="yes"/>
      <point x="-7" y="897" smooth="yes"/>
      <point x="-150" y="897" type="curve" smooth="yes"/>
      <point x="-293" y="897"/>
      <point x="-320" y="975"/>
      <point x="-320" y="1056" type="curve"/>
      <point x="-261" y="1056" type="line"/>
      <point x="-261" y="1004" smooth="yes"/>
      <point x="-246" y="957" smooth="yes"/>
      <point x="-150" y="957" type="curve" smooth="yes"/>
      <point x="-55" y="957"/>
      <point x="-40" y="1004"/>
      <point x="-40" y="1056" type="curve"/>
    </contour>
  </outline>
</glyph>
<glyph name="dbldanda" format="1">
  <advance width="585"/>
  <unicode hex="0965"/>
  <outline>
    <contour>
      <point x="190" y="0" type="line"/>
      <point x="190" y="730" type="line"/>
      <point x="260" y="730" type="line"/>
      <point x="260" y="0" type="line"/>
    </contour>
    <contour>
      <point x="400" y="0" type="line"/>
      <point x="400" y="730" type="line"/>
      <point x="470" y="730" type="line"/>
      <point x="470" y="0" type="line"/>
    </contour>
  </outline>
</glyph>
<glyph name="twodeva" format="1">
  <advance width="569"/>
  <unicode hex="0968"/>
  <outline>
    <contour>
      <point x="201" y="257" type="line"/>
      <point x="215" y="253" smooth="yes"/>
      <point x="230" y="253" smooth="yes"/>
      <point x="245" y="253" type="curve" smooth="yes"/>
      <point x="402" y="253" smooth="yes"/>
      <point x="499" y="381" smooth="yes"/>
      <point x="499" y="523" type="curve" smooth="yes"/>
      <point x="499" y="655" smooth="yes"/>
      <point x="428" y="775" smooth="yes"/>
      <point x="251" y="775" type="curve" smooth="yes"/>
      <point x="186" y="775"/>
      <point x="125" y="752"/>
      <point x="70" y="713" type="curve"/>
      <point x="101" y="663" type="line"/>
      <point x="143" y="695" smooth="yes"/>
      <point x="197" y="714" smooth="yes"/>
      <point x="246" y="714" type="curve" smooth="yes"/>
      <point x="366" y="714" smooth="yes"/>
      <point x="429" y="641" smooth="yes"/>
      <point x="429" y="523" type="curve" smooth="yes"/>
      <point x="429" y="399" smooth="yes"/>
      <point x="343" y="312" smooth="yes"/>
      <point x="240" y="312" type="curve" smooth="yes"/>
      <point x="218" y="312"/>
      <point x="198" y="312"/>
      <point x="180" y="319" type="curve"/>
    </contour>
    <contour>
      <point x="404" y="90" type="line"/>
      <point x="255" y="203"/>
      <point x="189" y="338"/>
      <point x="182" y="478" type="curve"/>
      <point x="54" y="496"/>
      <point x="46" y="303"/>
      <point x="172" y="261" type="curve"/>
      <point x="216" y="185"/>
      <point x="279" y="111"/>
      <point x="369" y="43" type="curve"/>
    </contour>
  </outline>
</glyph>
<glyph name="sixdeva" format="1">
  <advance width="672"/>
  <unicode hex="096C"/>
  <outline>
    <contour>
      <point x="430" y="450" type="line"/>
      <point x="350" y="450" type="line" smooth="yes"/>
      <point x="190" y="450" smooth="yes"/>
      <point x="126" y="349" smooth="yes"/>
      <point x="126" y="242" type="curve" smooth="yes"/>
      <point x="126" y="137" smooth="yes"/>
      <point x="187" y="40" smooth="yes"/>
      <point x="339" y="40" type="curve" smooth="yes"/>
      <point x="419" y="40"/>
      <point x="496" y="72"/>
      <point x="557" y="117" type="curve"/>
      <point x="530" y="170" type="line"/>
      <point x="475" y="127" smooth="yes"/>
      <point x="417" y="99" smooth="yes"/>
      <point x="339" y="99" type="curve" smooth="yes"/>
      <point x="244" y="99" smooth="yes"/>
      <point x="196" y="167" smooth="yes"/>
      <point x="196" y="242" type="curve" smooth="yes"/>
      <point x="196" y="319" smooth="yes"/>
      <point x="249" y="392" smooth="yes"/>
      <point x="349" y="392" type="curve" smooth="yes"/>
      <point x="430" y="392" type="line"/>
    </contour>
    <contour>
      <point x="301" y="450" type="line" smooth="yes"/>
      <point x="208" y="450" smooth="yes"/>
      <point x="160" y="515" smooth="yes"/>
      <point x="160" y="586" type="curve" smooth="yes"/>
      <point x="160" y="655" smooth="yes"/>
      <point x="204" y="716" smooth="yes"/>
      <point x="289" y="716" type="curve" smooth="yes"/>
      <point x="367" y="716"/>
      <point x="430" y="690"/>
      <point x="480" y="651" type="curve"/>
      <point x="508" y="703" type="line"/>
      <point x="451" y="745" smooth="yes"/>
      <point x="379" y="774" smooth="yes"/>
      <point x="290" y="774" type="curve" smooth="yes"/>
      <point x="155" y="774" smooth="yes"/>
      <point x="90" y="683" smooth="yes"/>
      <point x="90" y="586" type="curve" smooth="yes"/>
      <point x="90" y="487"/>
      <point x="148" y="392"/>
      <point x="302" y="392" type="curve"/>
      <point x="350" y="450" type="line"/>
    </contour>
    <contour>
      <point x="558" y="114" type="line"/>
      <point x="593" y="137" smooth="yes"/>
      <point x="603" y="153" smooth="yes"/>
      <point x="603" y="175" type="curve" smooth="yes"/>
      <point x="603" y="218" smooth="yes"/>
      <point x="551" y="253" smooth="yes"/>
      <point x="498" y="253" type="curve" smooth="yes"/>
      <point x="448" y="253" smooth="yes"/>
      <point x="437" y="218" smooth="yes"/>
      <point x="478" y="134" type="curve" smooth="yes"/>
      <point x="580" y="-72" type="line"/>
      <point x="642" y="-42" type="line"/>
    </contour>
  </outline>
</glyph>
<glyph name="sevendeva" format="1">
  <advance width="684"/>
  <unicode hex="096D"/>
  <outline>
    <contour>
      <point x="272" y="738" type="line"/>
      <point x="187" y="640" smooth="yes"/>
      <point x="160" y="529" smooth="yes"/>
      <point x="160" y="416" type="curve" smooth="yes"/>
      <point x="160" y="191" smooth="yes"/>
      <point x="225" y="78" smooth="yes"/>
      <point x="359" y="78" type="curve" smooth="yes"/>
      <point x="470" y="78" smooth="yes"/>
      <point x="560" y="201" smooth="yes"/>
      <point x="560" y="369" type="curve" smooth="yes"/>
      <point x="560" y="473" smooth="yes"/>
      <point x="542" y="558" smooth="yes"/>
      <point x="450" y="558" type="curve" smooth="yes"/>
      <point x="382" y="558" smooth="yes"/>
      <point x="365" y="515" smooth="yes"/>
      <point x="365" y="463" type="curve" smooth="yes"/>
      <point x="365" y="387"/>
      <point x="385" y="306"/>
      <point x="506" y="277" type="curve"/>
      <point x="487" y="227" type="line"/>
      <point x="336" y="265" smooth="yes"/>
      <point x="301" y="362" smooth="yes"/>
      <point x="301" y="463" type="curve" smooth="yes"/>
      <point x="301" y="543" smooth="yes"/>
      <point x="337" y="610" smooth="yes"/>
      <point x="448" y="610" type="curve" smooth="yes"/>
      <point x="576" y="610" smooth="yes"/>
      <point x="624" y="510" smooth="yes"/>
      <point x="624" y="370" type="curve" smooth="yes"/>
      <point x="624" y="171" smooth="yes"/>
      <point x="509" y="20" smooth="yes"/>
      <point x="360" y="20" type="curve" smooth="yes"/>
      <point x="195" y="20" smooth="yes"/>
      <point x="90" y="140" smooth="yes"/>
      <point x="90" y="417" type="curve" smooth="yes"/>
      <point x="90" y="537"/>
      <point x="118" y="679"/>
      <point x="216" y="775" type="curve"/>
    </contour>
  </outline>
</glyph>
<glyph name="ggadeva" format="1">
  <advance width="635"/>
  <unicode hex="097B"/>
  <outline>
    <contour>
      <point x="-10" y="-50" type="line"/>
      <point x="520" y="-50" type="line"/>
      <point x="520" y="0" type="line"/>
      <point x="-10" y="0" type="line"/>
    </contour>
    <component  base="gadeva"/>
  </outline>
</glyph>
<glyph name="zerowidthnonjoiner" format="1">
  <advance width="0"/>
  <unicode hex="200C"/>
  <outline>
    <contour>
      <point x="0" y="-318" type="line"/>
      <point x="0" y="976" type="line"/>
      <point x="52" y="976" type="line"/>
      <point x="52" y="-318" type="line"/>
    </contour>
  </outline>
</glyph>
<glyph name="emdash" format="1">
  <advance width="913"/>
  <unicode hex="2014"/>
  <outline>
    <contour>
      <point x="70" y="288" type="line" name="hr00"/>
      <point x="843" y="288" type="line"/>
      <point x="843" y="348" type="line"/>
      <point x="70" y="348" type="line"/>
    </contour>
  </outline>
</glyph>
<glyph name="daggerdbl" format="1">
  <advance width="440"/>
  <unicode hex="2021"/>
  <outline>
    <contour>
      <point x="178" y="730" type="line" name="hr00"/>
      <point x="196" y="365" type="line"/>
      <point x="244" y="365" type="line"/>
      <point x="262" y="730" type="line"/>
    </contour>
    <contour>
      <point x="20" y="496" type="line"/>
      <point x="96" y="496" type="line"/>
      <point x="198" y="508" type="line"/>
      <point x="198" y="560" type="line"/>
      <point x="96" y="572" type="line"/>
      <point x="20" y="572" type="line"/>
    </contour>
    <contour>
      <point x="420" y="572" type="line"/>
      <point x="344" y="572" type="line"/>
      <point x="242" y="560" type="line"/>
      <point x="242" y="508" type="line"/>
      <point x="344" y="496" type="line"/>
      <point x="420" y="496" type="line"/>
    </contour>
    <contour>
      <point x="262" y="0" type="line"/>
      <point x="244" y="365" type="line"/>
      <point x="196" y="365" type="line"/>
      <point x="178" y="0" type="line"/>
    </contour>
    <contour>
      <point x="420" y="234" type="line"/>
      <point x="344" y="234" type="line"/>
      <point x="242" y="222" type="line"/>
      <point x="242" y="170" type="line"/>
      <point x="344" y="158" type="line"/>
      <point x="420" y="158" type="line"/>
    </contour>
    <contour>
      <point x="20" y="158" type="line"/>
      <point x="96" y="158" type="line"/>
      <point x="198" y="170" type="line"/>
      <point x="198" y="222" type="line"/>
      <point x="96" y="234" type="line"/>
      <point x="20" y="234" type="line"/>
    </contour>
  </outline>
</glyph>
<glyph name="guilsinglleft" format="1">
  <advance width="305"/>
  <unicode hex="2039"/>
  <outline>
    <contour>
      <point x="121" y="315" type="line" name="hr00"/>
      <point x="245" y="158" type="line"/>
      <point x="198" y="112" type="line"/>
      <point x="30" y="299" type="line"/>
      <point x="30" y="331" type="line"/>
      <point x="198" y="518" type="line"/>
      <point x="245" y="472" type="line"/>
    </contour>
  </outline>
</glyph>
<glyph name="fraction" format="1">
  <advance width="267"/>
  <unicode hex="2044"/>
  <outline>
    <contour>
      <point x="0" y="-66" type="line" name="hr00"/>
      <point x="52" y="-66" type="line"/>
      <point x="267" y="735" type="line"/>
      <point x="214" y="735" type="line"/>
    </contour>
  </outline>
</glyph>
<glyph name="oneinferior" format="1">
  <advance width="413"/>
  <unicode hex="2081"/>
  <outline>
    <contour>
      <point x="107" y="-107" type="line" name="hr00"/>
      <point x="329" y="-107" type="line"/>
      <point x="329" y="-62" type="line"/>
      <point x="107" y="-62" type="line"/>
    </contour>
    <contour>
      <point x="246" y="-89" type="line"/>
      <point x="246" y="298" type="line"/>
      <point x="204" y="298" type="line"/>
      <point x="190" y="260" type="line"/>
      <point x="190" y="-89" type="line"/>
    </contour>
    <contour>
      <point x="108" y="234" type="line"/>
      <point x="202" y="234" type="line"/>
      <point x="204" y="298" type="line"/>
      <point x="183" y="283"/>
      <point x="149" y="272"/>
      <point x="108" y="268" type="curve"/>
    </contour>
  </outline>
</glyph>
<glyph name="twoinferior" format="1">
  <advance width="414"/>
  <unicode hex="2082"/>
  <outline>
    <contour>
      <point x="148" y="-62" type="line"/>
      <point x="267" y="67" type="line" smooth="yes"/>
      <point x="303" y="106" smooth="yes"/>
      <point x="335" y="147" smooth="yes"/>
      <point x="335" y="197" type="curve" smooth="yes"/>
      <point x="335" y="262" smooth="yes"/>
      <point x="303" y="307" smooth="yes"/>
      <point x="208" y="307" type="curve" smooth="yes"/>
      <point x="111" y="307"/>
      <point x="80" y="261"/>
      <point x="80" y="185" type="curve"/>
      <point x="128" y="185" type="line"/>
      <point x="128" y="232" smooth="yes"/>
      <point x="142" y="262" smooth="yes"/>
      <point x="206" y="262" type="curve" smooth="yes"/>
      <point x="263" y="262" smooth="yes"/>
      <point x="281" y="235" smooth="yes"/>
      <point x="281" y="197" type="curve" smooth="yes" name="hr01"/>
      <point x="281" y="161" smooth="yes"/>
      <point x="257" y="135" smooth="yes"/>
      <point x="227" y="102" type="curve" smooth="yes"/>
      <point x="73" y="-65" type="line"/>
      <point x="73" y="-107" type="line"/>
      <point x="340" y="-107" type="line"/>
      <point x="340" y="-62" type="line"/>
    </contour>
  </outline>
</glyph>
<glyph name="fiveinferior" format="1">
  <advance width="414"/>
  <unicode hex="2085"/>
  <outline>
    <contour>
      <point x="87" y="94" type="line"/>
      <point x="154" y="94" type="line" smooth="yes"/>
      <point x="262" y="94" smooth="yes"/>
      <point x="292" y="68" smooth="yes"/>
      <point x="292" y="12" type="curve" smooth="yes"/>
      <point x="292" y="-41" smooth="yes"/>
      <point x="274" y="-71" smooth="yes"/>
      <point x="209" y="-71" type="curve" smooth="yes"/>
      <point x="143" y="-71"/>
      <point x="127" y="-37"/>
      <point x="127" y="16" type="curve" name="hr01"/>
      <point x="79" y="16" type="line"/>
      <point x="79" y="-67" smooth="yes"/>
      <point x="110" y="-115" smooth="yes"/>
      <point x="209" y="-115" type="curve" smooth="yes"/>
      <point x="313" y="-115" smooth="yes"/>
      <point x="347" y="-68" smooth="yes"/>
      <point x="347" y="12" type="curve" smooth="yes"/>
      <point x="347" y="107" smooth="yes"/>
      <point x="291" y="140" smooth="yes"/>
      <point x="164" y="140" type="curve" smooth="yes"/>
      <point x="139" y="140" type="line"/>
      <point x="146" y="254" type="line" name="hr02"/>
      <point x="324" y="254" type="line"/>
      <point x="324" y="298" type="line"/>
      <point x="100" y="298" type="line"/>
    </contour>
  </outline>
</glyph>
<glyph name="sixinferior" format="1">
  <advance width="414"/>
  <unicode hex="2086"/>
  <outline>
    <contour>
      <point x="346" y="15" type="curve"/>
      <point x="346" y="79" smooth="yes"/>
      <point x="312" y="128" smooth="yes"/>
      <point x="211" y="128" type="curve" smooth="yes"/>
      <point x="179" y="128"/>
      <point x="137" y="122"/>
      <point x="96" y="108" type="curve"/>
      <point x="96" y="66" type="line"/>
      <point x="137" y="80" smooth="yes"/>
      <point x="164" y="86" smooth="yes"/>
      <point x="204" y="86" type="curve" smooth="yes"/>
      <point x="270" y="86" smooth="yes"/>
      <point x="291" y="54" smooth="yes"/>
      <point x="291" y="15" type="curve" smooth="yes"/>
      <point x="291" y="-38" smooth="yes"/>
      <point x="274" y="-71" smooth="yes"/>
      <point x="207" y="-71" type="curve" smooth="yes"/>
      <point x="136" y="-71" smooth="yes"/>
      <point x="118" y="-36" smooth="yes"/>
      <point x="118" y="92" type="curve" smooth="yes"/>
      <point x="118" y="200" smooth="yes"/>
      <point x="124" y="262" smooth="yes"/>
      <point x="207" y="262" type="curve" smooth="yes"/>
      <point x="268" y="262"/>
      <point x="290" y="237"/>
      <point x="290" y="181" type="curve"/>
      <point x="338" y="181" type="line"/>
      <point x="338" y="265" smooth="yes"/>
      <point x="305" y="307" smooth="yes"/>
      <point x="206" y="307" type="curve" smooth="yes"/>
      <point x="84" y="307" smooth="yes"/>
      <point x="64" y="228" smooth="yes"/>
      <point x="64" y="68" type="curve" smooth="yes"/>
      <point x="64" y="-52" smooth="yes"/>
      <point x="90" y="-115" smooth="yes"/>
      <point x="209" y="-115" type="curve" smooth="yes"/>
      <point x="312" y="-115" smooth="yes"/>
      <point x="346" y="-65" smooth="yes"/>
    </contour>
  </outline>
</glyph>
<glyph name="nineinferior" format="1">
  <advance width="415"/>
  <unicode hex="2089"/>
  <outline>
    <contour>
      <point x="65" y="177" type="curve" name="hr00"/>
      <point x="65" y="111" smooth="yes"/>
      <point x="96" y="59" smooth="yes"/>
      <point x="201" y="59" type="curve" smooth="yes"/>
      <point x="237" y="59"/>
      <point x="272" y="64"/>
      <point x="310" y="77" type="curve"/>
      <point x="310" y="118" type="line"/>
      <point x="269" y="106" smooth="yes"/>
      <point x="246" y="102" smooth="yes"/>
      <point x="209" y="102" type="curve" smooth="yes"/>
      <point x="141" y="102" smooth="yes"/>
      <point x="120" y="140" smooth="yes"/>
      <point x="120" y="178" type="curve" smooth="yes"/>
      <point x="120" y="231" smooth="yes"/>
      <point x="142" y="262" smooth="yes"/>
      <point x="207" y="262" type="curve" smooth="yes"/>
      <point x="279" y="262" smooth="yes"/>
      <point x="291" y="227" smooth="yes"/>
      <point x="291" y="100" type="curve" smooth="yes"/>
      <point x="291" y="-34" smooth="yes"/>
      <point x="275" y="-71" smooth="yes"/>
      <point x="203" y="-71" type="curve" smooth="yes"/>
      <point x="141" y="-71"/>
      <point x="120" y="-42"/>
      <point x="120" y="10" type="curve"/>
      <point x="72" y="10" type="line"/>
      <point x="72" y="-69" smooth="yes"/>
      <point x="106" y="-115" smooth="yes"/>
      <point x="204" y="-115" type="curve" smooth="yes"/>
      <point x="330" y="-115" smooth="yes"/>
      <point x="347" y="-38" smooth="yes"/>
      <point x="347" y="107" type="curve" smooth="yes"/>
      <point x="347" y="244" smooth="yes"/>
      <point x="326" y="307" smooth="yes"/>
      <point x="208" y="307" type="curve" smooth="yes"/>
      <point x="104" y="307" smooth="yes"/>
      <point x="66" y="257" smooth="yes"/>
    </contour>
  </outline>
</glyph>
<glyph name="lira" format="1">
  <advance width="580"/>
  <unicode hex="20A4"/>
  <outline>
    <contour>
      <point x="64" y="356" type="line" name="hr00"/>
      <point x="441" y="356" type="line"/>
      <point x="441" y="401" type="line"/>
      <point x="64" y="401" type="line"/>
    </contour>
    <contour>
      <point x="82" y="56" type="curve"/>
      <point x="82" y="0" type="line"/>
      <point x="531" y="0" type="line"/>
      <point x="531" y="59" type="line"/>
      <point x="157" y="59" type="line"/>
      <point x="193" y="87" smooth="yes"/>
      <point x="202" y="115" smooth="yes"/>
      <point x="202" y="174" type="curve" smooth="yes"/>
      <point x="202" y="489" type="line" smooth="yes"/>
      <point x="202" y="574" smooth="yes"/>
      <point x="225" y="625" smooth="yes"/>
      <point x="323" y="625" type="curve" smooth="yes"/>
      <point x="413" y="625"/>
      <point x="452" y="583"/>
      <point x="452" y="485" type="curve"/>
      <point x="514" y="489" type="line"/>
      <point x="514" y="620" smooth="yes"/>
      <point x="462" y="684" smooth="yes"/>
      <point x="319" y="684" type="curve" smooth="yes"/>
      <point x="178" y="684" smooth="yes"/>
      <point x="130" y="612" smooth="yes"/>
      <point x="130" y="489" type="curve" smooth="yes"/>
      <point x="130" y="164" type="line" smooth="yes"/>
      <point x="130" y="129"/>
      <point x="123" y="92"/>
    </contour>
    <contour>
      <point x="64" y="191" type="line"/>
      <point x="441" y="191" type="line"/>
      <point x="441" y="236" type="line"/>
      <point x="64" y="236" type="line"/>
    </contour>
  </outline>
</glyph>
<glyph name="Euro" format="1">
  <advance width="580"/>
  <unicode hex="20AC"/>
  <outline>
    <contour>
      <point x="343" y="45" type="curve" smooth="yes" name="hr00"/>
      <point x="188" y="45" smooth="yes"/>
      <point x="180" y="147" smooth="yes"/>
      <point x="180" y="335" type="curve" smooth="yes"/>
      <point x="180" y="522" smooth="yes"/>
      <point x="188" y="625" smooth="yes"/>
      <point x="343" y="625" type="curve" smooth="yes"/>
      <point x="427" y="625"/>
      <point x="481" y="587"/>
      <point x="481" y="517" type="curve"/>
      <point x="543" y="521" type="line"/>
      <point x="540" y="625" smooth="yes"/>
      <point x="481" y="684" smooth="yes"/>
      <point x="343" y="684" type="curve" smooth="yes"/>
      <point x="123" y="684" smooth="yes"/>
      <point x="110" y="545" smooth="yes"/>
      <point x="110" y="335" type="curve" smooth="yes"/>
      <point x="110" y="124" smooth="yes"/>
      <point x="123" y="-14" smooth="yes"/>
      <point x="343" y="-14" type="curve" smooth="yes"/>
      <point x="482" y="-14"/>
      <point x="541" y="45"/>
      <point x="543" y="151" type="curve"/>
      <point x="482" y="155" type="line"/>
      <point x="482" y="83" smooth="yes"/>
      <point x="428" y="45" smooth="yes"/>
    </contour>
    <contour>
      <point x="47" y="245" type="line"/>
      <point x="405" y="245" type="line"/>
      <point x="405" y="295" type="line"/>
      <point x="47" y="295" type="line"/>
    </contour>
    <contour>
      <point x="47" y="375" type="line"/>
      <point x="405" y="375" type="line"/>
      <point x="405" y="425" type="line"/>
      <point x="47" y="425" type="line"/>
    </contour>
  </outline>
</glyph>
<glyph name="uni2113" format="1">
  <advance width="313"/>
  <unicode hex="2113"/>
  <outline>
    <contour>
      <point x="279" y="49" type="line" name="hr00"/>
      <point x="257" y="44" smooth="yes"/>
      <point x="239" y="41" smooth="yes"/>
      <point x="224" y="41" type="curve" smooth="yes"/>
      <point x="185" y="41" smooth="yes"/>
      <point x="170" y="63" smooth="yes"/>
      <point x="170" y="125" type="curve" smooth="yes"/>
      <point x="170" y="714" type="line"/>
      <point x="100" y="700" type="line"/>
      <point x="100" y="125" type="line" smooth="yes"/>
      <point x="100" y="55" smooth="yes"/>
      <point x="108" y="-14" smooth="yes"/>
      <point x="202" y="-14" type="curve" smooth="yes"/>
      <point x="225" y="-14"/>
      <point x="252" y="-10"/>
      <point x="288" y="0" type="curve"/>
    </contour>
  </outline>
</glyph>
<glyph name="trademark" format="1">
  <advance width="955"/>
  <unicode hex="2122"/>
  <outline>
    <contour>
      <point x="75" y="680" type="line" name="hr00"/>
      <point x="358" y="680" type="line"/>
      <point x="358" y="730" type="line"/>
      <point x="75" y="730" type="line"/>
    </contour>
    <contour>
      <point x="188" y="712" type="line"/>
      <point x="188" y="288" type="line"/>
      <point x="244" y="288" type="line"/>
      <point x="244" y="712" type="line"/>
    </contour>
    <contour>
      <point x="440" y="730" type="line"/>
      <point x="440" y="288" type="line"/>
      <point x="496" y="288" type="line"/>
      <point x="496" y="730" type="line"/>
    </contour>
    <contour>
      <point x="762" y="730" type="line"/>
      <point x="611" y="328" type="line"/>
      <point x="662" y="328" type="line"/>
      <point x="816" y="730" type="line"/>
    </contour>
    <contour>
      <point x="784" y="730" type="line"/>
      <point x="784" y="288" type="line"/>
      <point x="840" y="288" type="line"/>
      <point x="840" y="730" type="line"/>
    </contour>
    <contour>
      <point x="660" y="328" type="line"/>
      <point x="519" y="730" type="line"/>
      <point x="465" y="730" type="line"/>
      <point x="609" y="328" type="line"/>
    </contour>
  </outline>
</glyph>
<glyph name="product" format="1">
  <advance width="685"/>
  <unicode hex="220F"/>
  <outline>
    <contour>
      <point x="485" y="670" type="line" name="hr00"/>
      <point x="485" y="-177" type="line"/>
      <point x="555" y="-177" type="line"/>
      <point x="555" y="670" type="line"/>
    </contour>
    <contour>
      <point x="130" y="670" type="line"/>
      <point x="130" y="-177" type="line"/>
      <point x="200" y="-177" type="line"/>
      <point x="200" y="670" type="line"/>
    </contour>
    <contour>
      <point x="70" y="620" type="line"/>
      <point x="615" y="620" type="line"/>
      <point x="615" y="670" type="line"/>
      <point x="70" y="670" type="line"/>
    </contour>
  </outline>
</glyph>
<glyph name="infinity" format="1">
  <advance width="637"/>
  <unicode hex="221E"/>
  <outline>
    <contour>
      <point x="298" y="348" type="line" name="hr00"/>
      <point x="314" y="448" smooth="yes"/>
      <point x="352" y="486" smooth="yes"/>
      <point x="442" y="486" type="curve" smooth="yes"/>
      <point x="536" y="486" smooth="yes"/>
      <point x="597" y="452" smooth="yes"/>
      <point x="597" y="318" type="curve" smooth="yes"/>
      <point x="597" y="185" smooth="yes"/>
      <point x="536" y="151" smooth="yes"/>
      <point x="442" y="151" type="curve" smooth="yes"/>
      <point x="352" y="151"/>
      <point x="316" y="199"/>
      <point x="300" y="298" type="curve"/>
      <point x="339" y="303" type="line"/>
      <point x="349" y="241" smooth="yes"/>
      <point x="383" y="211" smooth="yes"/>
      <point x="440" y="211" type="curve" smooth="yes"/>
      <point x="501" y="211" smooth="yes"/>
      <point x="541" y="233" smooth="yes"/>
      <point x="541" y="318" type="curve" smooth="yes"/>
      <point x="541" y="404" smooth="yes"/>
      <point x="501" y="426" smooth="yes"/>
      <point x="440" y="426" type="curve" smooth="yes"/>
      <point x="383" y="426" smooth="yes"/>
      <point x="357" y="406" smooth="yes"/>
      <point x="347" y="342" type="curve" smooth="yes"/>
      <point x="339" y="288" type="line" smooth="yes"/>
      <point x="324" y="189" smooth="yes"/>
      <point x="284" y="151" smooth="yes"/>
      <point x="195" y="151" type="curve" smooth="yes"/>
      <point x="101" y="151" smooth="yes"/>
      <point x="40" y="185" smooth="yes"/>
      <point x="40" y="318" type="curve" smooth="yes"/>
      <point x="40" y="452" smooth="yes"/>
      <point x="101" y="486" smooth="yes"/>
      <point x="195" y="486" type="curve" smooth="yes"/>
      <point x="284" y="486"/>
      <point x="321" y="438"/>
      <point x="336" y="339" type="curve"/>
      <point x="298" y="334" type="line"/>
      <point x="288" y="396" smooth="yes"/>
      <point x="254" y="426" smooth="yes"/>
      <point x="197" y="426" type="curve" smooth="yes"/>
      <point x="136" y="426" smooth="yes"/>
      <point x="96" y="404" smooth="yes"/>
      <point x="96" y="318" type="curve" smooth="yes"/>
      <point x="96" y="233" smooth="yes"/>
      <point x="136" y="211" smooth="yes"/>
      <point x="197" y="211" type="curve" smooth="yes"/>
      <point x="254" y="211" smooth="yes"/>
      <point x="278" y="230" smooth="yes"/>
      <point x="288" y="288" type="curve" smooth="yes"/>
    </contour>
  </outline>
</glyph>
<glyph name="nacombiningletterdeva" format="1">
  <advance width="0"/>
  <unicode hex="A8ED"/>
  <outline>
    <contour>
      <point x="-297" y="973" type="line" smooth="yes"/>
      <point x="-310" y="973" smooth="yes"/>
      <point x="-315" y="968" smooth="yes"/>
      <point x="-315" y="954" type="curve" smooth="yes"/>
      <point x="-315" y="915" smooth="yes"/>
      <point x="-271" y="893" smooth="yes"/>
      <point x="-252" y="893" type="curve" smooth="yes"/>
      <point x="-244" y="893" smooth="yes"/>
      <point x="-238" y="896" smooth="yes"/>
      <point x="-238" y="906" type="curve" smooth="yes"/>
      <point x="-238" y="940" type="line"/>
      <point x="-150" y="940" type="line"/>
      <point x="-150" y="800" type="line"/>
      <point x="-101" y="800" type="line"/>
      <point x="-101" y="1096" type="line"/>
      <point x="-49" y="1096" type="line"/>
      <point x="-49" y="1129" type="line"/>
      <point x="-341" y="1129" type="line"/>
      <point x="-341" y="1096" type="line"/>
      <point x="-150" y="1096" type="line"/>
      <point x="-150" y="973" type="line"/>
    </contour>
  </outline>
</glyph>
<glyph name="candrabinduavagrahadeva" format="1">
  <advance width="541"/>
  <unicode hex="A8F7"/>
  <outline>
    <contour>
      <point x="388" y="101" type="curve"/>
      <point x="388" y="222" smooth="yes"/>
      <point x="228" y="224" smooth="yes"/>
      <point x="228" y="295" type="curve" smooth="yes"/>
      <point x="228" y="324" smooth="yes"/>
      <point x="244" y="343" smooth="yes"/>
      <point x="279" y="343" type="curve" smooth="yes"/>
      <point x="360" y="343" type="line"/>
      <point x="360" y="379" type="line"/>
      <point x="269" y="379" type="line" smooth="yes"/>
      <point x="215" y="379" smooth="yes"/>
      <point x="175" y="351" smooth="yes"/>
      <point x="175" y="295" type="curve" smooth="yes"/>
      <point x="175" y="190" smooth="yes"/>
      <point x="334" y="190" smooth="yes"/>
      <point x="334" y="96" type="curve" smooth="yes"/>
      <point x="334" y="47" smooth="yes"/>
      <point x="307" y="25" smooth="yes"/>
      <point x="267" y="25" type="curve" smooth="yes"/>
      <point x="213" y="25"/>
      <point x="190" y="68"/>
      <point x="190" y="137" type="curve"/>
      <point x="137" y="130" type="line"/>
      <point x="137" y="40" smooth="yes"/>
      <point x="177" y="-19" smooth="yes"/>
      <point x="267" y="-19" type="curve" smooth="yes"/>
      <point x="336" y="-19" smooth="yes"/>
      <point x="388" y="16" smooth="yes"/>
    </contour>
    <component  base="spacingcandrabindudeva"/>
  </outline>
</glyph>
<glyph name="C.001" format="1">
  <advance width="619"/>
  <outline>
    <contour>
      <point x="560" y="549" type="line" name="hr00"/>
      <point x="546" y="673" smooth="yes"/>
      <point x="489" y="744" smooth="yes"/>
      <point x="336" y="744" type="curve" smooth="yes"/>
      <point x="106" y="744" smooth="yes"/>
      <point x="60" y="602" smooth="yes"/>
      <point x="60" y="365" type="curve" smooth="yes"/>
      <point x="60" y="130" smooth="yes"/>
      <point x="96" y="-14" smooth="yes"/>
      <point x="336" y="-14" type="curve" smooth="yes"/>
      <point x="502" y="-14"/>
      <point x="553" y="77"/>
      <point x="562" y="209" type="curve"/>
      <point x="503" y="212" type="line"/>
      <point x="500" y="120" smooth="yes"/>
      <point x="457" y="46" smooth="yes"/>
      <point x="336" y="46" type="curve" smooth="yes"/>
      <point x="151" y="46" smooth="yes"/>
      <point x="132" y="168" smooth="yes"/>
      <point x="132" y="365" type="curve" smooth="yes"/>
      <point x="132" y="562" smooth="yes"/>
      <point x="162" y="684" smooth="yes"/>
      <point x="336" y="684" type="curve" smooth="yes"/>
      <point x="451" y="684"/>
      <point x="491" y="631"/>
      <point x="501" y="545" type="curve"/>
    </contour>
  </outline>
</glyph>
<glyph name="aasigndeva" format="1">
  <advance width="300"/>
  <outline>
    <contour>
      <point x="115" y="680" type="line"/>
      <point x="115" y="0" type="line"/>
      <point x="185" y="0" type="line"/>
      <point x="185" y="680" type="line"/>
      <point x="310" y="680" type="line"/>
      <point x="310" y="730" type="line"/>
      <point x="-10" y="730" type="line"/>
      <point x="-10" y="680" type="line"/>
    </contour>
  </outline>
</glyph>
<glyph name="iisigndeva_ra_virama.alt1" format="1">
  <advance width="300"/>
  <outline>
    <contour>
      <point x="-275" y="1070" type="curve" smooth="yes"/>
      <point x="-454" y="1070" smooth="yes"/>
      <point x="-521" y="974" smooth="yes"/>
      <point x="-521" y="870" type="curve" smooth="yes"/>
      <point x="-521" y="820"/>
      <point x="-504" y="770"/>
      <point x="-475" y="730" type="curve"/>
      <point x="-401" y="730" type="line"/>
      <point x="-428" y="761" smooth="yes"/>
      <point x="-451" y="819" smooth="yes"/>
      <point x="-451" y="869" type="curve" smooth="yes"/>
      <point x="-451" y="943" smooth="yes"/>
      <point x="-400" y="1010" smooth="yes"/>
      <point x="-268" y="1010" type="curve" smooth="yes"/>
      <point x="-59" y="1010"/>
      <point x="67" y="858"/>
      <point x="109" y="730" type="curve"/>
      <point x="179" y="730" type="line"/>
      <point x="143" y="790" smooth="yes"/>
      <point x="116" y="868" smooth="yes"/>
      <point x="116" y="924" type="curve" smooth="yes"/>
      <point x="116" y="997" smooth="yes"/>
      <point x="164" y="1030" smooth="yes"/>
      <point x="225" y="1030" type="curve" smooth="yes"/>
      <point x="259" y="1030"/>
      <point x="302" y="1025"/>
      <point x="346" y="1013" type="curve"/>
      <point x="351" y="1068" type="line"/>
      <point x="311" y="1080" smooth="yes"/>
      <point x="266" y="1087" smooth="yes"/>
      <point x="215" y="1087" type="curve" smooth="yes"/>
      <point x="94" y="1087"/>
      <point x="49" y="1011"/>
      <point x="49" y="914" type="curve"/>
      <point x="-25" y="1008" smooth="yes"/>
      <point x="-129" y="1070" smooth="yes"/>
    </contour>
    <component  base="aasigndeva"/>
  </outline>
</glyph>
<glyph name="isigndeva_anusvara.alt1" format="1">
  <advance width="300"/>
  <outline>
    <contour>
      <point x="758" y="922" type="curve" smooth="yes"/>
      <point x="795" y="922" smooth="yes"/>
      <point x="811" y="937" smooth="yes"/>
      <point x="811" y="973" type="curve" smooth="yes"/>
      <point x="811" y="1010" smooth="yes"/>
      <point x="796" y="1025" smooth="yes"/>
      <point x="758" y="1025" type="curve" smooth="yes"/>
      <point x="722" y="1025" smooth="yes"/>
      <point x="707" y="1010" smooth="yes"/>
      <point x="707" y="973" type="curve" smooth="yes"/>
      <point x="707" y="937" smooth="yes"/>
      <point x="722" y="922" smooth="yes"/>
    </contour>
    <component  base="isigndeva.alt1"/>
  </outline>
</glyph>
<glyph name="isigndeva_anusvara.alt2" format="1">
  <advance width="300"/>
  <outline>
    <contour>
      <point x="1302" y="922" type="curve" smooth="yes"/>
      <point x="1339" y="922" smooth="yes"/>
      <point x="1355" y="937" smooth="yes"/>
      <point x="1355" y="973" type="curve" smooth="yes"/>
      <point x="1355" y="1010" smooth="yes"/>
      <point x="1340" y="1025" smooth="yes"/>
      <point x="1302" y="1025" type="curve" smooth="yes"/>
      <point x="1266" y="1025" smooth="yes"/>
      <point x="1251" y="1010" smooth="yes"/>
      <point x="1251" y="973" type="curve" smooth="yes"/>
      <point x="1251" y="937" smooth="yes"/>
      <point x="1266" y="922" smooth="yes"/>
    </contour>
    <component  base="isigndeva.alt2"/>
  </outline>
</glyph>
<glyph name="isign_ra_virama.alt3" format="1">
  <advance width="300"/>
  <outline>
    <contour>
      <point x="745" y="730" type="line"/>
      <point x="649" y="900" type="line"/>
      <point x="579" y="976" smooth="yes"/>
      <point x="476" y="1037" smooth="yes"/>
      <point x="337" y="1037" type="curve" smooth="yes"/>
      <point x="126" y="1037" smooth="yes"/>
      <point x="64" y="946" smooth="yes"/>
      <point x="64" y="848" type="curve" smooth="yes"/>
      <point x="64" y="806"/>
      <point x="80" y="764"/>
      <point x="108" y="730" type="curve"/>
      <point x="177" y="730" type="line"/>
      <point x="154" y="756" smooth="yes"/>
      <point x="134" y="805" smooth="yes"/>
      <point x="134" y="847" type="curve" smooth="yes"/>
      <point x="134" y="916" smooth="yes"/>
      <point x="187" y="977" smooth="yes"/>
      <point x="336" y="977" type="curve" smooth="yes"/>
      <point x="545" y="977"/>
      <point x="645" y="818"/>
      <point x="676" y="730" type="curve"/>
    </contour>
    <contour>
      <point x="745" y="730" type="line"/>
      <point x="714" y="787" smooth="yes"/>
      <point x="685" y="845" smooth="yes"/>
      <point x="685" y="927" type="curve" smooth="yes"/>
      <point x="685" y="987" smooth="yes"/>
      <point x="716" y="1030" smooth="yes"/>
      <point x="798" y="1030" type="curve" smooth="yes"/>
      <point x="832" y="1030"/>
      <point x="875" y="1025"/>
      <point x="919" y="1013" type="curve"/>
      <point x="924" y="1068" type="line"/>
      <point x="884" y="1080" smooth="yes"/>
      <point x="839" y="1087" smooth="yes"/>
      <point x="788" y="1087" type="curve" smooth="yes"/>
      <point x="670" y="1087" smooth="yes"/>
      <point x="617" y="1022" smooth="yes"/>
      <point x="617" y="932" type="curve" smooth="yes"/>
      <point x="617" y="891"/>
      <point x="631" y="855"/>
      <point x="658" y="822" type="curve"/>
      <point x="663" y="791"/>
      <point x="673" y="764"/>
      <point x="683" y="730" type="curve"/>
    </contour>
    <contour>
      <point x="115" y="680" type="line"/>
      <point x="115" y="0" type="line"/>
      <point x="185" y="0" type="line"/>
      <point x="185" y="680" type="line"/>
      <point x="310" y="680" type="line"/>
      <point x="310" y="730" type="line"/>
      <point x="-10" y="730" type="line"/>
      <point x="-10" y="680" type="line"/>
    </contour>
  </outline>
</glyph>
<glyph name="isign_ra_virama.alt4" format="1">
  <advance width="300"/>
  <outline>
    <contour>
      <point x="861" y="730" type="line"/>
      <point x="796" y="841" type="line"/>
      <point x="715" y="939" smooth="yes"/>
      <point x="565" y="1037" smooth="yes"/>
      <point x="337" y="1037" type="curve" smooth="yes"/>
      <point x="126" y="1037" smooth="yes"/>
      <point x="64" y="946" smooth="yes"/>
      <point x="64" y="848" type="curve" smooth="yes"/>
      <point x="64" y="806"/>
      <point x="80" y="764"/>
      <point x="108" y="730" type="curve"/>
      <point x="177" y="730" type="line"/>
      <point x="154" y="756" smooth="yes"/>
      <point x="134" y="805" smooth="yes"/>
      <point x="134" y="847" type="curve" smooth="yes"/>
      <point x="134" y="916" smooth="yes"/>
      <point x="187" y="977" smooth="yes"/>
      <point x="336" y="977" type="curve" smooth="yes"/>
      <point x="616" y="977"/>
      <point x="751" y="818"/>
      <point x="792" y="730" type="curve"/>
    </contour>
    <contour>
      <point x="861" y="730" type="line"/>
      <point x="830" y="787" smooth="yes"/>
      <point x="801" y="845" smooth="yes"/>
      <point x="801" y="927" type="curve" smooth="yes"/>
      <point x="801" y="987" smooth="yes"/>
      <point x="832" y="1030" smooth="yes"/>
      <point x="914" y="1030" type="curve" smooth="yes"/>
      <point x="948" y="1030"/>
      <point x="991" y="1025"/>
      <point x="1035" y="1013" type="curve"/>
      <point x="1040" y="1068" type="line"/>
      <point x="1000" y="1080" smooth="yes"/>
      <point x="955" y="1087" smooth="yes"/>
      <point x="904" y="1087" type="curve" smooth="yes"/>
      <point x="786" y="1087" smooth="yes"/>
      <point x="733" y="1022" smooth="yes"/>
      <point x="733" y="932" type="curve" smooth="yes"/>
      <point x="733" y="878"/>
      <point x="753" y="830"/>
      <point x="791" y="786" type="curve"/>
      <point x="793" y="767"/>
      <point x="796" y="751"/>
      <point x="799" y="730" type="curve"/>
    </contour>
    <contour>
      <point x="115" y="680" type="line"/>
      <point x="115" y="0" type="line"/>
      <point x="185" y="0" type="line"/>
      <point x="185" y="680" type="line"/>
      <point x="310" y="680" type="line"/>
      <point x="310" y="730" type="line"/>
      <point x="-10" y="730" type="line"/>
      <point x="-10" y="680" type="line"/>
    </contour>
  </outline>
</glyph>
<glyph name="isigndeva_anusvaradeva.alt4" format="1">
  <advance width="300"/>
  <outline>
    <contour>
      <point x="861" y="730" type="line"/>
      <point x="821" y="847" smooth="yes"/>
      <point x="655" y="1037" smooth="yes"/>
      <point x="337" y="1037" type="curve" smooth="yes"/>
      <point x="126" y="1037" smooth="yes"/>
      <point x="64" y="946" smooth="yes"/>
      <point x="64" y="848" type="curve" smooth="yes"/>
      <point x="64" y="806"/>
      <point x="80" y="764"/>
      <point x="108" y="730" type="curve"/>
      <point x="177" y="730" type="line"/>
      <point x="154" y="756" smooth="yes"/>
      <point x="134" y="805" smooth="yes"/>
      <point x="134" y="847" type="curve" smooth="yes"/>
      <point x="134" y="916" smooth="yes"/>
      <point x="187" y="977" smooth="yes"/>
      <point x="336" y="977" type="curve" smooth="yes"/>
      <point x="616" y="977"/>
      <point x="751" y="818"/>
      <point x="792" y="730" type="curve"/>
    </contour>
    <contour>
      <point x="883" y="922" type="curve" smooth="yes"/>
      <point x="920" y="922" smooth="yes"/>
      <point x="936" y="937" smooth="yes"/>
      <point x="936" y="973" type="curve" smooth="yes"/>
      <point x="936" y="1010" smooth="yes"/>
      <point x="921" y="1025" smooth="yes"/>
      <point x="883" y="1025" type="curve" smooth="yes"/>
      <point x="847" y="1025" smooth="yes"/>
      <point x="832" y="1010" smooth="yes"/>
      <point x="832" y="973" type="curve" smooth="yes"/>
      <point x="832" y="937" smooth="yes"/>
      <point x="847" y="922" smooth="yes"/>
    </contour>
    <component  base="aasigndeva"/>
  </outline>
</glyph>
<glyph name="awdeva" format="1">
  <advance width="1136"/>
  <outline>
    <contour>
      <point x="982" y="730" type="line"/>
      <point x="882" y="942"/>
      <point x="675" y="782"/>
      <point x="675" y="972" type="curve"/>
      <point x="607" y="967" type="line"/>
      <point x="607" y="728"/>
      <point x="839" y="890"/>
      <point x="939" y="730" type="curve"/>
    </contour>
    <contour>
      <point x="1033" y="730" type="line"/>
      <point x="1023" y="930"/>
      <point x="902" y="862"/>
      <point x="902" y="1052" type="curve"/>
      <point x="834" y="1047" type="line"/>
      <point x="834" y="837"/>
      <point x="968" y="915"/>
      <point x="990" y="730" type="curve"/>
    </contour>
    <component  base="aasigndeva" xOffset="836"/>
    <component  base="adeva"/>
  </outline>
</glyph>
<glyph name="badeva_viramadeva" format="1">
  <advance width="315"/>
  <outline>
    <contour>
      <point x="362" y="185" type="line"/>
      <point x="405" y="210" type="line"/>
      <point x="216" y="537" type="line"/>
      <point x="173" y="512" type="line"/>
    </contour>
    <component  base="vadeva_viramadeva"/>
  </outline>
</glyph>
<glyph name="barra" format="1">
  <advance width="382"/>
  <outline>
    <contour>
      <point x="382" y="317" type="line" name="hr00"/>
      <point x="382" y="367" type="line"/>
      <point x="0" y="367" type="line"/>
      <point x="0" y="317" type="line"/>
    </contour>
  </outline>
</glyph>
<glyph name="cadeva_viramadeva" format="1">
  <advance width="361"/>
  <outline>
    <contour>
      <point x="486" y="680" type="line"/>
      <point x="486" y="730" type="line"/>
      <point x="-10" y="730" type="line"/>
      <point x="-10" y="680" type="line"/>
    </contour>
    <contour>
      <point x="510" y="294" type="line"/>
      <point x="473" y="246" smooth="yes"/>
      <point x="403" y="207" smooth="yes"/>
      <point x="308" y="207" type="curve" smooth="yes"/>
      <point x="191" y="207" smooth="yes"/>
      <point x="177" y="268" smooth="yes"/>
      <point x="177" y="335" type="curve" smooth="yes"/>
      <point x="177" y="402"/>
      <point x="186" y="463"/>
      <point x="310" y="463" type="curve"/>
      <point x="305" y="488" type="line"/>
      <point x="137" y="488" smooth="yes"/>
      <point x="109" y="415" smooth="yes"/>
      <point x="109" y="335" type="curve" smooth="yes"/>
      <point x="109" y="239" smooth="yes"/>
      <point x="138" y="149" smooth="yes"/>
      <point x="308" y="149" type="curve" smooth="yes"/>
      <point x="397" y="149"/>
      <point x="464" y="177"/>
      <point x="510" y="229" type="curve"/>
    </contour>
    <contour>
      <point x="375" y="513" type="line"/>
      <point x="13" y="513" type="line"/>
      <point x="13" y="463" type="line"/>
      <point x="375" y="463" type="line"/>
    </contour>
  </outline>
</glyph>
<glyph name="caron.case" format="1">
  <advance width="371"/>
  <outline>
    <contour>
      <point x="294" y="985" type="line" name="hr00"/>
      <point x="186" y="875" type="line"/>
      <point x="77" y="985" type="line"/>
      <point x="35" y="943" type="line"/>
      <point x="171" y="788" type="line"/>
      <point x="200" y="788" type="line"/>
      <point x="336" y="943" type="line"/>
    </contour>
  </outline>
</glyph>
<glyph name="chadeva_viramadeva_vadeva" format="1">
  <advance width="749"/>
  <outline>
    <contour>
      <point x="287" y="720" type="line"/>
      <point x="127" y="720" smooth="yes"/>
      <point x="73" y="672" smooth="yes"/>
      <point x="73" y="605" type="curve" smooth="yes"/>
      <point x="73" y="533" smooth="yes"/>
      <point x="163" y="484" smooth="yes"/>
      <point x="265" y="484" type="curve" smooth="yes"/>
      <point x="309" y="484" type="line"/>
      <point x="309" y="522" type="line"/>
      <point x="264" y="522" type="line" smooth="yes"/>
      <point x="188" y="522" smooth="yes"/>
      <point x="143" y="559" smooth="yes"/>
      <point x="143" y="602" type="curve" smooth="yes"/>
      <point x="143" y="650"/>
      <point x="174" y="680"/>
      <point x="287" y="680" type="curve"/>
    </contour>
    <contour>
      <point x="759" y="730" type="line"/>
      <point x="-10" y="730" type="line"/>
      <point x="-10" y="680" type="line"/>
      <point x="759" y="680" type="line"/>
    </contour>
    <contour>
      <point x="668" y="467" type="curve" smooth="yes"/>
      <point x="668" y="526" smooth="yes"/>
      <point x="633" y="579" smooth="yes"/>
      <point x="525" y="579" type="curve" smooth="yes"/>
      <point x="414" y="579" smooth="yes"/>
      <point x="382" y="526" smooth="yes"/>
      <point x="382" y="467" type="curve" smooth="yes"/>
      <point x="382" y="408"/>
      <point x="395" y="349"/>
      <point x="555" y="329" type="curve"/>
      <point x="577" y="370" type="line"/>
      <point x="454" y="385" smooth="yes"/>
      <point x="446" y="422" smooth="yes"/>
      <point x="446" y="467" type="curve" smooth="yes"/>
      <point x="446" y="506" smooth="yes"/>
      <point x="469" y="534" smooth="yes"/>
      <point x="524" y="534" type="curve" smooth="yes"/>
      <point x="580" y="534" smooth="yes"/>
      <point x="603" y="506" smooth="yes"/>
      <point x="603" y="467" type="curve" smooth="yes"/>
      <point x="603" y="355" smooth="yes"/>
      <point x="444" y="287" smooth="yes"/>
      <point x="286" y="287" type="curve" smooth="yes"/>
      <point x="188" y="287" smooth="yes"/>
      <point x="143" y="320" smooth="yes"/>
      <point x="143" y="374" type="curve" smooth="yes"/>
      <point x="143" y="436" smooth="yes"/>
      <point x="181" y="475" smooth="yes"/>
      <point x="274" y="475" type="curve" smooth="yes"/>
      <point x="309" y="475" type="line"/>
      <point x="309" y="515" type="line"/>
      <point x="263" y="515" type="line" smooth="yes"/>
      <point x="163" y="515" smooth="yes"/>
      <point x="73" y="471" smooth="yes"/>
      <point x="73" y="374" type="curve" smooth="yes"/>
      <point x="73" y="285" smooth="yes"/>
      <point x="148" y="230" smooth="yes"/>
      <point x="286" y="230" type="curve" smooth="yes"/>
      <point x="477" y="230" smooth="yes"/>
      <point x="668" y="329" smooth="yes"/>
    </contour>
    <contour>
      <point x="444" y="-206" type="line"/>
      <point x="514" y="-206" type="line"/>
      <point x="514" y="320" type="line"/>
      <point x="444" y="300" type="line"/>
    </contour>
    <contour>
      <point x="397" y="143" type="line"/>
      <point x="365" y="153" smooth="yes"/>
      <point x="331" y="159" smooth="yes"/>
      <point x="291" y="159" type="curve" smooth="yes"/>
      <point x="170" y="159" smooth="yes"/>
      <point x="115" y="83" smooth="yes"/>
      <point x="115" y="2" type="curve" smooth="yes"/>
      <point x="115" y="-83" smooth="yes"/>
      <point x="172" y="-158" smooth="yes"/>
      <point x="298" y="-158" type="curve" smooth="yes"/>
      <point x="373" y="-158"/>
      <point x="434" y="-138"/>
      <point x="469" y="-114" type="curve"/>
      <point x="469" y="-55" type="line"/>
      <point x="440" y="-81" smooth="yes"/>
      <point x="375" y="-103" smooth="yes"/>
      <point x="307" y="-103" type="curve" smooth="yes"/>
      <point x="227" y="-103" smooth="yes"/>
      <point x="185" y="-56" smooth="yes"/>
      <point x="185" y="2" type="curve" smooth="yes"/>
      <point x="185" y="57" smooth="yes"/>
      <point x="224" y="104" smooth="yes"/>
      <point x="301" y="104" type="curve" smooth="yes"/>
      <point x="330" y="104"/>
      <point x="358" y="100"/>
      <point x="384" y="91" type="curve"/>
    </contour>
    <contour>
      <point x="494" y="558" type="line"/>
      <point x="564" y="558" type="line"/>
      <point x="564" y="680" type="line"/>
      <point x="494" y="680" type="line"/>
    </contour>
  </outline>
</glyph>
<glyph name="commaaccent" format="1">
  <advance width="300"/>
  <outline>
    <contour>
      <point x="107" y="-82" type="curve" smooth="yes" name="hr00"/>
      <point x="107" y="-112" smooth="yes"/>
      <point x="118" y="-132" smooth="yes"/>
      <point x="118" y="-159" type="curve" smooth="yes"/>
      <point x="118" y="-190"/>
      <point x="106" y="-208"/>
      <point x="91" y="-226" type="curve"/>
      <point x="113" y="-249" type="line"/>
      <point x="147" y="-221" smooth="yes"/>
      <point x="194" y="-161" smooth="yes"/>
      <point x="194" y="-87" type="curve" smooth="yes"/>
      <point x="194" y="-62" smooth="yes"/>
      <point x="188" y="-35" smooth="yes"/>
      <point x="150" y="-35" type="curve" smooth="yes"/>
      <point x="113" y="-35" smooth="yes"/>
      <point x="107" y="-62" smooth="yes"/>
    </contour>
  </outline>
</glyph>
<glyph name="dadeva_viramadeva_dadeva" format="1">
  <advance width="621"/>
  <outline>
    <contour>
      <point x="243" y="325" type="line"/>
      <point x="174" y="345" smooth="yes"/>
      <point x="143" y="380" smooth="yes"/>
      <point x="143" y="425" type="curve" smooth="yes"/>
      <point x="143" y="471"/>
      <point x="174" y="506"/>
      <point x="261" y="506" type="curve"/>
      <point x="261" y="566" type="line"/>
      <point x="132" y="566" smooth="yes"/>
      <point x="73" y="504" smooth="yes"/>
      <point x="73" y="422" type="curve" smooth="yes"/>
      <point x="73" y="342"/>
      <point x="122" y="303"/>
      <point x="200" y="277" type="curve"/>
    </contour>
    <contour>
      <point x="495" y="566" type="line"/>
      <point x="495" y="680" type="line"/>
      <point x="631" y="680" type="line"/>
      <point x="631" y="730" type="line"/>
      <point x="-10" y="730" type="line"/>
      <point x="-10" y="680" type="line"/>
      <point x="425" y="680" type="line"/>
      <point x="425" y="566" type="line"/>
    </contour>
    <contour>
      <point x="261" y="506" type="line"/>
      <point x="495" y="506" type="line"/>
      <point x="495" y="566" type="line"/>
      <point x="261" y="566" type="line"/>
    </contour>
    <contour>
      <point x="543" y="136" type="curve" smooth="yes"/>
      <point x="543" y="182" smooth="yes"/>
      <point x="490" y="217" smooth="yes"/>
      <point x="438" y="217" type="curve" smooth="yes"/>
      <point x="408" y="217" smooth="yes"/>
      <point x="393" y="200" smooth="yes"/>
      <point x="393" y="176" type="curve" smooth="yes"/>
      <point x="393" y="155"/>
      <point x="400" y="130"/>
      <point x="419" y="85" type="curve"/>
      <point x="384" y="63" smooth="yes"/>
      <point x="339" y="50" smooth="yes"/>
      <point x="297" y="50" type="curve" smooth="yes"/>
      <point x="217" y="50" smooth="yes"/>
      <point x="171" y="97" smooth="yes"/>
      <point x="171" y="171" type="curve" smooth="yes"/>
      <point x="171" y="240"/>
      <point x="222" y="296"/>
      <point x="359" y="296" type="curve"/>
      <point x="359" y="346" type="line"/>
      <point x="183" y="346" smooth="yes"/>
      <point x="101" y="274" smooth="yes"/>
      <point x="101" y="171" type="curve" smooth="yes"/>
      <point x="101" y="67" smooth="yes"/>
      <point x="161" y="-8" smooth="yes"/>
      <point x="292" y="-8" type="curve" smooth="yes"/>
      <point x="388" y="-8" smooth="yes"/>
      <point x="543" y="43" smooth="yes"/>
    </contour>
    <contour>
      <point x="430" y="63" type="line"/>
      <point x="510" y="-96" type="line"/>
      <point x="572" y="-66" type="line"/>
      <point x="498" y="70" type="line"/>
    </contour>
  </outline>
</glyph>
<glyph name="dadeva_viramadeva_madeva" format="1">
  <advance width="799"/>
  <outline>
    <contour>
      <point x="312" y="354" type="line"/>
      <point x="312" y="190" type="line"/>
      <point x="266" y="190" type="line" smooth="yes"/>
      <point x="244" y="190" smooth="yes"/>
      <point x="238" y="181" smooth="yes"/>
      <point x="238" y="152" type="curve" smooth="yes"/>
      <point x="238" y="97" smooth="yes"/>
      <point x="326" y="46" smooth="yes"/>
      <point x="356" y="46" type="curve" smooth="yes"/>
      <point x="368" y="46" smooth="yes"/>
      <point x="379" y="49" smooth="yes"/>
      <point x="379" y="67" type="curve" smooth="yes"/>
      <point x="379" y="140" type="line"/>
      <point x="614" y="140" type="line"/>
      <point x="614" y="0" type="line"/>
      <point x="684" y="0" type="line"/>
      <point x="684" y="680" type="line"/>
      <point x="809" y="680" type="line"/>
      <point x="809" y="730" type="line"/>
      <point x="379" y="730" type="line"/>
      <point x="379" y="680" type="line"/>
      <point x="614" y="680" type="line"/>
      <point x="614" y="190" type="line"/>
      <point x="379" y="190" type="line"/>
      <point x="379" y="354" type="line"/>
    </contour>
    <contour>
      <point x="123" y="439" type="curve"/>
      <point x="123" y="483" smooth="yes"/>
      <point x="147" y="524" smooth="yes"/>
      <point x="207" y="524" type="curve" smooth="yes"/>
      <point x="379" y="524" type="line"/>
      <point x="379" y="578" type="line"/>
      <point x="191" y="578" type="line" smooth="yes"/>
      <point x="104" y="578" smooth="yes"/>
      <point x="53" y="525" smooth="yes"/>
      <point x="53" y="439" type="curve" smooth="yes"/>
      <point x="53" y="353" smooth="yes"/>
      <point x="104" y="300" smooth="yes"/>
      <point x="191" y="300" type="curve" smooth="yes"/>
      <point x="312" y="300" type="line"/>
      <point x="312" y="354" type="line"/>
      <point x="207" y="354" type="line" smooth="yes"/>
      <point x="147" y="354" smooth="yes"/>
      <point x="123" y="395" smooth="yes"/>
    </contour>
    <contour>
      <point x="379" y="578" type="line"/>
      <point x="379" y="730" type="line"/>
      <point x="-10" y="730" type="line"/>
      <point x="-10" y="680" type="line"/>
      <point x="309" y="680" type="line"/>
      <point x="309" y="578" type="line"/>
    </contour>
  </outline>
</glyph>
<glyph name="ddadeva_viramadeva_ddadeva" format="1">
  <advance width="699"/>
  <outline>
    <contour>
      <point x="71" y="275" type="line"/>
      <point x="110" y="199" smooth="yes"/>
      <point x="201" y="161" smooth="yes"/>
      <point x="367" y="161" type="curve" smooth="yes"/>
      <point x="563" y="161" smooth="yes"/>
      <point x="642" y="221" smooth="yes"/>
      <point x="642" y="306" type="curve" smooth="yes"/>
      <point x="642" y="388" smooth="yes"/>
      <point x="563" y="446" smooth="yes"/>
      <point x="370" y="446" type="curve" smooth="yes"/>
      <point x="318" y="446"/>
      <point x="269" y="439"/>
      <point x="226" y="430" type="curve"/>
      <point x="176" y="440" smooth="yes"/>
      <point x="156" y="461" smooth="yes"/>
      <point x="156" y="486" type="curve" smooth="yes"/>
      <point x="156" y="519"/>
      <point x="186" y="543"/>
      <point x="272" y="543" type="curve"/>
      <point x="272" y="593" type="line"/>
      <point x="145" y="593" smooth="yes"/>
      <point x="86" y="545" smooth="yes"/>
      <point x="86" y="484" type="curve" smooth="yes"/>
      <point x="86" y="416"/>
      <point x="136" y="386"/>
      <point x="214" y="372" type="curve"/>
      <point x="257" y="385" smooth="yes"/>
      <point x="310" y="392" smooth="yes"/>
      <point x="359" y="392" type="curve" smooth="yes"/>
      <point x="496" y="392" smooth="yes"/>
      <point x="573" y="362" smooth="yes"/>
      <point x="573" y="306" type="curve" smooth="yes"/>
      <point x="573" y="247" smooth="yes"/>
      <point x="497" y="218" smooth="yes"/>
      <point x="367" y="218" type="curve" smooth="yes"/>
      <point x="243" y="218"/>
      <point x="165" y="244"/>
      <point x="132" y="295" type="curve"/>
    </contour>
    <contour>
      <point x="565" y="593" type="line"/>
      <point x="565" y="680" type="line"/>
      <point x="711" y="680" type="line"/>
      <point x="711" y="730" type="line"/>
      <point x="-12" y="730" type="line"/>
      <point x="-12" y="680" type="line"/>
      <point x="495" y="680" type="line"/>
      <point x="495" y="593" type="line"/>
    </contour>
    <contour>
      <point x="272" y="543" type="line"/>
      <point x="565" y="543" type="line"/>
      <point x="565" y="593" type="line"/>
      <point x="272" y="593" type="line"/>
    </contour>
    <contour>
      <point x="71" y="-102" type="line"/>
      <point x="110" y="-178" smooth="yes"/>
      <point x="201" y="-216" smooth="yes"/>
      <point x="367" y="-216" type="curve" smooth="yes"/>
      <point x="563" y="-216" smooth="yes"/>
      <point x="642" y="-156" smooth="yes"/>
      <point x="642" y="-71" type="curve" smooth="yes"/>
      <point x="642" y="11" smooth="yes"/>
      <point x="563" y="69" smooth="yes"/>
      <point x="370" y="69" type="curve" smooth="yes"/>
      <point x="318" y="69"/>
      <point x="269" y="62"/>
      <point x="226" y="53" type="curve"/>
      <point x="176" y="63" smooth="yes"/>
      <point x="156" y="84" smooth="yes"/>
      <point x="156" y="109" type="curve" smooth="yes"/>
      <point x="156" y="142"/>
      <point x="186" y="166"/>
      <point x="272" y="166" type="curve"/>
      <point x="272" y="216" type="line"/>
      <point x="145" y="216" smooth="yes"/>
      <point x="86" y="168" smooth="yes"/>
      <point x="86" y="107" type="curve" smooth="yes"/>
      <point x="86" y="39"/>
      <point x="136" y="9"/>
      <point x="214" y="-5" type="curve"/>
      <point x="257" y="8" smooth="yes"/>
      <point x="310" y="15" smooth="yes"/>
      <point x="359" y="15" type="curve" smooth="yes"/>
      <point x="496" y="15" smooth="yes"/>
      <point x="573" y="-15" smooth="yes"/>
      <point x="573" y="-71" type="curve" smooth="yes"/>
      <point x="573" y="-130" smooth="yes"/>
      <point x="497" y="-159" smooth="yes"/>
      <point x="367" y="-159" type="curve" smooth="yes"/>
      <point x="243" y="-159"/>
      <point x="165" y="-133"/>
      <point x="132" y="-82" type="curve"/>
    </contour>
  </outline>
</glyph>
<glyph name="ddhadeva_viramadeva_yadeva" format="1">
  <advance width="1313"/>
  <outline>
    <contour>
      <point x="528" y="455" type="line"/>
      <point x="612" y="495" smooth="yes"/>
      <point x="679" y="515" smooth="yes"/>
      <point x="757" y="515" type="curve" smooth="yes"/>
      <point x="829" y="515" smooth="yes"/>
      <point x="855" y="475" smooth="yes"/>
      <point x="855" y="430" type="curve" smooth="yes"/>
      <point x="855" y="382" smooth="yes"/>
      <point x="829" y="334" smooth="yes"/>
      <point x="727" y="334" type="curve" smooth="yes"/>
      <point x="671" y="334" type="line"/>
      <point x="690" y="286" type="line"/>
      <point x="727" y="286" type="line" smooth="yes"/>
      <point x="860" y="286" smooth="yes"/>
      <point x="925" y="344" smooth="yes"/>
      <point x="925" y="433" type="curve" smooth="yes"/>
      <point x="925" y="494" smooth="yes"/>
      <point x="891" y="572" smooth="yes"/>
      <point x="771" y="572" type="curve" smooth="yes"/>
      <point x="698" y="572"/>
      <point x="628" y="559"/>
      <point x="528" y="509" type="curve"/>
    </contour>
    <contour>
      <point x="924" y="98" type="curve" smooth="yes"/>
      <point x="1030" y="98"/>
      <point x="1108" y="136"/>
      <point x="1163" y="202" type="curve"/>
      <point x="1163" y="265" type="line"/>
      <point x="1119" y="207" smooth="yes"/>
      <point x="1042" y="156" smooth="yes"/>
      <point x="924" y="156" type="curve" smooth="yes"/>
      <point x="797" y="156"/>
      <point x="741" y="223"/>
      <point x="741" y="334" type="curve"/>
      <point x="671" y="334" type="line"/>
      <point x="671" y="186" smooth="yes"/>
      <point x="758" y="98" smooth="yes"/>
    </contour>
    <contour>
      <point x="633" y="680" type="line"/>
      <point x="1323" y="680" type="line"/>
      <point x="1323" y="730" type="line"/>
      <point x="633" y="730" type="line"/>
    </contour>
    <contour>
      <point x="1128" y="0" type="line"/>
      <point x="1198" y="0" type="line"/>
      <point x="1198" y="680" type="line"/>
      <point x="1128" y="680" type="line"/>
    </contour>
    <contour>
      <point x="528" y="680" type="line"/>
      <point x="663" y="680" type="line"/>
      <point x="663" y="730" type="line"/>
      <point x="528" y="730" type="line"/>
    </contour>
    <contour>
      <point x="585" y="225" type="curve" smooth="yes"/>
      <point x="585" y="299" smooth="yes"/>
      <point x="570" y="366" smooth="yes"/>
      <point x="432" y="366" type="curve" smooth="yes"/>
      <point x="294" y="366" smooth="yes"/>
      <point x="280" y="299" smooth="yes"/>
      <point x="280" y="225" type="curve" smooth="yes"/>
      <point x="280" y="146"/>
      <point x="295" y="77"/>
      <point x="424" y="46" type="curve"/>
      <point x="449" y="92" type="line"/>
      <point x="349" y="115" smooth="yes"/>
      <point x="343" y="168" smooth="yes"/>
      <point x="343" y="225" type="curve" smooth="yes"/>
      <point x="343" y="273" smooth="yes"/>
      <point x="347" y="316" smooth="yes"/>
      <point x="431" y="316" type="curve" smooth="yes"/>
      <point x="516" y="316" smooth="yes"/>
      <point x="521" y="273" smooth="yes"/>
      <point x="521" y="225" type="curve" smooth="yes"/>
      <point x="521" y="141" smooth="yes"/>
      <point x="469" y="75" smooth="yes"/>
      <point x="320" y="75" type="curve" smooth="yes"/>
      <point x="183" y="75" smooth="yes"/>
      <point x="126" y="141" smooth="yes"/>
      <point x="126" y="296" type="curve" smooth="yes"/>
      <point x="126" y="419" smooth="yes"/>
      <point x="183" y="455" smooth="yes"/>
      <point x="332" y="455" type="curve" smooth="yes"/>
      <point x="528" y="455" type="line"/>
      <point x="528" y="730" type="line"/>
      <point x="-10" y="730" type="line"/>
      <point x="-10" y="680" type="line"/>
      <point x="459" y="680" type="line"/>
      <point x="459" y="514" type="line"/>
      <point x="331" y="514" type="line" smooth="yes"/>
      <point x="133" y="514" smooth="yes"/>
      <point x="56" y="452" smooth="yes"/>
      <point x="56" y="296" type="curve" smooth="yes"/>
      <point x="56" y="103" smooth="yes"/>
      <point x="139" y="16" smooth="yes"/>
      <point x="320" y="16" type="curve" smooth="yes"/>
      <point x="519" y="16" smooth="yes"/>
      <point x="585" y="110" smooth="yes"/>
    </contour>
  </outline>
</glyph>
<glyph name="dieresis.case" format="1">
  <advance width="308"/>
  <outline>
    <contour>
      <point x="48" y="830" type="curve" smooth="yes" name="hr00"/>
      <point x="7" y="830" smooth="yes"/>
      <point x="5" y="858" smooth="yes"/>
      <point x="5" y="883" type="curve" smooth="yes"/>
      <point x="5" y="909" smooth="yes"/>
      <point x="7" y="937" smooth="yes"/>
      <point x="48" y="937" type="curve" smooth="yes"/>
      <point x="91" y="937" smooth="yes"/>
      <point x="93" y="909" smooth="yes"/>
      <point x="93" y="883" type="curve" smooth="yes"/>
      <point x="93" y="858" smooth="yes"/>
      <point x="91" y="830" smooth="yes"/>
    </contour>
    <contour>
      <point x="258" y="830" type="curve" smooth="yes"/>
      <point x="217" y="830" smooth="yes"/>
      <point x="215" y="858" smooth="yes"/>
      <point x="215" y="883" type="curve" smooth="yes"/>
      <point x="215" y="909" smooth="yes"/>
      <point x="217" y="937" smooth="yes"/>
      <point x="258" y="937" type="curve" smooth="yes"/>
      <point x="301" y="937" smooth="yes"/>
      <point x="303" y="909" smooth="yes"/>
      <point x="303" y="883" type="curve" smooth="yes"/>
      <point x="303" y="858" smooth="yes"/>
      <point x="301" y="830" smooth="yes"/>
    </contour>
  </outline>
</glyph>
<glyph name="eightcombiningdigitdeva" format="1">
  <advance width="0"/>
  <outline>
    <contour>
      <point x="-166" y="794" type="curve" smooth="yes"/>
      <point x="-244" y="794" smooth="yes"/>
      <point x="-263" y="844" smooth="yes"/>
      <point x="-263" y="883" type="curve" smooth="yes"/>
      <point x="-263" y="916" smooth="yes"/>
      <point x="-253" y="944" smooth="yes"/>
      <point x="-225" y="988" type="curve" smooth="yes"/>
      <point x="-129" y="1143" type="line"/>
      <point x="-89" y="1119" type="line"/>
      <point x="-192" y="951" type="line" smooth="yes"/>
      <point x="-207" y="927" smooth="yes"/>
      <point x="-213" y="909" smooth="yes"/>
      <point x="-213" y="889" type="curve" smooth="yes"/>
      <point x="-213" y="866" smooth="yes"/>
      <point x="-205" y="837" smooth="yes"/>
      <point x="-159" y="837" type="curve" smooth="yes"/>
      <point x="-119" y="837"/>
      <point x="-93" y="862"/>
      <point x="-74" y="894" type="curve"/>
      <point x="-38" y="869" type="line"/>
      <point x="-66" y="825" smooth="yes"/>
      <point x="-105" y="794" smooth="yes"/>
    </contour>
  </outline>
</glyph>
<glyph name="fourcombiningdigitdeva" format="1">
  <advance width="0"/>
  <outline>
    <contour>
      <point x="-84" y="1144" type="line"/>
      <point x="-58" y="1125" smooth="yes"/>
      <point x="-33" y="1092" smooth="yes"/>
      <point x="-33" y="1048" type="curve" smooth="yes"/>
      <point x="-33" y="977"/>
      <point x="-80" y="950"/>
      <point x="-138" y="938" type="curve"/>
      <point x="-145" y="964" type="line"/>
      <point x="-112" y="972" smooth="yes"/>
      <point x="-83" y="1000" smooth="yes"/>
      <point x="-83" y="1045" type="curve" smooth="yes"/>
      <point x="-83" y="1079"/>
      <point x="-102" y="1103"/>
      <point x="-120" y="1116" type="curve"/>
    </contour>
    <contour>
      <point x="-182" y="1116" type="line"/>
      <point x="-200" y="1103" smooth="yes"/>
      <point x="-217" y="1079" smooth="yes"/>
      <point x="-217" y="1044" type="curve" smooth="yes"/>
      <point x="-217" y="1000" smooth="yes"/>
      <point x="-195" y="976" smooth="yes"/>
      <point x="-161" y="971" type="curve" smooth="yes"/>
      <point x="-129" y="966" type="line" smooth="yes"/>
      <point x="-68" y="956" smooth="yes"/>
      <point x="-43" y="923" smooth="yes"/>
      <point x="-43" y="878" type="curve" smooth="yes"/>
      <point x="-43" y="836" smooth="yes"/>
      <point x="-76" y="794" smooth="yes"/>
      <point x="-150" y="794" type="curve" smooth="yes"/>
      <point x="-225" y="794" smooth="yes"/>
      <point x="-258" y="836" smooth="yes"/>
      <point x="-258" y="878" type="curve" smooth="yes"/>
      <point x="-258" y="922"/>
      <point x="-224" y="954"/>
      <point x="-166" y="963" type="curve"/>
      <point x="-163" y="937" type="line"/>
      <point x="-194" y="932" smooth="yes"/>
      <point x="-208" y="906" smooth="yes"/>
      <point x="-208" y="879" type="curve" smooth="yes"/>
      <point x="-208" y="855" smooth="yes"/>
      <point x="-194" y="832" smooth="yes"/>
      <point x="-151" y="832" type="curve" smooth="yes"/>
      <point x="-107" y="832" smooth="yes"/>
      <point x="-92" y="855" smooth="yes"/>
      <point x="-92" y="879" type="curve" smooth="yes"/>
      <point x="-92" y="904" smooth="yes"/>
      <point x="-102" y="927" smooth="yes"/>
      <point x="-135" y="932" type="curve" smooth="yes"/>
      <point x="-168" y="937" type="line" smooth="yes"/>
      <point x="-229" y="946" smooth="yes"/>
      <point x="-267" y="977" smooth="yes"/>
      <point x="-267" y="1048" type="curve" smooth="yes"/>
      <point x="-267" y="1091"/>
      <point x="-244" y="1125"/>
      <point x="-218" y="1144" type="curve"/>
    </contour>
  </outline>
</glyph>
<glyph name="ghadeva_viramadeva_radeva" format="1">
  <advance width="679"/>
  <outline>
    <contour>
      <point x="390" y="183" type="line"/>
      <point x="70" y="25" type="line"/>
      <point x="101" y="-34" type="line"/>
      <point x="390" y="125" type="line"/>
    </contour>
    <component  base="ghadeva"/>
  </outline>
</glyph>
<glyph name="grave.case" format="1">
  <advance width="314"/>
  <outline>
    <contour>
      <point x="222" y="782" type="line" name="hr00"/>
      <point x="50" y="932" type="line"/>
      <point x="103" y="985" type="line"/>
      <point x="264" y="824" type="line"/>
    </contour>
  </outline>
</glyph>
<glyph name="hadeva_rvocalicdeva" format="1">
  <advance width="610"/>
  <outline>
    <contour>
      <point x="218" y="341" type="line"/>
      <point x="166" y="360" smooth="yes"/>
      <point x="143" y="393" smooth="yes"/>
      <point x="143" y="435" type="curve" smooth="yes"/>
      <point x="143" y="481"/>
      <point x="174" y="516"/>
      <point x="261" y="516" type="curve"/>
      <point x="261" y="576" type="line"/>
      <point x="132" y="576" smooth="yes"/>
      <point x="73" y="514" smooth="yes"/>
      <point x="73" y="432" type="curve" smooth="yes"/>
      <point x="73" y="355"/>
      <point x="112" y="318"/>
      <point x="175" y="293" type="curve"/>
    </contour>
    <contour>
      <point x="495" y="576" type="line"/>
      <point x="495" y="680" type="line"/>
      <point x="620" y="680" type="line"/>
      <point x="620" y="730" type="line"/>
      <point x="-10" y="730" type="line"/>
      <point x="-10" y="680" type="line"/>
      <point x="425" y="680" type="line"/>
      <point x="425" y="576" type="line"/>
    </contour>
    <contour>
      <point x="261" y="516" type="line"/>
      <point x="495" y="516" type="line"/>
      <point x="495" y="576" type="line"/>
      <point x="261" y="576" type="line"/>
    </contour>
    <contour>
      <point x="231" y="98" type="curve" smooth="yes"/>
      <point x="231" y="32" smooth="yes"/>
      <point x="274" y="-24" smooth="yes"/>
      <point x="387" y="-24" type="curve" smooth="yes"/>
      <point x="439" y="-24"/>
      <point x="485" y="-10"/>
      <point x="521" y="12" type="curve"/>
      <point x="504" y="59" type="line"/>
      <point x="474" y="42" smooth="yes"/>
      <point x="438" y="30" smooth="yes"/>
      <point x="398" y="30" type="curve" smooth="yes"/>
      <point x="332" y="30" smooth="yes"/>
      <point x="301" y="61" smooth="yes"/>
      <point x="301" y="103" type="curve" smooth="yes"/>
      <point x="301" y="211" smooth="yes"/>
      <point x="534" y="171" smooth="yes"/>
      <point x="534" y="297" type="curve" smooth="yes"/>
      <point x="534" y="359"/>
      <point x="481" y="409"/>
      <point x="370" y="409" type="curve"/>
      <point x="370" y="355" type="line"/>
      <point x="428" y="355" smooth="yes"/>
      <point x="464" y="329" smooth="yes"/>
      <point x="464" y="297" type="curve" smooth="yes"/>
      <point x="464" y="213" smooth="yes"/>
      <point x="231" y="252" smooth="yes"/>
    </contour>
    <contour>
      <point x="370" y="409" type="line"/>
      <point x="184" y="409" smooth="yes"/>
      <point x="73" y="306" smooth="yes"/>
      <point x="73" y="136" type="curve" smooth="yes"/>
      <point x="73" y="-23"/>
      <point x="163" y="-118"/>
      <point x="334" y="-176" type="curve"/>
      <point x="360" y="-118" type="line"/>
      <point x="215" y="-70" smooth="yes"/>
      <point x="143" y="9" smooth="yes"/>
      <point x="143" y="132" type="curve" smooth="yes"/>
      <point x="143" y="274"/>
      <point x="220" y="355"/>
      <point x="370" y="355" type="curve"/>
    </contour>
  </outline>
</glyph>
<glyph name="hadeva_viramadeva_vadeva" format="1">
  <advance width="676"/>
  <outline>
    <contour>
      <point x="467" y="242" type="line"/>
      <point x="443" y="251" smooth="yes"/>
      <point x="416" y="255" smooth="yes"/>
      <point x="386" y="255" type="curve" smooth="yes"/>
      <point x="273" y="255" smooth="yes"/>
      <point x="231" y="197" smooth="yes"/>
      <point x="231" y="125" type="curve" smooth="yes"/>
      <point x="231" y="48" smooth="yes"/>
      <point x="274" y="-14" smooth="yes"/>
      <point x="387" y="-14" type="curve" smooth="yes"/>
      <point x="465" y="-14"/>
      <point x="529" y="16"/>
      <point x="566" y="59" type="curve"/>
      <point x="566" y="125" type="line"/>
      <point x="537" y="82" smooth="yes"/>
      <point x="474" y="40" smooth="yes"/>
      <point x="398" y="40" type="curve" smooth="yes"/>
      <point x="332" y="40" smooth="yes"/>
      <point x="301" y="76" smooth="yes"/>
      <point x="301" y="125" type="curve" smooth="yes"/>
      <point x="301" y="167" smooth="yes"/>
      <point x="332" y="201" smooth="yes"/>
      <point x="399" y="201" type="curve" smooth="yes"/>
      <point x="419" y="201"/>
      <point x="438" y="198"/>
      <point x="456" y="192" type="curve"/>
    </contour>
    <contour>
      <point x="636" y="206" type="line" smooth="yes"/>
      <point x="636" y="326" smooth="yes"/>
      <point x="532" y="397" smooth="yes"/>
      <point x="374" y="397" type="curve" smooth="yes"/>
      <point x="192" y="397" smooth="yes"/>
      <point x="73" y="306" smooth="yes"/>
      <point x="73" y="136" type="curve" smooth="yes"/>
      <point x="73" y="-23"/>
      <point x="163" y="-108"/>
      <point x="334" y="-176" type="curve"/>
      <point x="360" y="-118" type="line"/>
      <point x="215" y="-60" smooth="yes"/>
      <point x="143" y="7" smooth="yes"/>
      <point x="143" y="146" type="curve" smooth="yes"/>
      <point x="143" y="266" smooth="yes"/>
      <point x="228" y="343" smooth="yes"/>
      <point x="374" y="343" type="curve" smooth="yes"/>
      <point x="489" y="343" smooth="yes"/>
      <point x="566" y="288" smooth="yes"/>
      <point x="566" y="212" type="curve" smooth="yes"/>
      <point x="566" y="0" type="line"/>
      <point x="636" y="0" type="line"/>
    </contour>
    <contour>
      <point x="218" y="331" type="line"/>
      <point x="166" y="350" smooth="yes"/>
      <point x="143" y="383" smooth="yes"/>
      <point x="143" y="425" type="curve" smooth="yes"/>
      <point x="143" y="471"/>
      <point x="174" y="506"/>
      <point x="261" y="506" type="curve"/>
      <point x="261" y="566" type="line"/>
      <point x="132" y="566" smooth="yes"/>
      <point x="73" y="504" smooth="yes"/>
      <point x="73" y="422" type="curve" smooth="yes"/>
      <point x="73" y="345"/>
      <point x="112" y="308"/>
      <point x="175" y="283" type="curve"/>
    </contour>
    <contour>
      <point x="495" y="566" type="line"/>
      <point x="495" y="680" type="line"/>
      <point x="686" y="680" type="line"/>
      <point x="686" y="730" type="line"/>
      <point x="-10" y="730" type="line"/>
      <point x="-10" y="680" type="line"/>
      <point x="425" y="680" type="line"/>
      <point x="425" y="566" type="line"/>
    </contour>
    <contour>
      <point x="261" y="506" type="line"/>
      <point x="495" y="506" type="line"/>
      <point x="495" y="566" type="line"/>
      <point x="261" y="566" type="line"/>
    </contour>
  </outline>
</glyph>
<glyph name="hadeva_viramadeva" format="1">
  <advance width="621"/>
  <outline>
    <contour>
      <point x="218" y="331" type="line"/>
      <point x="166" y="350" smooth="yes"/>
      <point x="143" y="383" smooth="yes"/>
      <point x="143" y="425" type="curve" smooth="yes"/>
      <point x="143" y="471"/>
      <point x="174" y="506"/>
      <point x="261" y="506" type="curve"/>
      <point x="261" y="566" type="line"/>
      <point x="132" y="566" smooth="yes"/>
      <point x="73" y="504" smooth="yes"/>
      <point x="73" y="422" type="curve" smooth="yes"/>
      <point x="73" y="345"/>
      <point x="112" y="308"/>
      <point x="175" y="283" type="curve"/>
    </contour>
    <contour>
      <point x="495" y="566" type="line"/>
      <point x="495" y="680" type="line"/>
      <point x="631" y="680" type="line"/>
      <point x="631" y="730" type="line"/>
      <point x="-10" y="730" type="line"/>
      <point x="-10" y="680" type="line"/>
      <point x="425" y="680" type="line"/>
      <point x="425" y="566" type="line"/>
    </contour>
    <contour>
      <point x="261" y="506" type="line"/>
      <point x="495" y="506" type="line"/>
      <point x="495" y="566" type="line"/>
      <point x="261" y="566" type="line"/>
    </contour>
    <contour>
      <point x="611" y="341" type="line"/>
      <point x="280" y="341" type="line" smooth="yes"/>
      <point x="122" y="341" smooth="yes"/>
      <point x="73" y="281" smooth="yes"/>
      <point x="73" y="164" type="curve" smooth="yes"/>
      <point x="73" y="31"/>
      <point x="168" y="-61"/>
      <point x="347" y="-144" type="curve"/>
      <point x="373" y="-87" type="line"/>
      <point x="219" y="-14" smooth="yes"/>
      <point x="143" y="61" smooth="yes"/>
      <point x="143" y="171" type="curve" smooth="yes"/>
      <point x="143" y="245" smooth="yes"/>
      <point x="172" y="291" smooth="yes"/>
      <point x="280" y="291" type="curve" smooth="yes"/>
      <point x="611" y="291" type="line"/>
    </contour>
  </outline>
</glyph>
<glyph name="hungarumlaut.case" format="1">
  <advance width="547"/>
  <outline>
    <contour>
      <point x="92" y="782" type="line" name="hr00"/>
      <point x="264" y="932" type="line"/>
      <point x="211" y="985" type="line"/>
      <point x="50" y="824" type="line"/>
    </contour>
    <contour>
      <point x="325" y="782" type="line"/>
      <point x="497" y="932" type="line"/>
      <point x="444" y="985" type="line"/>
      <point x="283" y="824" type="line"/>
    </contour>
  </outline>
</glyph>
<glyph name="iisigndeva_anusvaradeva" format="1">
  <advance width="300"/>
  <outline>
    <contour>
      <point x="223" y="922" type="curve" smooth="yes"/>
      <point x="260" y="922" smooth="yes"/>
      <point x="276" y="937" smooth="yes"/>
      <point x="276" y="973" type="curve" smooth="yes"/>
      <point x="276" y="1010" smooth="yes"/>
      <point x="261" y="1025" smooth="yes"/>
      <point x="223" y="1025" type="curve" smooth="yes"/>
      <point x="187" y="1025" smooth="yes"/>
      <point x="172" y="1010" smooth="yes"/>
      <point x="172" y="973" type="curve" smooth="yes"/>
      <point x="172" y="937" smooth="yes"/>
      <point x="187" y="922" smooth="yes"/>
    </contour>
    <component  base="iisigndeva"/>
  </outline>
</glyph>
<glyph name="isigndeva.tha" format="1">
  <advance width="300"/>
  <outline>
    <contour>
      <point x="885" y="730" type="line"/>
      <point x="819" y="858" smooth="yes"/>
      <point x="632" y="1070" smooth="yes"/>
      <point x="329" y="1070" type="curve" smooth="yes"/>
      <point x="123" y="1070" smooth="yes"/>
      <point x="59" y="974" smooth="yes"/>
      <point x="59" y="875" type="curve" smooth="yes"/>
      <point x="59" y="820"/>
      <point x="78" y="770"/>
      <point x="110" y="730" type="curve"/>
      <point x="179" y="730" type="line"/>
      <point x="152" y="761" smooth="yes"/>
      <point x="129" y="819" smooth="yes"/>
      <point x="129" y="869" type="curve" smooth="yes"/>
      <point x="129" y="943" smooth="yes"/>
      <point x="179" y="1010" smooth="yes"/>
      <point x="329" y="1010" type="curve" smooth="yes"/>
      <point x="595" y="1010"/>
      <point x="743" y="824"/>
      <point x="812" y="730" type="curve"/>
    </contour>
    <contour>
      <point x="115" y="680" type="line"/>
      <point x="115" y="0" type="line"/>
      <point x="185" y="0" type="line"/>
      <point x="185" y="680" type="line"/>
      <point x="310" y="680" type="line"/>
      <point x="310" y="730" type="line"/>
      <point x="-10" y="730" type="line"/>
      <point x="-10" y="680" type="line"/>
    </contour>
  </outline>
</glyph>
<glyph name="kadeva_viramadeva_tadeva" format="1">
  <advance width="956"/>
  <outline>
    <contour>
      <point x="495" y="0" type="line"/>
      <point x="565" y="0" type="line"/>
      <point x="565" y="680" type="line"/>
      <point x="495" y="680" type="line"/>
    </contour>
    <contour>
      <point x="-10" y="680" type="line"/>
      <point x="966" y="680" type="line"/>
      <point x="966" y="730" type="line"/>
      <point x="-10" y="730" type="line"/>
    </contour>
    <contour>
      <point x="495" y="479" type="line"/>
      <point x="275" y="479" type="line" smooth="yes"/>
      <point x="137" y="479" smooth="yes"/>
      <point x="88" y="455" smooth="yes"/>
      <point x="88" y="337" type="curve" smooth="yes"/>
      <point x="88" y="178"/>
      <point x="183" y="73"/>
      <point x="362" y="-14" type="curve"/>
      <point x="388" y="43" type="line"/>
      <point x="234" y="120" smooth="yes"/>
      <point x="158" y="208" smooth="yes"/>
      <point x="158" y="344" type="curve" smooth="yes"/>
      <point x="158" y="422" smooth="yes"/>
      <point x="187" y="454" smooth="yes"/>
      <point x="275" y="454" type="curve" smooth="yes"/>
      <point x="495" y="454" type="line"/>
    </contour>
    <contour>
      <point x="10" y="454" type="line"/>
      <point x="495" y="454" type="line"/>
      <point x="495" y="514" type="line"/>
      <point x="10" y="514" type="line"/>
    </contour>
    <contour>
      <point x="910" y="367" type="curve" smooth="yes"/>
      <point x="910" y="482" smooth="yes"/>
      <point x="888" y="572" smooth="yes"/>
      <point x="726" y="572" type="curve" smooth="yes"/>
      <point x="593" y="572"/>
      <point x="530" y="483"/>
      <point x="529" y="372" type="curve"/>
      <point x="564" y="372" type="line"/>
      <point x="564" y="463" smooth="yes"/>
      <point x="613" y="513" smooth="yes"/>
      <point x="710" y="513" type="curve" smooth="yes"/>
      <point x="831" y="513" smooth="yes"/>
      <point x="840" y="453" smooth="yes"/>
      <point x="840" y="367" type="curve" smooth="yes"/>
      <point x="840" y="299"/>
      <point x="819" y="218"/>
      <point x="775" y="163" type="curve"/>
      <point x="834" y="133" type="line"/>
      <point x="884" y="199" smooth="yes"/>
      <point x="910" y="288" smooth="yes"/>
    </contour>
  </outline>
</glyph>
<glyph name="lladeva_viramadeva" format="1">
  <advance width="721"/>
  <outline>
    <contour>
      <point x="368" y="260" type="line" smooth="yes"/>
      <point x="356" y="186" smooth="yes"/>
      <point x="321" y="167" smooth="yes"/>
      <point x="245" y="167" type="curve" smooth="yes"/>
      <point x="164" y="167" smooth="yes"/>
      <point x="110" y="195" smooth="yes"/>
      <point x="110" y="304" type="curve" smooth="yes"/>
      <point x="110" y="414" smooth="yes"/>
      <point x="164" y="443" smooth="yes"/>
      <point x="245" y="443" type="curve" smooth="yes"/>
      <point x="325" y="443"/>
      <point x="371" y="397"/>
      <point x="385" y="293" type="curve"/>
      <point x="417" y="334" type="line"/>
      <point x="399" y="449" smooth="yes"/>
      <point x="352" y="501" smooth="yes"/>
      <point x="246" y="501" type="curve" smooth="yes"/>
      <point x="128" y="501" smooth="yes"/>
      <point x="40" y="461" smooth="yes"/>
      <point x="40" y="305" type="curve" smooth="yes"/>
      <point x="40" y="149" smooth="yes"/>
      <point x="118" y="109" smooth="yes"/>
      <point x="240" y="109" type="curve" smooth="yes"/>
      <point x="366" y="109" smooth="yes"/>
      <point x="401" y="154" smooth="yes"/>
      <point x="419" y="271" type="curve" smooth="yes"/>
      <point x="429" y="340" type="line" smooth="yes"/>
      <point x="441" y="422" smooth="yes"/>
      <point x="479" y="443" smooth="yes"/>
      <point x="555" y="443" type="curve" smooth="yes"/>
      <point x="636" y="443" smooth="yes"/>
      <point x="690" y="414" smooth="yes"/>
      <point x="690" y="304" type="curve" smooth="yes"/>
      <point x="690" y="195" smooth="yes"/>
      <point x="636" y="167" smooth="yes"/>
      <point x="555" y="167" type="curve" smooth="yes"/>
      <point x="476" y="167"/>
      <point x="430" y="210"/>
      <point x="416" y="311" type="curve"/>
      <point x="382" y="276" type="line"/>
      <point x="402" y="161" smooth="yes"/>
      <point x="447" y="109" smooth="yes"/>
      <point x="554" y="109" type="curve" smooth="yes"/>
      <point x="672" y="109" smooth="yes"/>
      <point x="760" y="149" smooth="yes"/>
      <point x="760" y="305" type="curve" smooth="yes"/>
      <point x="760" y="461" smooth="yes"/>
      <point x="682" y="501" smooth="yes"/>
      <point x="560" y="501" type="curve" smooth="yes"/>
      <point x="435" y="501"/>
      <point x="402" y="457"/>
      <point x="381" y="339" type="curve"/>
    </contour>
    <contour>
      <point x="-10" y="680" type="line"/>
      <point x="731" y="680" type="line"/>
      <point x="731" y="730" type="line"/>
      <point x="-10" y="730" type="line"/>
    </contour>
  </outline>
</glyph>
<glyph name="macron.case" format="1">
  <advance width="354"/>
  <outline>
    <contour>
      <point x="50" y="852" type="line" name="hr00"/>
      <point x="304" y="852" type="line"/>
      <point x="304" y="917" type="line"/>
      <point x="50" y="917" type="line"/>
    </contour>
  </outline>
</glyph>
<glyph name="shadeva_viramadeva.mr" format="1">
  <advance width="470"/>
  <outline>
    <contour>
      <point x="175" y="150" type="line"/>
      <point x="187" y="148" smooth="yes"/>
      <point x="200" y="148" smooth="yes"/>
      <point x="212" y="148" type="curve" smooth="yes"/>
      <point x="351" y="148" smooth="yes"/>
      <point x="433" y="230" smooth="yes"/>
      <point x="433" y="346" type="curve" smooth="yes"/>
      <point x="433" y="457" smooth="yes"/>
      <point x="371" y="535" smooth="yes"/>
      <point x="218" y="535" type="curve" smooth="yes"/>
      <point x="161" y="535"/>
      <point x="107" y="518"/>
      <point x="60" y="488" type="curve"/>
      <point x="91" y="437" type="line"/>
      <point x="127" y="460" smooth="yes"/>
      <point x="172" y="474" smooth="yes"/>
      <point x="213" y="474" type="curve" smooth="yes"/>
      <point x="311" y="474" smooth="yes"/>
      <point x="363" y="433" smooth="yes"/>
      <point x="363" y="346" type="curve" smooth="yes"/>
      <point x="363" y="254" smooth="yes"/>
      <point x="292" y="207" smooth="yes"/>
      <point x="205" y="207" type="curve" smooth="yes"/>
      <point x="187" y="207"/>
      <point x="171" y="207"/>
      <point x="156" y="211" type="curve"/>
    </contour>
    <contour>
      <point x="356" y="38" type="line"/>
      <point x="232" y="114"/>
      <point x="171" y="208"/>
      <point x="161" y="317" type="curve"/>
      <point x="46" y="340"/>
      <point x="35" y="187"/>
      <point x="148" y="153" type="curve"/>
      <point x="186" y="96"/>
      <point x="242" y="40"/>
      <point x="321" y="-10" type="curve"/>
    </contour>
    <contour>
      <point x="-10" y="680" type="line"/>
      <point x="480" y="680" type="line"/>
      <point x="480" y="730" type="line"/>
      <point x="-10" y="730" type="line"/>
    </contour>
    <contour>
      <point x="200" y="501" type="line"/>
      <point x="270" y="501" type="line"/>
      <point x="270" y="680" type="line"/>
      <point x="200" y="680" type="line"/>
    </contour>
  </outline>
</glyph>
<glyph name="nadeva_viramadeva_nadeva" format="1">
  <advance width="680"/>
  <outline>
    <contour>
      <point x="495" y="680" type="line"/>
      <point x="495" y="0" type="line"/>
      <point x="565" y="0" type="line"/>
      <point x="565" y="680" type="line"/>
      <point x="690" y="680" type="line"/>
      <point x="690" y="730" type="line"/>
      <point x="-10" y="730" type="line"/>
      <point x="-10" y="680" type="line"/>
    </contour>
    <contour>
      <point x="495" y="324" type="line"/>
      <point x="112" y="155" type="line" smooth="yes"/>
      <point x="93" y="146" smooth="yes"/>
      <point x="87" y="138" smooth="yes"/>
      <point x="87" y="124" type="curve" smooth="yes"/>
      <point x="87" y="71" smooth="yes"/>
      <point x="159" y="51" smooth="yes"/>
      <point x="204" y="51" type="curve" smooth="yes"/>
      <point x="222" y="51" smooth="yes"/>
      <point x="271" y="54" smooth="yes"/>
      <point x="256" y="87" type="curve" smooth="yes"/>
      <point x="226" y="153" type="line"/>
      <point x="495" y="269" type="line"/>
    </contour>
    <contour>
      <point x="171" y="520" type="line"/>
      <point x="280" y="505"/>
      <point x="397" y="432"/>
      <point x="500" y="290" type="curve"/>
      <point x="534" y="325" type="line"/>
      <point x="418" y="488" smooth="yes"/>
      <point x="267" y="572" smooth="yes"/>
      <point x="119" y="572" type="curve" smooth="yes"/>
      <point x="56" y="572" smooth="yes"/>
      <point x="30" y="554" smooth="yes"/>
      <point x="30" y="519" type="curve" smooth="yes"/>
      <point x="30" y="450" smooth="yes"/>
      <point x="116" y="422" smooth="yes"/>
      <point x="148" y="422" type="curve" smooth="yes"/>
      <point x="160" y="422" smooth="yes"/>
      <point x="171" y="427" smooth="yes"/>
      <point x="171" y="443" type="curve" smooth="yes"/>
    </contour>
  </outline>
</glyph>
<glyph name="nga_virama_ka_viramadeva" format="1">
  <advance width="833"/>
  <outline>
    <contour>
      <point x="359" y="-160" type="line"/>
      <point x="419" y="-160" type="line"/>
      <point x="419" y="161" type="line"/>
      <point x="359" y="161" type="line"/>
    </contour>
    <contour>
      <point x="64" y="254" type="line"/>
      <point x="104" y="167" smooth="yes"/>
      <point x="198" y="123" smooth="yes"/>
      <point x="369" y="123" type="curve" smooth="yes"/>
      <point x="565" y="123" smooth="yes"/>
      <point x="644" y="186" smooth="yes"/>
      <point x="644" y="275" type="curve" smooth="yes"/>
      <point x="644" y="359" smooth="yes"/>
      <point x="565" y="418" smooth="yes"/>
      <point x="370" y="418" type="curve" smooth="yes"/>
      <point x="320" y="418"/>
      <point x="271" y="412"/>
      <point x="229" y="404" type="curve"/>
      <point x="179" y="416" smooth="yes"/>
      <point x="158" y="438" smooth="yes"/>
      <point x="158" y="466" type="curve" smooth="yes"/>
      <point x="158" y="500"/>
      <point x="195" y="526"/>
      <point x="301" y="526" type="curve"/>
      <point x="301" y="586" type="line"/>
      <point x="156" y="586" smooth="yes"/>
      <point x="88" y="532" smooth="yes"/>
      <point x="88" y="463" type="curve" smooth="yes"/>
      <point x="88" y="393"/>
      <point x="136" y="365"/>
      <point x="209" y="345" type="curve"/>
      <point x="254" y="357" smooth="yes"/>
      <point x="309" y="364" smooth="yes"/>
      <point x="360" y="364" type="curve" smooth="yes"/>
      <point x="498" y="364" smooth="yes"/>
      <point x="575" y="333" smooth="yes"/>
      <point x="575" y="275" type="curve" smooth="yes"/>
      <point x="575" y="212" smooth="yes"/>
      <point x="499" y="180" smooth="yes"/>
      <point x="369" y="180" type="curve" smooth="yes"/>
      <point x="240" y="180"/>
      <point x="159" y="211"/>
      <point x="125" y="274" type="curve"/>
    </contour>
    <contour>
      <point x="567" y="586" type="line"/>
      <point x="567" y="680" type="line"/>
      <point x="843" y="680" type="line"/>
      <point x="843" y="730" type="line"/>
      <point x="-10" y="730" type="line"/>
      <point x="-10" y="680" type="line"/>
      <point x="497" y="680" type="line"/>
      <point x="497" y="586" type="line"/>
    </contour>
    <contour>
      <point x="301" y="526" type="line"/>
      <point x="567" y="526" type="line"/>
      <point x="567" y="586" type="line"/>
      <point x="301" y="586" type="line"/>
    </contour>
    <contour>
      <point x="737" y="375" type="curve" smooth="yes"/>
      <point x="777" y="375" smooth="yes"/>
      <point x="794" y="390" smooth="yes"/>
      <point x="794" y="426" type="curve" smooth="yes"/>
      <point x="794" y="463" smooth="yes"/>
      <point x="778" y="478" smooth="yes"/>
      <point x="737" y="478" type="curve" smooth="yes"/>
      <point x="699" y="478" smooth="yes"/>
      <point x="683" y="463" smooth="yes"/>
      <point x="683" y="426" type="curve" smooth="yes"/>
      <point x="683" y="390" smooth="yes"/>
      <point x="699" y="375" smooth="yes"/>
    </contour>
    <contour>
      <point x="312" y="64" type="line"/>
      <point x="289" y="73" smooth="yes"/>
      <point x="262" y="77" smooth="yes"/>
      <point x="230" y="77" type="curve" smooth="yes"/>
      <point x="152" y="77" smooth="yes"/>
      <point x="113" y="30" smooth="yes"/>
      <point x="113" y="-26" type="curve" smooth="yes"/>
      <point x="113" y="-87" smooth="yes"/>
      <point x="153" y="-129" smooth="yes"/>
      <point x="239" y="-129" type="curve" smooth="yes"/>
      <point x="304" y="-129"/>
      <point x="351" y="-99"/>
      <point x="371" y="-70" type="curve"/>
      <point x="371" y="-12" type="line"/>
      <point x="338" y="-59" smooth="yes"/>
      <point x="301" y="-79" smooth="yes"/>
      <point x="253" y="-79" type="curve" smooth="yes"/>
      <point x="204" y="-79" smooth="yes"/>
      <point x="183" y="-57" smooth="yes"/>
      <point x="183" y="-26" type="curve" smooth="yes"/>
      <point x="183" y="2" smooth="yes"/>
      <point x="200" y="27" smooth="yes"/>
      <point x="245" y="27" type="curve" smooth="yes"/>
      <point x="271" y="27"/>
      <point x="286" y="23"/>
      <point x="301" y="16" type="curve"/>
    </contour>
    <contour>
      <point x="577" y="71" type="line"/>
      <point x="564" y="75" smooth="yes"/>
      <point x="549" y="77" smooth="yes"/>
      <point x="533" y="77" type="curve" smooth="yes"/>
      <point x="468" y="77"/>
      <point x="420" y="36"/>
      <point x="399" y="7" type="curve"/>
      <point x="399" y="-51" type="line"/>
      <point x="433" y="-4" smooth="yes"/>
      <point x="470" y="27" smooth="yes"/>
      <point x="519" y="27" type="curve" smooth="yes"/>
      <point x="536" y="27"/>
      <point x="554" y="23"/>
      <point x="563" y="17" type="curve"/>
    </contour>
  </outline>
</glyph>
<glyph name="ninecombiningdigitdeva" format="1">
  <advance width="0"/>
  <outline>
    <contour>
      <point x="-153" y="967" type="curve" smooth="yes"/>
      <point x="-81" y="967" smooth="yes"/>
      <point x="-54" y="1012" smooth="yes"/>
      <point x="-54" y="1058" type="curve" smooth="yes"/>
      <point x="-54" y="1104" smooth="yes"/>
      <point x="-81" y="1149" smooth="yes"/>
      <point x="-153" y="1149" type="curve" smooth="yes"/>
      <point x="-226" y="1149" smooth="yes"/>
      <point x="-252" y="1104" smooth="yes"/>
      <point x="-252" y="1058" type="curve" smooth="yes"/>
      <point x="-252" y="1012" smooth="yes"/>
      <point x="-226" y="967" smooth="yes"/>
    </contour>
    <contour>
      <point x="-153" y="1002" type="curve" smooth="yes"/>
      <point x="-187" y="1002" smooth="yes"/>
      <point x="-204" y="1022" smooth="yes"/>
      <point x="-204" y="1058" type="curve" smooth="yes"/>
      <point x="-204" y="1093" smooth="yes"/>
      <point x="-187" y="1114" smooth="yes"/>
      <point x="-153" y="1114" type="curve" smooth="yes"/>
      <point x="-120" y="1114" smooth="yes"/>
      <point x="-102" y="1093" smooth="yes"/>
      <point x="-102" y="1058" type="curve" smooth="yes"/>
      <point x="-102" y="1022" smooth="yes"/>
      <point x="-120" y="1002" smooth="yes"/>
    </contour>
    <contour>
      <point x="-106" y="768" type="line"/>
      <point x="-82" y="786" type="line" smooth="yes"/>
      <point x="-59" y="803" smooth="yes"/>
      <point x="-52" y="819" smooth="yes"/>
      <point x="-52" y="835" type="curve" smooth="yes"/>
      <point x="-52" y="851" smooth="yes"/>
      <point x="-61" y="867" smooth="yes"/>
      <point x="-75" y="883" type="curve" smooth="yes"/>
      <point x="-161" y="987" type="line"/>
      <point x="-234" y="1000" type="line"/>
      <point x="-117" y="858" type="line" smooth="yes"/>
      <point x="-108" y="847" smooth="yes"/>
      <point x="-103" y="839" smooth="yes"/>
      <point x="-103" y="830" type="curve" smooth="yes"/>
      <point x="-103" y="823" smooth="yes"/>
      <point x="-107" y="816" smooth="yes"/>
      <point x="-116" y="807" type="curve" smooth="yes"/>
      <point x="-129" y="796" type="line"/>
    </contour>
  </outline>
</glyph>
<glyph name="phadeva_viramadeva_ladeva" format="1">
  <advance width="890"/>
  <outline>
    <contour>
      <point x="555" y="-185" type="line"/>
      <point x="602" y="-162" smooth="yes"/>
      <point x="688" y="-121" smooth="yes"/>
      <point x="688" y="-26" type="curve" smooth="yes"/>
      <point x="688" y="62" smooth="yes"/>
      <point x="635" y="98" smooth="yes"/>
      <point x="566" y="98" type="curve" smooth="yes"/>
      <point x="470" y="98"/>
      <point x="425" y="38"/>
      <point x="425" y="-54" type="curve"/>
      <point x="478" y="-60" type="line"/>
      <point x="478" y="11" smooth="yes"/>
      <point x="503" y="54" smooth="yes"/>
      <point x="566" y="54" type="curve" smooth="yes"/>
      <point x="605" y="54" smooth="yes"/>
      <point x="634" y="31" smooth="yes"/>
      <point x="634" y="-22" type="curve" smooth="yes"/>
      <point x="634" y="-84"/>
      <point x="573" y="-119"/>
      <point x="526" y="-141" type="curve"/>
    </contour>
    <contour>
      <point x="-10" y="680" type="line"/>
      <point x="900" y="680" type="line"/>
      <point x="900" y="730" type="line"/>
      <point x="-10" y="730" type="line"/>
    </contour>
    <contour>
      <point x="430" y="46" type="line"/>
      <point x="500" y="46" type="line"/>
      <point x="500" y="680" type="line"/>
      <point x="430" y="680" type="line"/>
    </contour>
    <contour>
      <point x="95" y="696" type="line"/>
      <point x="95" y="474" type="line" smooth="yes"/>
      <point x="95" y="345" smooth="yes"/>
      <point x="118" y="232" smooth="yes"/>
      <point x="290" y="232" type="curve" smooth="yes"/>
      <point x="409" y="232"/>
      <point x="462" y="324"/>
      <point x="463" y="448" type="curve"/>
      <point x="430" y="448" type="line"/>
      <point x="429" y="347" smooth="yes"/>
      <point x="386" y="291" smooth="yes"/>
      <point x="298" y="291" type="curve" smooth="yes"/>
      <point x="174" y="291" smooth="yes"/>
      <point x="165" y="378" smooth="yes"/>
      <point x="165" y="474" type="curve" smooth="yes"/>
      <point x="165" y="696" type="line"/>
    </contour>
    <contour>
      <point x="846" y="367" type="curve" smooth="yes"/>
      <point x="846" y="482" smooth="yes"/>
      <point x="824" y="572" smooth="yes"/>
      <point x="662" y="572" type="curve" smooth="yes"/>
      <point x="529" y="572"/>
      <point x="466" y="483"/>
      <point x="465" y="372" type="curve"/>
      <point x="500" y="372" type="line"/>
      <point x="500" y="463" smooth="yes"/>
      <point x="549" y="513" smooth="yes"/>
      <point x="646" y="513" type="curve" smooth="yes"/>
      <point x="767" y="513" smooth="yes"/>
      <point x="776" y="453" smooth="yes"/>
      <point x="776" y="367" type="curve" smooth="yes"/>
      <point x="776" y="299"/>
      <point x="755" y="218"/>
      <point x="711" y="163" type="curve"/>
      <point x="770" y="133" type="line"/>
      <point x="820" y="199" smooth="yes"/>
      <point x="846" y="288" smooth="yes"/>
    </contour>
    <contour>
      <point x="479" y="42" type="line"/>
      <point x="456" y="78" smooth="yes"/>
      <point x="418" y="98" smooth="yes"/>
      <point x="364" y="98" type="curve" smooth="yes"/>
      <point x="295" y="98" smooth="yes"/>
      <point x="242" y="62" smooth="yes"/>
      <point x="242" y="-27" type="curve" smooth="yes"/>
      <point x="242" y="-104"/>
      <point x="291" y="-156"/>
      <point x="390" y="-198" type="curve"/>
      <point x="409" y="-156" type="line"/>
      <point x="333" y="-121" smooth="yes"/>
      <point x="296" y="-82" smooth="yes"/>
      <point x="296" y="-22" type="curve" smooth="yes"/>
      <point x="296" y="31" smooth="yes"/>
      <point x="324" y="54" smooth="yes"/>
      <point x="364" y="54" type="curve" smooth="yes"/>
      <point x="411" y="54"/>
      <point x="438" y="32"/>
      <point x="448" y="-8" type="curve"/>
    </contour>
  </outline>
</glyph>
<glyph name="pushpikadeva" format="1">
  <advance width="789"/>
  <outline>
    <contour>
      <point x="307" y="730" type="line"/>
      <point x="132" y="730" smooth="yes"/>
      <point x="73" y="660" smooth="yes"/>
      <point x="73" y="559" type="curve" smooth="yes"/>
      <point x="73" y="465" smooth="yes"/>
      <point x="172" y="394" smooth="yes"/>
      <point x="285" y="394" type="curve" smooth="yes"/>
      <point x="349" y="394" type="line"/>
      <point x="349" y="436" type="line"/>
      <point x="284" y="436" type="line" smooth="yes"/>
      <point x="195" y="436" smooth="yes"/>
      <point x="143" y="491" smooth="yes"/>
      <point x="143" y="556" type="curve" smooth="yes"/>
      <point x="143" y="630"/>
      <point x="178" y="680"/>
      <point x="307" y="680" type="curve"/>
    </contour>
    <contour>
      <point x="762" y="364" type="curve" smooth="yes"/>
      <point x="762" y="464" smooth="yes"/>
      <point x="746" y="557" smooth="yes"/>
      <point x="595" y="557" type="curve" smooth="yes"/>
      <point x="444" y="557" smooth="yes"/>
      <point x="428" y="464" smooth="yes"/>
      <point x="428" y="364" type="curve" smooth="yes"/>
      <point x="428" y="270"/>
      <point x="445" y="189"/>
      <point x="589" y="151" type="curve"/>
      <point x="614" y="197" type="line"/>
      <point x="499" y="227" smooth="yes"/>
      <point x="491" y="295" smooth="yes"/>
      <point x="491" y="364" type="curve" smooth="yes"/>
      <point x="491" y="437" smooth="yes"/>
      <point x="497" y="506" smooth="yes"/>
      <point x="594" y="506" type="curve" smooth="yes"/>
      <point x="693" y="506" smooth="yes"/>
      <point x="698" y="437" smooth="yes"/>
      <point x="698" y="364" type="curve" smooth="yes"/>
      <point x="698" y="213" smooth="yes"/>
      <point x="501" y="103" smooth="yes"/>
      <point x="306" y="103" type="curve" smooth="yes"/>
      <point x="194" y="103" smooth="yes"/>
      <point x="143" y="155" smooth="yes"/>
      <point x="143" y="242" type="curve" smooth="yes"/>
      <point x="143" y="319" smooth="yes"/>
      <point x="187" y="386" smooth="yes"/>
      <point x="294" y="386" type="curve" smooth="yes"/>
      <point x="349" y="386" type="line"/>
      <point x="349" y="429" type="line"/>
      <point x="283" y="429" type="line" smooth="yes"/>
      <point x="172" y="429" smooth="yes"/>
      <point x="73" y="370" smooth="yes"/>
      <point x="73" y="244" type="curve" smooth="yes"/>
      <point x="73" y="115" smooth="yes"/>
      <point x="155" y="45" smooth="yes"/>
      <point x="306" y="45" type="curve" smooth="yes"/>
      <point x="511" y="45" smooth="yes"/>
      <point x="762" y="183" smooth="yes"/>
    </contour>
  </outline>
</glyph>
<glyph name="radeva_usigndeva" format="1">
  <advance width="834"/>
  <outline>
    <contour>
      <point x="-10" y="680" type="line"/>
      <point x="844" y="680" type="line"/>
      <point x="844" y="730" type="line"/>
      <point x="-10" y="730" type="line"/>
    </contour>
    <contour>
      <point x="590" y="513" type="curve"/>
      <point x="711" y="513" smooth="yes"/>
      <point x="720" y="453" smooth="yes"/>
      <point x="720" y="367" type="curve" smooth="yes"/>
      <point x="720" y="299"/>
      <point x="699" y="218"/>
      <point x="655" y="163" type="curve"/>
      <point x="714" y="133" type="line"/>
      <point x="764" y="199" smooth="yes"/>
      <point x="790" y="288" smooth="yes"/>
      <point x="790" y="367" type="curve" smooth="yes"/>
      <point x="790" y="482" smooth="yes"/>
      <point x="768" y="572" smooth="yes"/>
      <point x="606" y="572" type="curve" smooth="yes"/>
      <point x="501" y="572"/>
      <point x="440" y="516"/>
      <point x="418" y="438" type="curve"/>
      <point x="450" y="422" type="line"/>
      <point x="466" y="481" smooth="yes"/>
      <point x="513" y="513" smooth="yes"/>
    </contour>
    <contour>
      <point x="83" y="482" type="line"/>
      <point x="110" y="368" smooth="yes"/>
      <point x="163" y="292" smooth="yes"/>
      <point x="264" y="292" type="curve" smooth="yes"/>
      <point x="433" y="292" smooth="yes"/>
      <point x="455" y="388" smooth="yes"/>
      <point x="455" y="490" type="curve" smooth="yes"/>
      <point x="455" y="680" type="line"/>
      <point x="385" y="680" type="line"/>
      <point x="385" y="490" type="line" smooth="yes"/>
      <point x="385" y="421" smooth="yes"/>
      <point x="376" y="351" smooth="yes"/>
      <point x="265" y="351" type="curve" smooth="yes"/>
      <point x="201" y="351"/>
      <point x="169" y="405"/>
      <point x="153" y="482" type="curve"/>
    </contour>
    <contour>
      <point x="83" y="482" type="line"/>
      <point x="98" y="258"/>
      <point x="203" y="109"/>
      <point x="430" y="-14" type="curve"/>
      <point x="456" y="43" type="line"/>
      <point x="253" y="155"/>
      <point x="167" y="284"/>
      <point x="153" y="482" type="curve"/>
    </contour>
  </outline>
</glyph>
<glyph name="radeva_viramadeva_anusvaradeva" format="1">
  <advance width="0"/>
  <outline>
    <contour>
      <point x="-39" y="823" type="curve" smooth="yes"/>
      <point x="-2" y="823" smooth="yes"/>
      <point x="14" y="838" smooth="yes"/>
      <point x="14" y="874" type="curve" smooth="yes"/>
      <point x="14" y="911" smooth="yes"/>
      <point x="-1" y="926" smooth="yes"/>
      <point x="-39" y="926" type="curve" smooth="yes"/>
      <point x="-75" y="926" smooth="yes"/>
      <point x="-90" y="911" smooth="yes"/>
      <point x="-90" y="874" type="curve" smooth="yes"/>
      <point x="-90" y="838" smooth="yes"/>
      <point x="-75" y="823" smooth="yes"/>
    </contour>
    <contour>
      <point x="-103" y="1087" type="curve" smooth="yes"/>
      <point x="-222" y="1087" smooth="yes"/>
      <point x="-276" y="1022" smooth="yes"/>
      <point x="-276" y="932" type="curve" smooth="yes"/>
      <point x="-276" y="859"/>
      <point x="-237" y="787"/>
      <point x="-184" y="730" type="curve"/>
      <point x="-116" y="730" type="line"/>
      <point x="-178" y="797" smooth="yes"/>
      <point x="-206" y="853" smooth="yes"/>
      <point x="-206" y="927" type="curve" smooth="yes"/>
      <point x="-206" y="987" smooth="yes"/>
      <point x="-175" y="1030" smooth="yes"/>
      <point x="-93" y="1030" type="curve" smooth="yes"/>
      <point x="-59" y="1030"/>
      <point x="-16" y="1025"/>
      <point x="28" y="1013" type="curve"/>
      <point x="33" y="1068" type="line"/>
      <point x="-7" y="1080" smooth="yes"/>
      <point x="-52" y="1087" smooth="yes"/>
    </contour>
  </outline>
</glyph>
<glyph name="radeva_viramadeva" format="1">
  <advance width="0"/>
  <outline>
    <contour>
      <point x="-103" y="1087" type="curve" smooth="yes"/>
      <point x="-222" y="1087" smooth="yes"/>
      <point x="-276" y="1022" smooth="yes"/>
      <point x="-276" y="932" type="curve" smooth="yes"/>
      <point x="-276" y="859"/>
      <point x="-237" y="787"/>
      <point x="-184" y="730" type="curve"/>
      <point x="-116" y="730" type="line"/>
      <point x="-178" y="797" smooth="yes"/>
      <point x="-206" y="853" smooth="yes"/>
      <point x="-206" y="927" type="curve" smooth="yes"/>
      <point x="-206" y="987" smooth="yes"/>
      <point x="-175" y="1030" smooth="yes"/>
      <point x="-93" y="1030" type="curve" smooth="yes"/>
      <point x="-59" y="1030"/>
      <point x="-16" y="1025"/>
      <point x="28" y="1013" type="curve"/>
      <point x="33" y="1068" type="line"/>
      <point x="-7" y="1080" smooth="yes"/>
      <point x="-52" y="1087" smooth="yes"/>
    </contour>
  </outline>
</glyph>
<glyph name="ringacute.case" format="1">
  <advance width="274"/>
  <outline>
    <contour>
      <point x="198" y="928" type="line" name="hr01"/>
      <point x="295" y="1018" type="line"/>
      <point x="246" y="1057" type="line"/>
      <point x="165" y="952" type="line"/>
    </contour>
    <contour>
      <point x="144" y="829" type="curve" smooth="yes" name="hr02"/>
      <point x="104" y="829" smooth="yes"/>
      <point x="102" y="858" smooth="yes"/>
      <point x="102" y="883" type="curve" smooth="yes"/>
      <point x="102" y="909" smooth="yes"/>
      <point x="104" y="938" smooth="yes"/>
      <point x="144" y="938" type="curve" smooth="yes"/>
      <point x="186" y="938" smooth="yes"/>
      <point x="188" y="909" smooth="yes"/>
      <point x="188" y="883" type="curve" smooth="yes"/>
      <point x="188" y="858" smooth="yes"/>
      <point x="186" y="829" smooth="yes"/>
    </contour>
    <contour>
      <point x="144" y="786" type="curve" smooth="yes"/>
      <point x="235" y="786" smooth="yes"/>
      <point x="240" y="837" smooth="yes"/>
      <point x="240" y="883" type="curve" smooth="yes"/>
      <point x="240" y="929" smooth="yes"/>
      <point x="235" y="981" smooth="yes"/>
      <point x="144" y="981" type="curve" smooth="yes"/>
      <point x="55" y="981" smooth="yes"/>
      <point x="50" y="929" smooth="yes"/>
      <point x="50" y="883" type="curve" smooth="yes"/>
      <point x="50" y="837" smooth="yes"/>
      <point x="55" y="786" smooth="yes"/>
    </contour>
  </outline>
</glyph>
<glyph name="ta_virama_ra_viramadeva" format="1">
  <advance width="355"/>
  <outline>
    <contour>
      <point x="480" y="680" type="line"/>
      <point x="480" y="730" type="line"/>
      <point x="-10" y="730" type="line"/>
      <point x="-10" y="680" type="line"/>
    </contour>
    <contour>
      <point x="72" y="428" type="line"/>
      <point x="99" y="482" smooth="yes"/>
      <point x="148" y="513" smooth="yes"/>
      <point x="215" y="513" type="curve" smooth="yes"/>
      <point x="301" y="513" smooth="yes"/>
      <point x="347" y="468" smooth="yes"/>
      <point x="415" y="394" type="curve" smooth="yes"/>
      <point x="480" y="324" type="line"/>
      <point x="505" y="375" type="line"/>
      <point x="454" y="430" type="line" smooth="yes"/>
      <point x="366" y="524" smooth="yes"/>
      <point x="313" y="572" smooth="yes"/>
      <point x="208" y="572" type="curve" smooth="yes"/>
      <point x="122" y="572"/>
      <point x="60" y="532"/>
      <point x="23" y="464" type="curve"/>
    </contour>
    <contour>
      <point x="505" y="375" type="line"/>
      <point x="476" y="369" type="line"/>
      <point x="94" y="148" type="line"/>
      <point x="125" y="89" type="line"/>
      <point x="505" y="326" type="line"/>
    </contour>
  </outline>
</glyph>
<glyph name="tadeva_viramadeva" format="1">
  <advance width="360"/>
  <outline>
    <contour>
      <point x="485" y="730" type="line"/>
      <point x="-10" y="730" type="line"/>
      <point x="-10" y="680" type="line"/>
      <point x="485" y="680" type="line"/>
    </contour>
    <contour>
      <point x="510" y="504" type="line"/>
      <point x="275" y="504" type="line" smooth="yes"/>
      <point x="137" y="504" smooth="yes"/>
      <point x="88" y="457" smooth="yes"/>
      <point x="88" y="337" type="curve" smooth="yes"/>
      <point x="88" y="178"/>
      <point x="183" y="73"/>
      <point x="362" y="-14" type="curve"/>
      <point x="388" y="43" type="line"/>
      <point x="234" y="120" smooth="yes"/>
      <point x="158" y="208" smooth="yes"/>
      <point x="158" y="344" type="curve" smooth="yes"/>
      <point x="158" y="422" smooth="yes"/>
      <point x="187" y="454" smooth="yes"/>
      <point x="275" y="454" type="curve" smooth="yes"/>
      <point x="510" y="454" type="line"/>
    </contour>
  </outline>
</glyph>
<glyph name="isigndeva_anusvara.tha" format="1">
  <advance width="300"/>
  <outline>
    <contour>
      <point x="832" y="922" type="curve" smooth="yes"/>
      <point x="869" y="922" smooth="yes"/>
      <point x="885" y="937" smooth="yes"/>
      <point x="885" y="973" type="curve" smooth="yes"/>
      <point x="885" y="1010" smooth="yes"/>
      <point x="870" y="1025" smooth="yes"/>
      <point x="832" y="1025" type="curve" smooth="yes"/>
      <point x="796" y="1025" smooth="yes"/>
      <point x="781" y="1010" smooth="yes"/>
      <point x="781" y="973" type="curve" smooth="yes"/>
      <point x="781" y="937" smooth="yes"/>
      <point x="796" y="922" smooth="yes"/>
    </contour>
    <component  base="isigndeva.tha"/>
  </outline>
</glyph>
<glyph name="ttadeva_viramadeva_ttadeva" format="1">
  <advance width="610"/>
  <outline>
    <contour>
      <point x="484" y="395" type="line"/>
      <point x="477" y="333" smooth="yes"/>
      <point x="436" y="289" smooth="yes"/>
      <point x="299" y="289" type="curve" smooth="yes"/>
      <point x="173" y="289" smooth="yes"/>
      <point x="121" y="335" smooth="yes"/>
      <point x="121" y="436" type="curve" smooth="yes"/>
      <point x="121" y="513" smooth="yes"/>
      <point x="173" y="537" smooth="yes"/>
      <point x="310" y="537" type="curve" smooth="yes"/>
      <point x="495" y="537" type="line"/>
      <point x="495" y="730" type="line"/>
      <point x="-10" y="730" type="line"/>
      <point x="-10" y="680" type="line"/>
      <point x="425" y="680" type="line"/>
      <point x="425" y="594" type="line"/>
      <point x="309" y="594" type="line" smooth="yes"/>
      <point x="123" y="594" smooth="yes"/>
      <point x="51" y="549" smooth="yes"/>
      <point x="51" y="436" type="curve" smooth="yes"/>
      <point x="51" y="296" smooth="yes"/>
      <point x="129" y="233" smooth="yes"/>
      <point x="299" y="233" type="curve" smooth="yes"/>
      <point x="483" y="233"/>
      <point x="531" y="299"/>
      <point x="543" y="395" type="curve"/>
    </contour>
    <contour>
      <point x="495" y="680" type="line"/>
      <point x="620" y="680" type="line"/>
      <point x="620" y="730" type="line"/>
      <point x="495" y="730" type="line"/>
    </contour>
    <contour>
      <point x="484" y="-53" type="line"/>
      <point x="477" y="-115" smooth="yes"/>
      <point x="436" y="-159" smooth="yes"/>
      <point x="299" y="-159" type="curve" smooth="yes"/>
      <point x="173" y="-159" smooth="yes"/>
      <point x="121" y="-113" smooth="yes"/>
      <point x="121" y="-12" type="curve" smooth="yes"/>
      <point x="121" y="65" smooth="yes"/>
      <point x="173" y="89" smooth="yes"/>
      <point x="310" y="89" type="curve" smooth="yes"/>
      <point x="495" y="89" type="line"/>
      <point x="495" y="330" type="line"/>
      <point x="425" y="280" type="line"/>
      <point x="425" y="146" type="line"/>
      <point x="309" y="146" type="line" smooth="yes"/>
      <point x="123" y="146" smooth="yes"/>
      <point x="51" y="101" smooth="yes"/>
      <point x="51" y="-12" type="curve" smooth="yes"/>
      <point x="51" y="-152" smooth="yes"/>
      <point x="129" y="-215" smooth="yes"/>
      <point x="299" y="-215" type="curve" smooth="yes"/>
      <point x="483" y="-215"/>
      <point x="531" y="-149"/>
      <point x="543" y="-53" type="curve"/>
    </contour>
  </outline>
</glyph>
<glyph name="ttadeva_viramadeva_vadeva" format="1">
  <advance width="610"/>
  <outline>
    <contour>
      <point x="484" y="395" type="line"/>
      <point x="477" y="333" smooth="yes"/>
      <point x="436" y="289" smooth="yes"/>
      <point x="299" y="289" type="curve" smooth="yes"/>
      <point x="173" y="289" smooth="yes"/>
      <point x="121" y="335" smooth="yes"/>
      <point x="121" y="436" type="curve" smooth="yes"/>
      <point x="121" y="513" smooth="yes"/>
      <point x="173" y="537" smooth="yes"/>
      <point x="310" y="537" type="curve" smooth="yes"/>
      <point x="465" y="537" type="line"/>
      <point x="465" y="730" type="line"/>
      <point x="-10" y="730" type="line"/>
      <point x="-10" y="680" type="line"/>
      <point x="395" y="680" type="line"/>
      <point x="395" y="594" type="line"/>
      <point x="309" y="594" type="line" smooth="yes"/>
      <point x="123" y="594" smooth="yes"/>
      <point x="51" y="549" smooth="yes"/>
      <point x="51" y="436" type="curve" smooth="yes"/>
      <point x="51" y="296" smooth="yes"/>
      <point x="129" y="233" smooth="yes"/>
      <point x="299" y="233" type="curve" smooth="yes"/>
      <point x="483" y="233"/>
      <point x="531" y="299"/>
      <point x="543" y="395" type="curve"/>
    </contour>
    <contour>
      <point x="465" y="680" type="line"/>
      <point x="620" y="680" type="line"/>
      <point x="620" y="730" type="line"/>
      <point x="465" y="730" type="line"/>
    </contour>
    <contour>
      <point x="395" y="-206" type="line"/>
      <point x="465" y="-206" type="line"/>
      <point x="465" y="286" type="line"/>
      <point x="395" y="286" type="line"/>
    </contour>
    <contour>
      <point x="348" y="143" type="line"/>
      <point x="316" y="153" smooth="yes"/>
      <point x="282" y="159" smooth="yes"/>
      <point x="242" y="159" type="curve" smooth="yes"/>
      <point x="70" y="159" smooth="yes"/>
      <point x="51" y="86" smooth="yes"/>
      <point x="51" y="7" type="curve" smooth="yes"/>
      <point x="51" y="-80" smooth="yes"/>
      <point x="70" y="-158" smooth="yes"/>
      <point x="241" y="-158" type="curve" smooth="yes"/>
      <point x="320" y="-158"/>
      <point x="379" y="-143"/>
      <point x="420" y="-114" type="curve"/>
      <point x="420" y="-53" type="line"/>
      <point x="390" y="-81" smooth="yes"/>
      <point x="330" y="-103" smooth="yes"/>
      <point x="250" y="-103" type="curve" smooth="yes"/>
      <point x="132" y="-103" smooth="yes"/>
      <point x="121" y="-54" smooth="yes"/>
      <point x="121" y="6" type="curve" smooth="yes"/>
      <point x="121" y="58" smooth="yes"/>
      <point x="132" y="103" smooth="yes"/>
      <point x="255" y="103" type="curve" smooth="yes"/>
      <point x="283" y="103"/>
      <point x="310" y="99"/>
      <point x="335" y="91" type="curve"/>
    </contour>
  </outline>
</glyph>
<glyph name="tthadeva_viraamdeva_yadeva" format="1">
  <advance width="1323"/>
  <outline>
    <contour>
      <point x="481" y="421" type="line"/>
      <point x="581" y="484" smooth="yes"/>
      <point x="661" y="515" smooth="yes"/>
      <point x="753" y="515" type="curve" smooth="yes"/>
      <point x="835" y="515" smooth="yes"/>
      <point x="865" y="475" smooth="yes"/>
      <point x="865" y="430" type="curve" smooth="yes"/>
      <point x="865" y="382" smooth="yes"/>
      <point x="839" y="334" smooth="yes"/>
      <point x="737" y="334" type="curve" smooth="yes"/>
      <point x="681" y="334" type="line"/>
      <point x="700" y="286" type="line"/>
      <point x="737" y="286" type="line" smooth="yes"/>
      <point x="870" y="286" smooth="yes"/>
      <point x="935" y="344" smooth="yes"/>
      <point x="935" y="433" type="curve" smooth="yes"/>
      <point x="935" y="494" smooth="yes"/>
      <point x="898" y="572" smooth="yes"/>
      <point x="767" y="572" type="curve" smooth="yes"/>
      <point x="681" y="572"/>
      <point x="598" y="552"/>
      <point x="481" y="475" type="curve"/>
    </contour>
    <contour>
      <point x="934" y="98" type="curve" smooth="yes"/>
      <point x="1040" y="98"/>
      <point x="1118" y="136"/>
      <point x="1173" y="202" type="curve"/>
      <point x="1173" y="265" type="line"/>
      <point x="1129" y="207" smooth="yes"/>
      <point x="1052" y="156" smooth="yes"/>
      <point x="934" y="156" type="curve" smooth="yes"/>
      <point x="807" y="156"/>
      <point x="751" y="223"/>
      <point x="751" y="334" type="curve"/>
      <point x="681" y="334" type="line"/>
      <point x="681" y="186" smooth="yes"/>
      <point x="768" y="98" smooth="yes"/>
    </contour>
    <contour>
      <point x="643" y="680" type="line"/>
      <point x="1333" y="680" type="line"/>
      <point x="1333" y="730" type="line"/>
      <point x="643" y="730" type="line"/>
    </contour>
    <contour>
      <point x="1138" y="0" type="line"/>
      <point x="1208" y="0" type="line"/>
      <point x="1208" y="680" type="line"/>
      <point x="1138" y="680" type="line"/>
    </contour>
    <contour>
      <point x="320" y="75" type="line"/>
      <point x="179" y="75" smooth="yes"/>
      <point x="121" y="141" smooth="yes"/>
      <point x="121" y="296" type="curve" smooth="yes"/>
      <point x="121" y="412" smooth="yes"/>
      <point x="203" y="445" smooth="yes"/>
      <point x="310" y="445" type="curve" smooth="yes"/>
      <point x="413" y="445" type="line"/>
      <point x="413" y="680" type="line"/>
      <point x="343" y="680" type="line"/>
      <point x="343" y="504" type="line"/>
      <point x="309" y="504" type="line" smooth="yes"/>
      <point x="153" y="504" smooth="yes"/>
      <point x="51" y="445" smooth="yes"/>
      <point x="51" y="296" type="curve" smooth="yes"/>
      <point x="51" y="103"/>
      <point x="136" y="16"/>
      <point x="320" y="16" type="curve"/>
    </contour>
    <contour>
      <point x="320" y="16" type="line"/>
      <point x="511" y="16" smooth="yes"/>
      <point x="599" y="103" smooth="yes"/>
      <point x="599" y="296" type="curve" smooth="yes"/>
      <point x="599" y="445"/>
      <point x="500" y="504"/>
      <point x="353" y="504" type="curve"/>
      <point x="353" y="445" type="line"/>
      <point x="441" y="445" smooth="yes"/>
      <point x="529" y="412" smooth="yes"/>
      <point x="529" y="296" type="curve" smooth="yes"/>
      <point x="529" y="141"/>
      <point x="468" y="75"/>
      <point x="320" y="75" type="curve"/>
    </contour>
    <contour>
      <point x="-10" y="680" type="line"/>
      <point x="660" y="680" type="line"/>
      <point x="660" y="730" type="line"/>
      <point x="-10" y="730" type="line"/>
    </contour>
  </outline>
</glyph>
<glyph name="viramadeva_radeva" format="1">
  <advance width="0"/>
  <outline>
    <contour>
      <point x="-134" y="5" type="line"/>
      <point x="-289" y="-266" type="line"/>
      <point x="-346" y="-230" type="line"/>
      <point x="-173" y="52" type="line"/>
      <point x="-127" y="52" type="line"/>
      <point x="46" y="-230" type="line"/>
      <point x="-11" y="-266" type="line"/>
      <point x="-166" y="5" type="line"/>
    </contour>
  </outline>
</glyph>
<glyph name="yadeva_viramadeva" format="1">
  <advance width="370"/>
  <outline>
    <contour>
      <point x="65" y="680" type="line"/>
      <point x="180" y="680" smooth="yes"/>
      <point x="212" y="625" smooth="yes"/>
      <point x="212" y="544" type="curve" smooth="yes"/>
      <point x="212" y="470" smooth="yes"/>
      <point x="186" y="414" smooth="yes"/>
      <point x="84" y="414" type="curve" smooth="yes"/>
      <point x="28" y="414" type="line"/>
      <point x="47" y="364" type="line"/>
      <point x="84" y="364" type="line" smooth="yes"/>
      <point x="217" y="364" smooth="yes"/>
      <point x="282" y="434" smooth="yes"/>
      <point x="282" y="545" type="curve" smooth="yes"/>
      <point x="282" y="649"/>
      <point x="227" y="718"/>
      <point x="65" y="718" type="curve"/>
    </contour>
    <contour>
      <point x="281" y="139" type="curve" smooth="yes"/>
      <point x="387" y="139"/>
      <point x="465" y="186"/>
      <point x="520" y="260" type="curve"/>
      <point x="520" y="325" type="line"/>
      <point x="476" y="259" smooth="yes"/>
      <point x="399" y="197" smooth="yes"/>
      <point x="281" y="197" type="curve" smooth="yes"/>
      <point x="154" y="197"/>
      <point x="98" y="279"/>
      <point x="98" y="414" type="curve"/>
      <point x="28" y="414" type="line"/>
      <point x="28" y="237" smooth="yes"/>
      <point x="115" y="139" smooth="yes"/>
    </contour>
    <contour>
      <point x="-10" y="680" type="line"/>
      <point x="495" y="680" type="line"/>
      <point x="495" y="730" type="line"/>
      <point x="-10" y="730" type="line"/>
    </contour>
  </outline>
</glyph>
